<svg width="140" height="40" fill="none" xmlns="http://www.w3.org/2000/svg"><path d="M11.157 12.981l3.985-.345-.317-3.655h-3.668v4zm1.046 12.05l-3.985.346h7.97l-3.985-.346zm1.046-12.05v-4H9.581l-.317 3.655 3.985.345zm4.983 0l3.95.634.744-4.634h-4.694v4zM15.982 27v4h3.41l.54-3.366-3.95-.634zm-7.54 0l-3.95.634.54 3.366h3.41v-4zm-2.25-14.019v-4H1.497l.744 4.634 3.95-.634zm.98.346l1.046 12.05 7.97-.692-1.046-12.05-7.97.692zm9.016 12.05l1.046-12.05-7.97-.691-1.046 12.05 7.97.691zm-2.939-8.396h4.983v-8H13.25v8zm1.034-4.633l-2.25 14.018 7.899 1.268 2.25-14.019-7.899-1.267zM15.983 23H8.44v8h7.541v-8zm-3.592 3.366l-2.25-14.018-7.899 1.267 2.25 14.019 7.899-1.268zm-6.2-9.385h4.966v-8H6.191v8zm19.916.553l-2.09 3.41.024.015.024.015 2.042-3.44zm.73.299l-1.129 3.838.045.012.044.012 1.04-3.862zm2.215.563L27.82 22.2l.034.011.033.01 1.165-3.827zm1.186.483l-1.831 3.556.02.01.022.012 1.79-3.578zm1.029.765l-2.909 2.746.027.028.026.027 2.856-2.801zm.73 1.15l-3.718 1.478.008.02.008.021 3.701-1.518zm.052 4.158l3.836 1.132.003-.008.002-.009-3.841-1.115zm-1.433 1.732l1.83 3.556.01-.005.01-.005-1.85-3.546zm-5.792.518l.555-3.961-.017-.003-.017-.002-.52 3.966zm-2.522-.984l-2.797 2.86.032.031.033.03 2.732-2.921zm-.633-.905l-3.66 1.613.011.025.012.026 3.637-1.665zm-.404-2.672v-4h-4v4h4zm4.57 0h4v-4h-4v4zm0 2.276h-4v4h4v-4zm2.074 0v4h4v-4h-4zm-.281-3.023l-2.09 3.41.024.015.024.014 2.042-3.44zm-.73-.3l-1.197 3.817.044.014.045.013 1.108-3.843zm-2.214-.588l-1.18 3.822.007.002.008.003 1.165-3.827zm-2.215-1.099l-2.647 3 .031.027.032.027 2.584-3.054zm-.73-.94l-3.589 1.766.017.034.018.034 3.554-1.834zm-.175-3.006l3.966.52v-.007l-3.966-.513zm.975-2.232l2.732 2.922.016-.016.017-.016-2.765-2.89zm1.01-.624L22.11 9.371l-.009.004-.009.004 1.458 3.724zM25 12.761l-.496-3.97-.005.001.501 3.969zm4.588.105l-.804 3.919h.007l.797-3.919zm2.69 3.955v4h4v-4h-4zm-4.369 0h-4v4h4v-4zm0-1.757h4v-4h-4v4zm-2.074 0v-4h-4v4h4zm-4 2.02c0 1.791 1.006 3.139 2.182 3.86l4.18-6.821c.335.205.775.562 1.124 1.137.363.597.514 1.241.514 1.825h-8zm2.23 3.889a7.187 7.187 0 001.643.697l2.258-7.675c-.042-.013-.045-.016-.02-.005.025.01.099.042.204.104l-4.085 6.879zm1.732.721c.389.105.807.204 1.247.297l1.66-7.826c-.333-.07-.607-.136-.827-.196l-2.08 7.725zm1.247.297c.244.052.502.12.776.21l2.463-7.612a15.747 15.747 0 00-1.579-.424l-1.66 7.826zm.843.23c.168.051.34.12.52.213l3.663-7.112a11.106 11.106 0 00-1.854-.754l-2.329 7.653zm.562.235a.344.344 0 01-.09-.067l5.816-5.493a7.648 7.648 0 00-2.148-1.596l-3.578 7.156zm-.038-.012a.862.862 0 01-.112-.14c-.022-.035-.026-.049-.02-.033l7.434-2.954a7.422 7.422 0 00-1.591-2.476l-5.71 5.603zm-.116-.132c-.031-.077-.035-.113-.031-.091.004.023.013.095.013.225h8c0-1.014-.145-2.11-.58-3.17l-7.402 3.036zm-.018.134c0 .396-.01.764-.029 1.105l7.988.444a27.96 27.96 0 00.041-1.549h-8zm-.029 1.105c-.008.154-.029.244-.04.285l7.682 2.23c.2-.686.308-1.38.346-2.07l-7.988-.445zm-.036.268a.996.996 0 01.16-.313l6.37 4.841a7.002 7.002 0 001.143-2.264l-7.673-2.264zm.16-.313c.103-.135.203-.23.277-.288a1.04 1.04 0 01.117-.082l3.7 7.093c.805-.42 1.621-1.022 2.275-1.882l-6.369-4.84zm.414-.38c.035-.018.027-.01-.045.013-.07.022-.186.052-.355.083l1.437 7.87c.86-.157 1.77-.414 2.624-.853l-3.661-7.113zm-.4.096c-.297.055-.785.102-1.514.102v8c1.029 0 2.03-.063 2.951-.232l-1.437-7.87zm-1.514.102c-.648 0-1.138-.034-1.493-.084l-1.11 7.922c.817.115 1.693.162 2.603.162v-8zm-1.527-.089a2.572 2.572 0 01-.547-.115l-2.935 7.442c.797.314 1.63.499 2.44.605l1.042-7.932zm-.547-.115c-.045-.018.069.019.235.175L19.57 29.14a7.2 7.2 0 002.293 1.423l2.935-7.442zm.3.237c.099.096.168.203.208.29l-7.274 3.329a6.997 6.997 0 001.473 2.1l5.593-5.72zm.231.341c.027.06.008.043-.01-.095l-7.932 1.044c.099.753.29 1.526.622 2.277l7.32-3.226zm-.01-.095a7.483 7.483 0 01-.054-.963h-8c0 .684.036 1.357.122 2.007l7.931-1.044zm-4.054 3.037h4.57v-8h-4.57v8zm.57-4v2.276h8v-2.276h-8zm4 6.276h2.074v-8h-2.074v8zm6.074-4v-2.602h-8v2.602h8zm0-2.602c0-1.987-1.232-3.263-2.239-3.86l-4.084 6.878a3.37 3.37 0 01-1.075-1.032 3.59 3.59 0 01-.602-1.986h8zm-2.19-3.832a6.965 6.965 0 00-1.712-.732l-2.217 7.687c.041.012.038.013.003-.001a1.815 1.815 0 01-.255-.133l4.18-6.82zm-1.623-.705c-.424-.133-.874-.25-1.34-.356l-1.772 7.8c.308.07.543.135.717.19l2.395-7.634zm-1.34-.356c-.287-.066-.59-.146-.908-.243l-2.33 7.654c.491.149.98.28 1.466.39l1.773-7.801zm-.892-.238a5.913 5.913 0 01-.703-.268l-3.31 7.283c.538.245 1.089.455 1.652.629l2.36-7.644zm-.703-.268a.472.472 0 01-.109-.062l-5.167 6.107c.603.51 1.265.92 1.966 1.238l3.31-7.283zm-.046-.008a.843.843 0 01.179.224l-7.11 3.67c.41.792.957 1.504 1.638 2.105l5.293-6zm.213.293c.146.296.139.488.139.447h-8c0 .98.174 2.05.683 3.085l7.178-3.532zm.139.447c0-.503.026-.887.063-1.168l-7.933-1.038c-.092.703-.13 1.445-.13 2.206h8zm.063-1.174c.029-.22.062-.28.044-.238l-7.353-3.152a8.878 8.878 0 00-.624 2.364l7.933 1.026zm.044-.238c-.04.095-.133.256-.303.415l-5.463-5.845a6.724 6.724 0 00-1.587 2.279l7.353 3.15zm-.27.383c-.164.157-.293.21-.297.21l-2.915-7.45a7.041 7.041 0 00-2.318 1.459l5.53 5.781zm-.315.218c.039-.015.193-.067.512-.107L24.5 8.793c-.794.1-1.607.278-2.389.58l2.88 7.464zm.507-.106a12.09 12.09 0 011.464-.075v-8c-.862 0-1.687.04-2.456.137l.992 7.938zm1.464-.075c.921 0 1.502.064 1.824.13l1.608-7.837c-1.05-.215-2.22-.293-3.432-.293v8zm1.83.13c.127.026.166.046.145.037a1.133 1.133 0 01-.255-.165l5.086-6.175c-1.055-.869-2.272-1.31-3.38-1.536l-1.595 7.84zm-.11-.128c-.12-.1-.232-.223-.322-.364a1.291 1.291 0 01-.155-.333l7.692-2.198a6.523 6.523 0 00-2.13-3.28l-5.085 6.175zm-.477-.697c.019.066.074.325.074.861h8c0-1.01-.096-2.058-.382-3.059l-7.692 2.198zm4.074-3.139H27.91v8h4.368v-8zm-.368 4v-1.757h-8v1.757h8zm-4-5.757h-2.074v8h2.074v-8zm-6.074 4v2.02h8v-2.02h-8zm19.996 0h4v-4h-4v4zm-2.074 0v-4h-4v4h4zm0 9.852h-4v4h4v-4zm2.074 0v4h4v-4h-4zm0-3.946v-4h-4v4h4zm4.368 0h4v-4h-4v4zm-.044 3.524l-3.976-.432-.005.043-.004.043 3.985.346zm-.21.809l-3.669-1.595-.008.02-.009.019 3.685 1.556zm-1.46 1.415l-1.682-3.629-.01.005-.01.005 1.702 3.619zm-1.503.448l-.725-3.934-.022.004-.022.005.77 3.925zm-4.368 0l.77-3.925-.019-.004-.018-.003-.733 3.932zm-1.503-.448l-1.703 3.619.01.005.01.005 1.683-3.63zm-1.459-1.415l-3.668 1.595.006.014.007.015 3.655-1.624zm-.22-9.835l3.976.442.001-.01-3.976-.432zm.212-.8l-3.656-1.625-.015.035-.014.034 3.685 1.556zm.518-.756l-2.896-2.758-.002.001 2.898 2.757zm.95-.642l1.659 3.64.022-.01.022-.01-1.704-3.62zm1.485-.448l-.733-3.932-.007.001.74 3.931zm5.888.448l-1.682 3.63.021.01.022.01 1.64-3.65zm.95.642l-2.932 2.722.017.017.016.018 2.899-2.757zm.51.756l-3.686 1.556.015.034.015.035 3.655-1.625zm.21.8l-3.985.346.005.048.005.048 3.975-.442zm.044 3.542v4h4v-4h-4zm-4.368 0h-4v4h4v-4zm0-7.946h-2.074v8h2.074v-8zm-6.074 4v9.852h8v-9.853h-8zm4 13.852h2.074v-8h-2.074v8zm6.074-4v-3.946h-8v3.946h8zm-4 .054H46.2v-8h-4.368v8zm.368-4v2.768h8v-2.768h-8zm0 2.768c0 .07-.004.176-.02.324l7.953.864c.042-.391.067-.789.067-1.188h-8zm-.029.41c.017-.197.066-.348.106-.44l7.337 3.19a6.576 6.576 0 00.527-2.057l-7.97-.693zm.09-.401c.098-.233.209-.364.243-.401l5.863 5.443c.492-.53.942-1.17 1.263-1.93l-7.37-3.112zm.243-.401c.114-.122.21-.196.262-.231.051-.035.07-.04.038-.026l3.365 7.258c.73-.339 1.521-.829 2.198-1.558l-5.863-5.443zm.28-.248c.01-.005-.022.011-.115.04a4.013 4.013 0 01-.411.094l1.451 7.868c.82-.152 1.676-.384 2.48-.763l-3.406-7.239zm-.57.143c-.264.052-.72.1-1.42.1v8c1.024 0 2.028-.067 2.96-.25l-1.54-7.85zm-1.42.1c-.691 0-1.144-.048-1.41-.1l-1.538 7.85c.93.183 1.93.25 2.949.25v-8zm-1.446-.107a4.077 4.077 0 01-.413-.097 1.627 1.627 0 01-.106-.035c-.024-.008-.034-.013-.034-.013l-3.366 7.258c.795.368 1.638.6 2.454.751l1.465-7.864zm-.532-.136c-.03-.014-.012-.008.038.027s.142.105.25.22L33.24 28.79c.666.718 1.444 1.207 2.168 1.548l3.407-7.239zm.287.248c.024.025.117.133.206.332l-7.31 3.25a6.8 6.8 0 001.242 1.861l5.862-5.443zm.219.362c.03.07.07.19.088.354l-7.953.864c.076.703.264 1.363.528 1.972l7.337-3.19zm.088.354a3.044 3.044 0 01-.02-.324h-8c0 .4.024.797.067 1.188l7.953-.864zm-.02-.324v-7.523h-8v7.523h8zm0-7.523c0-.07.004-.17.02-.306l-7.952-.883c-.043.392-.068.79-.068 1.189h8zm.02-.315a1.17 1.17 0 01-.08.324l-7.37-3.112a6.838 6.838 0 00-.503 1.924l7.953.864zm-.11.393a1.35 1.35 0 01-.239.376l-5.796-5.514a6.677 6.677 0 00-1.276 1.888l7.31 3.25zm-.24.378c-.204.213-.35.267-.288.24l-3.319-7.28c-.735.335-1.514.816-2.186 1.523l5.793 5.517zm-.244.219c-.006.002.03-.015.122-.043.09-.027.221-.06.4-.094l-1.48-7.862c-.812.153-1.655.387-2.449.76l3.407 7.239zm.514-.135c.282-.053.746-.1 1.439-.1v-8c-1.007 0-1.99.065-2.904.235l1.465 7.865zm1.439-.1c.714 0 1.191.048 1.48.1l1.451-7.866c-.918-.17-1.912-.234-2.931-.234v8zm1.48.1c.185.035.323.07.42.098.096.029.137.047.135.046l3.365-7.257c-.8-.371-1.65-.602-2.469-.753l-1.451 7.867zm.598.164c.064.029-.11-.035-.343-.285l5.863-5.444c-.69-.742-1.497-1.234-2.241-1.568l-3.279 7.297zm-.31-.25a1.504 1.504 0 01-.277-.445l7.37-3.112a6.523 6.523 0 00-1.296-1.957l-5.797 5.514zm-.247-.377a1.514 1.514 0 01-.119-.478l7.97-.693a6.49 6.49 0 00-.54-2.078l-7.31 3.25zm-.11-.382c.016.135.02.236.02.305h8c0-.4-.025-.797-.068-1.189l-7.951.884zm.02.305v2.795h8v-2.795h-8zm4-1.205h-4.368v8H46.2v-8zm-.368 4v-3.946h-8v3.946h8zm8.085 5.906h-4v4h4v-4zm2.074 0v4h4v-4h-4zm0-7.233h4v-4h-4v4zm-2.074 0v-4h-4v4h4zm-1.151 9.5l-.682 3.942.006.001.676-3.942zm-2.47-1.037l-2.9 2.756.018.018.018.019 2.864-2.793zm-.712-1.494l-3.984.355.004.048.006.049 3.974-.452zm0-6.758l-3.975-.442-.005.04-.004.04 3.984.361zm.21-.774l3.66 1.617.006-.016.007-.015-3.672-1.586zm.502-.73L47.43 13.6l-.001.001 2.865 2.792zm2.47-1.036l-.676-3.943-.006.001.682 3.941zm4.456 0l-.689 3.94h.007l.682-3.94zm1.503.421l-1.635 3.651.01.005.01.004 1.615-3.66zm.923.616l-2.937 2.716.035.038.037.037 2.865-2.791zm.492.73l-3.703 1.514.007.015.006.015 3.69-1.545zm.184.773l-3.99.266.002.048.005.048 3.983-.363zm0 6.758L56.34 24.3l-.004.041-.002.041 3.99.272zm-.676 1.495l-2.9-2.756-.019.02-.018.02 2.937 2.716zm-.923.615l-1.615-3.66-.01.005-.01.004 1.635 3.65zm-1.503.422l-.682-3.942-.007.001.689 3.94zm-3.305 1.732h2.074v-8h-2.074v8zm6.074-4v-7.233h-8v7.233h8zm-4-11.233h-2.074v8h2.074v-8zm-6.074 4v7.233h8v-7.233h-8zm5.09 5.659c-.736 0-1.243-.046-1.566-.1l-1.351 7.884c.908.156 1.895.216 2.917.216v-8zm-1.56-.1a4.738 4.738 0 01-.45-.097 1.964 1.964 0 01-.157-.052l-3.19 7.337c.788.342 1.625.555 2.434.695l1.364-7.883zm-.607-.149c-.033-.014-.014-.009.04.026.055.036.158.11.28.235L47.43 28.94c.693.71 1.493 1.176 2.218 1.491l3.19-7.337zm.356.298c.04.043.154.175.258.41l-7.318 3.233a6.574 6.574 0 001.26 1.867l5.8-5.51zm.258.41c.042.095.085.231.104.4l-7.948.903c.077.684.261 1.33.526 1.93l7.318-3.234zm.114.497c-.014-.16-.02-.29-.02-.393h-8c0 .367.02.735.052 1.102l7.968-.709zm-.02-.393v-5.273h-8v5.273h8zm0-5.273c0-.102.006-.227.02-.376l-7.968-.725c-.033.366-.051.734-.051 1.1h8zm.012-.297a1.379 1.379 0 01-.106.402l-7.318-3.234a6.618 6.618 0 00-.527 1.949l7.95.883zm-.093.37a1.596 1.596 0 01-.306.477L47.43 13.6a6.423 6.423 0 00-1.308 1.935l7.344 3.172zm-.307.478c-.122.125-.225.2-.28.235-.054.035-.073.04-.04.026l-3.19-7.337c-.725.315-1.525.78-2.218 1.491l5.728 5.585zm-.32.26l.01-.003a1.964 1.964 0 01.148-.047c.106-.03.254-.064.45-.098l-1.364-7.883c-.809.14-1.646.353-2.434.695l3.19 7.337zm.602-.147c.322-.055.829-.1 1.565-.1v-8c-1.022 0-2.01.06-2.917.215l1.352 7.885zm1.565-.1c.73 0 1.223.045 1.526.098l1.377-7.88c-.904-.159-1.888-.219-2.903-.219v8zm1.532.099c.195.034.337.067.434.094.1.028.133.044.117.037l3.27-7.301c-.798-.357-1.648-.573-2.456-.713l-1.364 7.883zm.571.14c.025.01-.007 0-.075-.046a1.84 1.84 0 01-.324-.282l5.873-5.433c-.697-.753-1.517-1.237-2.245-1.558l-3.229 7.319zm-.327-.253a1.728 1.728 0 01-.345-.547l7.404-3.03a6.289 6.289 0 00-1.33-2.006l-5.73 5.583zm-.333-.517a1.594 1.594 0 01-.117-.505l7.982-.533a6.406 6.406 0 00-.486-2.052l-7.38 3.09zm-.11-.41c.014.15.02.275.02.377h8c0-.367-.019-.735-.052-1.1l-7.967.724zm.02.377v5.273h8v-5.273h-8zm0 5.273c0 .102-.006.233-.02.393l7.969.709c.032-.367.05-.735.05-1.102h-8zm-.026.475c.013-.204.062-.378.116-.508l7.38 3.09a6.39 6.39 0 00.485-2.038l-7.981-.544zm.116-.508a1.61 1.61 0 01.297-.48l5.8 5.51a6.421 6.421 0 001.282-1.94l-7.38-3.09zm.261-.442c.136-.147.256-.236.324-.282.068-.045.1-.057.075-.046l3.23 7.32c.727-.322 1.547-.806 2.244-1.56l-5.873-5.432zm.379-.319c.016-.007-.017.009-.117.037a4.42 4.42 0 01-.434.094l1.365 7.883c.808-.14 1.658-.356 2.455-.713l-3.269-7.301zm-.557.132c-.303.053-.795.099-1.526.099v8c1.015 0 2-.06 2.903-.218l-1.377-7.88zm16.922-11.273h4v-4h-4v4zm0 15.029v4h4v-4h-4zm-3.612 0l-3.857 1.062.81 2.938h3.047v-4zm-.404-1.468l3.856-1.062-2.48-9.005-4.806 8.01 3.43 2.057zm-.642.782l2.684 2.967.003-.004-2.687-2.963zm-.818.563l1.761 3.592.028-.014.028-.014-1.817-3.564zm-4.297-.44l-2.802 2.856.028.026.027.027 2.747-2.909zm-.756-1.142l-3.7 1.518.007.02.009.02 3.684-1.558zm0-8.21l3.663 1.607.004-.01.004-.008-3.671-1.588zm.738-1.071l-2.685-2.965-.014.013-.014.013 2.713 2.939zm1.055-.624l-1.282-3.79-.008.003-.009.003 1.299 3.784zm2.98.123l-1.48 3.716.007.003.007.003 1.465-3.722zm1.388.949l-2.971 2.678 6.97 7.734V16.462h-4zm0-4.491v-4h-4v4h4zm0 5.713h4v-4h-4v4zm-2.074 0v-4h-4v4h4zm0 7.233h-4v4h4v-4zm2.074 0v4h4v-4h-4zm.368-12.946V27h8V11.97h-8zm4 11.029h-3.612v8h3.612v-8zm.244 2.938l-.404-1.468-7.713 2.125.404 1.467 7.713-2.124zm-7.69-2.464a.547.547 0 01.1-.122l5.375 5.925a7.44 7.44 0 001.385-1.687l-6.86-4.116zm.104-.126a.28.28 0 01.05-.035l3.633 7.128a7.755 7.755 0 001.685-1.16l-5.368-5.933zm.106-.063a.352.352 0 01-.078.026l1.779 7.8a8.339 8.339 0 001.82-.642l-3.521-7.184zm-.078.026a.614.614 0 01-.139.014v8c.643 0 1.284-.07 1.918-.214l-1.78-7.8zm-.139.014a.42.42 0 01.123.02L63.4 30.866a7.611 7.611 0 002.602.46v-8zm.123.02a.908.908 0 01.303.184l-5.493 5.817c.71.67 1.54 1.185 2.465 1.52l2.725-7.521zm.358.237a.849.849 0 01.113.134c.02.032.023.042.014.02l-7.368 3.117c.37.876.902 1.717 1.638 2.44l5.603-5.71zm.144.195c.026.064.03.096.028.084a1.082 1.082 0 01-.01-.175h-8c0 1.013.153 2.086.58 3.127l7.402-3.036zm.018-.09v-5.08h-8v5.08h8zm0-5.08c0-.082.006-.11.003-.093a.849.849 0 01-.059.178l-7.327-3.212c-.458 1.046-.617 2.124-.617 3.126h8zm-.048.067a.954.954 0 01-.22.279l-5.426-5.878a7.112 7.112 0 00-1.697 2.423l7.343 3.176zm-.248.305a.942.942 0 01-.332.194l-2.597-7.567c-.91.313-1.732.801-2.441 1.443l5.37 5.93zm-.349.2a.225.225 0 01-.06.009v-8c-.856 0-1.696.14-2.503.412L66 19.18zm-.06.009a.73.73 0 01.28.041l2.957-7.433a8.709 8.709 0 00-3.237-.608v8zm.293.047c.012.004-.002 0-.032-.02a.495.495 0 01-.085-.075l5.942-5.356a7.624 7.624 0 00-2.895-1.993l-2.93 7.444zm6.854-2.773V11.97h-8v4.49h8zm-4-.491h4.368v-8h-4.368v8zm0-2.287h-2.074v8h2.074v-8zm-6.074 4v7.233h8v-7.233h-8zm4 11.233h2.074v-8h-2.074v8zm6.074-4v-7.233h-8v7.233h8zm13.578-1.88h4v-4.009l-4.008.008.008 4zm-.044 1.186l3.988.316v-.005l-3.988-.311zm-.22 1.037l-3.759-1.367-.007.02-.007.02L86.4 25.26zm-.518.852l-2.929-2.724-.017.018-.017.019 2.963 2.687zm-.95.65l1.615 3.66.013-.005.012-.006-1.64-3.648zm-1.502.405l-.614-3.953-.022.004-.022.003.658 3.946zm-4.421-.009l-.689 3.94.007.002.682-3.942zm-2.435-1.028l-2.9 2.755.018.018.017.018 2.865-2.791zm-.492-.73l-3.702 1.515.006.015.006.015 3.69-1.545zm-.193-.773l-3.991.272.003.045.004.045 3.984-.362zm0-6.75l-3.984-.362-.004.045-.003.045 3.99.272zm.685-1.485l2.865 2.791.018-.018.017-.018-2.9-2.755zm2.435-1.037l-.682-3.942-.007.001.689 3.94zm5.924.421l-1.615 3.66.01.004.01.005 1.595-3.669zm.949.616l-2.864 2.792.035.036.036.036 2.793-2.864zm.747 1.494l-3.976.442.001.01 3.975-.452zm.044 4.025v4h4v-4h-4zm-6.442 0v-4h-4v4h4zm0 3.006h-4v4h4v-4zm2.074 0v4h4v-4h-4zm0-1.872l-.008-4-3.992.008v3.992h4zm-2.075-2.698h-4v4h4v-4zm2.075 0v4h4v-4h-4zm0-2.663h4v-4h-4v4zm-2.075 0v-4h-4v4h4zm2.434 5.352c0 .323-.011.614-.032.875l7.976.623c.038-.489.056-.989.056-1.498h-8zm-.031.87l-.003.024c.001-.005.004-.018.011-.037l7.519 2.734c.25-.687.392-1.388.448-2.088l-7.975-.633zm-.006.026c.076-.216.196-.404.326-.544l5.858 5.449a6.42 6.42 0 001.363-2.25l-7.547-2.655zm.292-.507c.236-.26.422-.332.374-.311l3.279 7.297c.761-.342 1.58-.848 2.273-1.611l-5.926-5.375zm.4-.322c.017-.008-.01.006-.1.03-.089.024-.22.053-.403.081l1.228 7.906c.821-.128 1.686-.337 2.503-.698l-3.229-7.319zm-.547.118c-.31.052-.806.095-1.53.095v8c.997 0 1.96-.056 2.845-.203l-1.315-7.892zm-1.53.095c-.738 0-1.239-.045-1.551-.1L78.327 31.1c.906.156 1.894.216 2.914.216v-8zm-1.545-.098a4.524 4.524 0 01-.436-.096c-.102-.028-.144-.047-.14-.045l-3.23 7.319c.788.347 1.625.562 2.43.703l1.376-7.881zm-.577-.141c-.035-.016-.017-.011.036.024.054.035.158.11.283.237l-5.73 5.583c.685.703 1.475 1.163 2.182 1.475l3.23-7.32zm.354.298c.052.054.185.21.298.48l-7.38 3.09a6.42 6.42 0 001.282 1.94l5.8-5.51zm.31.51c.034.083.073.213.088.38l-7.967.724c.062.683.23 1.328.475 1.926l7.404-3.03zm.095.47a6.897 6.897 0 01-.017-.466h-8c0 .334.013.67.036 1.01l7.981-.544zm-.017-.466v-5.274h-8v5.274h8zm0-5.274c0-.135.005-.29.017-.466l-7.981-.544c-.023.34-.036.676-.036 1.01h8zm.01-.376a1.43 1.43 0 01-.1.418l-7.38-3.09a6.574 6.574 0 00-.487 1.948l7.967.724zm-.1.418a1.705 1.705 0 01-.333.526L73.71 13.6a6.318 6.318 0 00-1.317 1.968l7.38 3.089zm-.298.49a1.737 1.737 0 01-.296.253c-.06.04-.085.048-.058.036l-3.229-7.32c-.724.32-1.527.794-2.217 1.52l5.8 5.51zm-.354.289c-.003.002.04-.017.141-.046.102-.028.244-.062.436-.095l-1.377-7.88c-.804.14-1.641.354-2.429.702l3.23 7.319zm.571-.14c.312-.054.813-.1 1.55-.1v-8c-1.02 0-2.008.06-2.914.217l1.364 7.883zm1.55-.1c.708 0 1.193.045 1.5.099l1.377-7.88c-.9-.158-1.874-.219-2.877-.219v8zm1.5.099c.192.033.335.067.436.095.102.029.144.047.141.046l3.23-7.32c-.788-.347-1.626-.561-2.43-.702l-1.377 7.88zm.597.15c.033.014.014.009-.04-.026a1.66 1.66 0 01-.28-.235l5.728-5.585c-.693-.71-1.494-1.176-2.218-1.49l-3.19 7.336zm-.249-.19a1.573 1.573 0 01-.307-.456l7.254-3.374a6.46 6.46 0 00-1.362-1.897l-5.585 5.728zm-.307-.456a1.527 1.527 0 01-.129-.471l7.951-.884a6.47 6.47 0 00-.568-2.019L82.782 18.8zm-.127-.462c.014.128.018.22.018.278h8c0-.398-.026-.793-.07-1.18l-7.948.902zm.018.278v3.296h8v-3.296h-8zm4-.704H80.23v8h6.442v-8zm-10.442 4v3.006h8v-3.006h-8zm4 7.006h2.074v-8H80.23v8zm6.074-4v-1.872h-8v1.872h8zm-3.992 2.128l4.36-.009-.017-8-4.36.009.017 8zm-2.082-2.698h2.074v-8H80.23v8zm6.074-4v-2.663h-8v2.663h8zm-4-6.663H80.23v8h2.075v-8zm-6.075 4v2.663h8v-2.663h-8zm22.774-4.703h4v-4h-4v4zm0 2.084v4h4v-4h-4zm-3.041 0v-4h-4v4h4zm0 11.935v4h4v-4h-4zm-4.368 0h-4v4h4v-4zm0-11.935h4v-4h-4v4zm-3.024 0h-4v4h4v-4zm0-2.084v-4h-4v4h4zm6.433 0v2.084h8V12.98h-8zm4-1.916h-3.041v8h3.04v-8zm-7.041 4V27h8V15.065h-8zm4 7.935h-4.368v8h4.368v-8zm-.368 4V15.065h-8V27h8zm-4-15.935H88.57v8h3.024v-8zm.976 4V12.98h-8v2.084h8zm-4 1.916h10.433v-8H88.57v8zM106.15 27v4h4v-4h-4zm-4.368 0h-4v4h4v-4zm0-11.426v-4h-4v4h4zm4.368 0h4v-4h-4v4zm0-3.603h4v-4h-4v4zm0 2.083v4h4v-4h-4zm-4.368 0h-4v4h4v-4zm0-2.083v-4h-4v4h4zM106.149 23h-4.368v8h4.368v-8zm-.368 4V15.574h-8V27h8zm-4-7.426h4.368v-8h-4.368v8zm.368-4V27h8V15.574h-8zm0-3.603v2.083h8V11.97h-8zm4-1.917h-4.368v8h4.368v-8zm-.368 4V11.97h-8v2.083h8zm-4 1.917h4.368v-8h-4.368v8zm6.856 14.615h-4v4h4v-4zm0-15.012v-4h-4v4h4zm3.612 0l3.856-1.062-.809-2.938h-3.047v4zm.404 1.468l-3.856 1.062 2.48 9.006 4.806-8.01-3.43-2.058zm.642-.773l2.649 2.997.019-.017.019-.018-2.687-2.962zm.826-.563l1.761 3.592.028-.014.028-.014-1.817-3.564zm.949-.343l-.875-3.903-.007.002-.007.001.889 3.9zm3.331.782l-2.801 2.856.027.026.028.027 2.746-2.909zm.756 1.134l-3.7 1.518.008.02.008.02 3.684-1.558zm.009 8.218l3.663 1.606.004-.01.004-.008-3.671-1.588zm-.747 1.064l-2.685-2.965-.014.012-.014.013 2.713 2.94zm-1.055.624l-1.281-3.79-.009.003-.008.003 1.298 3.784zm-2.118.114l.77-3.925-.031-.006-.03-.006-.709 3.937zm-.852-.246l1.499-3.709-.021-.008-.021-.008-1.457 3.725zm-.765-.396l-2.238 3.316.019.012.019.013 2.2-3.34zm-.624-.545l2.994-2.652-6.994-7.897v10.55h4zm0 4.474v4h4v-4h-4zm0-5.66h-4v4h4v-4zm2.074 0v4h4v-4h-4zm0-7.242h4v-4h-4v4zm-2.074 0v-4h-4v4h4zm-.368 12.902V15.574h-8v15.012h8zm-4-11.012h3.612v-8h-3.612v8zm-.244-2.938l.404 1.468 7.713-2.124-.405-1.468-7.712 2.125zm7.69 2.464a.714.714 0 01-.139.166l-5.298-5.995a7.269 7.269 0 00-1.423 1.713l6.86 4.116zm-.101.131a.373.373 0 01-.1.067l-3.522-7.184a7.536 7.536 0 00-1.752 1.192l5.374 5.925zm-.044.039l.003-.002a.178.178 0 01.019-.005l-1.779-7.8a8.079 8.079 0 00-1.877.68l3.634 7.127zm.007-.004a.658.658 0 01.145-.017v-8c-.642 0-1.275.072-1.895.211l1.75 7.806zm.145-.017a.414.414 0 01-.123-.02l2.725-7.521a7.616 7.616 0 00-2.602-.459v8zm-.123-.02a1.054 1.054 0 01-.367-.228l5.603-5.71a6.957 6.957 0 00-2.511-1.583l-2.725 7.522zm-.312-.175c-.149-.141-.199-.259-.198-.256l7.401-3.037a7.199 7.199 0 00-1.71-2.523l-5.493 5.816zm-.182-.216c-.029-.07-.036-.109-.035-.104.001.006.009.054.009.154h8c0-1.027-.16-2.114-.606-3.167l-7.368 3.117zm-.026.05v5.08h8v-5.08h-8zm0 5.08c0 .08-.006.11-.004.098a.752.752 0 01.052-.157l7.342 3.176c.45-1.04.61-2.113.61-3.117h-8zm.056-.077a.954.954 0 01.231-.295l5.37 5.93a7.053 7.053 0 001.725-2.423l-7.326-3.212zm.203-.27a1.09 1.09 0 01.377-.226l2.563 7.579a6.912 6.912 0 002.486-1.474l-5.426-5.879zm.36-.22a.26.26 0 01.085-.014v8c.857 0 1.7-.14 2.512-.42l-2.597-7.566zm.085-.014a.694.694 0 01-.135-.013l-1.54 7.85a8.7 8.7 0 001.675.163v-8zm-.196-.025a.304.304 0 01-.062-.018l-2.999 7.417a8.31 8.31 0 001.643.475l1.418-7.874zm-.104-.034a.094.094 0 01-.022-.011l-4.4 6.68c.475.314.979.574 1.507.78l2.915-7.45zm.016.014a.723.723 0 01.132.118l-5.988 5.304a7.29 7.29 0 001.38 1.209l4.476-6.631zm-6.862 2.77v4.474h8v-4.474h-8zm4 .474h-4.368v8h4.368v-8zm0 2.34h2.074v-8h-2.074v8zm6.074-4v-7.242h-8v7.242h8zm-4-11.242h-2.074v8h2.074v-8zm-6.074 4v7.242h8v-7.242h-8zm18.862 5.414h4v-1.521l-1.01-1.137-2.99 2.658zm-1.169-.22l-.524 3.965.037.005.037.005.45-3.975zm-5.018-2.47l-3.644 1.651.011.024.011.023 3.622-1.698zm-.167-2.4l3.94.692.002-.012-3.942-.68zm.307-.94l-3.533-1.875-.015.029-.015.029 3.563 1.817zm.624-.773l2.62 3.023.019-.017.019-.016-2.658-2.99zm1.011-.589l1.44 3.732.023-.009.023-.009-1.486-3.714zm3.507-.51l.06-4h-.06v4zm3.375.44l-1.319 3.776.009.003.01.004 1.3-3.783zm.888.474l-2.617 3.026.02.017.02.017 2.577-3.06zm.501.633l-3.614 1.716.018.037.018.036 3.578-1.789zm.219.782l-3.979.406.005.046.005.044 3.969-.496zm.053 1.662l-.255 3.991 4.255.272v-4.264h-4zm-4.131-.264h-4v3.753l3.745.239.255-3.992zm0-1.24h4v-4h-4v4zm-2.074 0v-4h-4v4h4zm0 1.697h-4v1.657l1.172 1.171 2.828-2.828zm.395.132l-.657 3.945.009.002.008.001.64-3.948zm.791.123l-.597 3.955.037.006.037.004.523-3.965zm2.189.422l-1.107 3.844.008.002.008.002 1.091-3.848zm1.134.422l-1.695 3.623.011.005.011.005 1.673-3.633zm1.67 1.564l-3.613 1.717.012.024.011.024 3.59-1.765zm.035 3.006l-3.829-1.158-.004.015-.005.014 3.838 1.129zm-.826 1.257l2.547 3.084.013-.011.013-.011-2.573-3.062zm-4.448 1.01l-.092 4h.092v-4zm-1.968-.149l.589-3.956-.018-.003-.018-.002-.553 3.961zm-2.277-.8l-2.622 3.02.022.02.024.02 2.576-3.06zm-.747-1.415l-3.969.496.005.04.006.041 3.958-.577zm-.053-1.582l.299-3.989-4.299-.322v4.311h4zm4.105.308h4v-3.712l-3.701-.277-.299 3.989zm0 1.239h-4v4h4v-4zm2.074 0v4h4v-4h-4zm2.99-4.477c-.768-.864-1.684-1.153-1.909-1.224a5.551 5.551 0 00-.917-.203l-1.101 7.924c-.007-.001-.17-.022-.407-.098a3.524 3.524 0 01-.589-.25 3.82 3.82 0 01-1.056-.834l5.979-5.315zm-2.826-1.427a36.485 36.485 0 00-.883-.11l-.9 7.95c.291.032.516.06.682.084l1.101-7.924zm-.809-.1a45.872 45.872 0 01-.953-.138l-1.216 7.907c.403.062.777.116 1.121.162l1.048-7.932zm-.953-.138a5.64 5.64 0 01-.677-.15l-2.182 7.697c.542.154 1.09.275 1.643.36l1.216-7.907zm-.677-.15a3.264 3.264 0 01-.514-.194l-3.439 7.223a11.24 11.24 0 001.771.668l2.182-7.697zm-.514-.194c-.007-.003-.005-.003.003.003.009.006.02.014.031.025l-5.476 5.832a7.84 7.84 0 002.003 1.363l3.439-7.223zm.034.028a.931.931 0 01.19.252l-7.244 3.395c.379.81.903 1.551 1.578 2.185l5.476-5.832zm.211.298c.117.258.102.4.102.315h-8c0 .946.155 1.98.611 2.987l7.287-3.302zm.102.315c0-.167.013-.289.028-.372l-7.88-1.382a10.106 10.106 0 00-.148 1.754h8zm.03-.384a.738.738 0 01-.072.198l-7.126-3.635a7.294 7.294 0 00-.686 2.078l7.884 1.36zm-.101.255c-.096.18-.208.304-.29.375l-5.239-6.046a6.684 6.684 0 00-1.538 1.921l7.067 3.75zm-.252.342c-.171.151-.276.18-.207.153l-2.879-7.464c-.752.29-1.531.71-2.229 1.331l5.315 5.98zm-.161.135c.054-.022.235-.083.596-.138l-1.211-7.908c-.787.12-1.59.312-2.356.618l2.971 7.428zm.596-.138a9.71 9.71 0 011.425-.086v-8c-.918 0-1.807.051-2.636.178l1.211 7.908zm1.365-.086c.675.01 1.168.047 1.507.094l1.096-7.924c-.762-.106-1.6-.156-2.483-.17l-.12 8zm1.507.094c.389.054.57.108.609.122l2.638-7.553c-.7-.244-1.438-.395-2.151-.493l-1.096 7.924zm.628.129c.021.007-.013-.003-.083-.04a1.945 1.945 0 01-.346-.243l5.233-6.051c-.72-.623-1.518-.996-2.204-1.232l-2.6 7.566zm-.389-.249a2.137 2.137 0 01-.536-.71l7.227-3.433a5.88 5.88 0 00-1.538-1.976l-5.153 6.119zm-.5-.638a1.774 1.774 0 01-.182-.6l7.959-.813a6.242 6.242 0 00-.622-2.165l-7.155 3.578zm-.172-.51c.012.096.022.23.022.409h8c0-.466-.025-.935-.084-1.402l-7.938.992zm.022.409v.755h8v-.755h-8zm4.255-3.236l-4.131-.264-.51 7.984 4.131.263.51-7.983zm-.386 3.728v-1.24h-8v1.24h8zm-4-5.24h-2.074v8h2.074v-8zm-6.074 4v1.697h8v-1.696h-8zm1.172 4.525c.699.7 1.471.962 1.701 1.04.34.112.651.174.865.21l1.315-7.892c.003 0 .143.022.35.092.108.036.29.103.507.216.205.108.557.316.918.678l-5.656 5.656zm2.583 1.252c.236.038.515.082.834.13l1.195-7.91a67.662 67.662 0 01-.748-.117l-1.281 7.897zm.908.14c.253.034.55.079.893.137l1.335-7.888c-.418-.07-.813-.131-1.181-.18l-1.047 7.931zm.893.137c.227.038.464.092.712.164l2.214-7.688a14.547 14.547 0 00-1.591-.364l-1.335 7.888zm.728.168a3.5 3.5 0 01.53.197l3.389-7.247a11.479 11.479 0 00-1.737-.647l-2.182 7.697zm.552.207c.014.007.017.009.012.005a.106.106 0 01-.012-.008l-.015-.013 5.345-5.952a7.912 7.912 0 00-1.985-1.299l-3.345 7.267zm-.015-.016a1.094 1.094 0 01-.255-.336l7.225-3.434a6.908 6.908 0 00-1.625-2.182l-5.345 5.952zm-.232-.288a1.289 1.289 0 01-.147-.508h8c0-.968-.178-2.014-.674-3.022l-7.179 3.53zm-.147-.508c0 .366-.043.545-.057.591l7.658 2.315c.29-.961.399-1.948.399-2.906h-8zm-.066.62a1.464 1.464 0 01.438-.676l5.147 6.124a6.542 6.542 0 002.09-3.19l-7.675-2.258zm.464-.698c.115-.095.191-.128.183-.124-.004.001-.024.01-.064.023-.04.014-.098.03-.175.049l1.85 7.783c1.086-.258 2.275-.716 3.301-1.563l-5.095-6.168zm-.056-.052c-.296.07-.876.146-1.844.146v8c1.295 0 2.56-.093 3.694-.363l-1.85-7.783zm-1.751.147a12.225 12.225 0 01-1.472-.106l-1.179 7.912c.763.114 1.594.172 2.466.192l.185-7.998zm-1.508-.111a3.272 3.272 0 01-.58-.12l-2.706 7.529c.711.255 1.456.413 2.179.514l1.107-7.924zm-.58-.12c-.032-.01-.013-.007.04.022.053.029.157.09.287.2l-5.153 6.119c.692.583 1.452.948 2.12 1.188l2.706-7.529zm.373.261c.124.108.3.3.445.59l-7.155 3.577a6.066 6.066 0 001.465 1.873l5.245-6.04zm.445.59c.089.177.128.333.143.438l-7.916 1.154a6.53 6.53 0 00.618 1.985l7.155-3.577zm.154.519a3.328 3.328 0 01-.022-.4h-8c0 .463.026.929.084 1.392l7.938-.992zm-.022-.4v-.686h-8v.686h8zm-4.298 3.303l4.104.307.598-7.977-4.105-.308-.597 7.978zm.403-3.681v1.239h8v-1.24h-8zm4 5.239h2.074v-8h-2.074v8zm6.074-4v-1.82h-8v1.82h8z" fill="#fff"/><path d="M11.157 12.981l1.046 12.05 1.046-12.05h4.983L15.982 27h-7.54l-2.25-14.019h4.965zm14.678 4.105c0 .187.09.337.272.448.188.111.431.211.73.299.305.082.65.164 1.037.246.387.082.78.188 1.178.316.404.124.8.285 1.186.484.387.193.73.448 1.029.765.304.31.547.694.73 1.15.187.458.28 1.009.28 1.653 0 .463-.011.905-.035 1.327a5.258 5.258 0 01-.193 1.178 3 3 0 01-.492.976c-.223.293-.537.545-.94.756-.4.205-.903.363-1.512.474-.61.111-1.354.167-2.233.167-.78 0-1.462-.04-2.048-.123a6.343 6.343 0 01-1.494-.36 3.213 3.213 0 01-1.028-.624 2.998 2.998 0 01-.633-.905 4.34 4.34 0 01-.317-1.187c-.058-.445-.087-.94-.087-1.485h4.57v2.276h2.074v-2.602c0-.17-.094-.31-.281-.421a3.01 3.01 0 00-.73-.3 13.375 13.375 0 00-1.028-.272 17.11 17.11 0 01-1.186-.316 9.92 9.92 0 01-1.178-.448 4.435 4.435 0 01-1.037-.65 3.194 3.194 0 01-.73-.941c-.181-.37-.272-.809-.272-1.319 0-.632.032-1.195.097-1.687.064-.498.175-.932.334-1.3.158-.37.372-.68.641-.932.27-.258.606-.466 1.01-.624.411-.159.894-.273 1.451-.343.563-.07 1.216-.106 1.96-.106 1.066 0 1.942.07 2.628.211.691.14 1.236.375 1.635.703.398.328.674.76.826 1.292.152.534.228 1.187.228 1.96H27.91v-1.757h-2.074v2.02zm15.996-2.021h-2.074v9.852h2.074v-3.946H46.2v2.768c0 .235-.014.487-.044.756a2.64 2.64 0 01-.72 1.573c-.229.247-.545.463-.95.65-.398.188-.9.338-1.503.449-.597.117-1.327.176-2.188.176-.855 0-1.582-.059-2.18-.176-.597-.111-1.098-.26-1.503-.448-.398-.188-.712-.405-.94-.65a2.805 2.805 0 01-.519-.765c-.117-.27-.19-.54-.22-.809a7.017 7.017 0 01-.043-.756v-7.523c0-.235.014-.484.044-.747.029-.27.1-.536.21-.8a2.68 2.68 0 01.52-.756c.234-.246.55-.46.948-.642.399-.187.894-.336 1.486-.448.597-.111 1.321-.167 2.17-.167.868 0 1.603.056 2.207.167.603.112 1.107.261 1.511.448.405.182.721.396.95.642.228.24.398.492.51.756.117.264.187.53.21.8.03.263.044.512.044.747v2.795h-4.368v-3.946zm12.085 9.852h2.074v-7.233h-2.074v7.233zm1.09 2.426c-.879 0-1.626-.053-2.241-.158-.61-.106-1.117-.246-1.52-.422-.405-.176-.722-.381-.95-.616a2.585 2.585 0 01-.501-.729 2.617 2.617 0 01-.211-.765 8.472 8.472 0 01-.035-.747v-5.273c0-.235.012-.48.035-.738.03-.264.1-.522.21-.774a2.43 2.43 0 01.502-.73c.228-.234.545-.439.95-.615.403-.175.91-.316 1.52-.421.615-.106 1.362-.159 2.24-.159.874 0 1.612.053 2.216.159.61.105 1.11.246 1.503.421.398.176.706.381.923.616.222.228.386.471.492.73.105.251.167.509.184.773.024.257.035.503.035.738v5.273c0 .235-.011.484-.035.747-.017.258-.079.513-.184.765-.106.252-.27.495-.492.73-.217.234-.525.439-.923.615-.393.175-.894.316-1.503.422-.604.105-1.342.158-2.215.158zM73.454 11.97V27h-3.612l-.404-1.468a3.44 3.44 0 01-.642.782c-.246.223-.519.41-.818.563a4.341 4.341 0 01-.949.334 4.609 4.609 0 01-1.028.114c-.422 0-.835-.073-1.24-.22a3.095 3.095 0 01-1.08-.668 3.47 3.47 0 01-.756-1.142c-.188-.457-.281-.993-.281-1.609v-5.08c0-.586.093-1.092.28-1.52.188-.434.434-.791.74-1.072.31-.282.661-.49 1.054-.624a3.79 3.79 0 011.221-.203c.627 0 1.213.109 1.758.326.551.216 1.014.533 1.389.949V11.97h4.368zm-4.368 5.713h-2.074v7.233h2.074v-7.233zm17.578 5.352c0 .416-.015.812-.044 1.187-.03.369-.102.715-.22 1.037-.11.316-.284.6-.518.852-.229.252-.545.47-.95.65-.398.177-.899.311-1.502.405-.598.1-1.328.15-2.189.15-.879 0-1.623-.053-2.232-.159-.604-.105-1.105-.246-1.503-.422-.399-.175-.71-.378-.932-.606a2.431 2.431 0 01-.492-.73 2.677 2.677 0 01-.193-.773 10.86 10.86 0 01-.027-.738v-5.274c0-.234.01-.48.027-.738.023-.258.088-.513.193-.765.106-.252.27-.492.492-.72.223-.235.533-.44.932-.616.398-.175.9-.316 1.503-.421.61-.106 1.353-.159 2.232-.159.856 0 1.585.053 2.189.159.603.105 1.104.246 1.503.421.404.176.72.381.949.616.234.228.41.468.527.72.117.252.19.51.22.774.03.258.044.5.044.73v3.295H80.23v3.006h2.074v-1.872l4.36-.009zm-6.433-2.69h2.074v-2.662H80.23v2.663zm18.773-7.365v2.084h-3.041V27h-4.368V15.065H88.57V12.98h10.433zM106.149 27h-4.368V15.574h4.368V27zm0-15.03v2.084h-4.368V11.97h4.368zm2.488 18.616V15.574h3.612l.404 1.468c.176-.293.39-.55.642-.773.252-.229.527-.416.826-.563.299-.152.615-.266.949-.343.34-.076.68-.114 1.02-.114.422 0 .835.073 1.239.22.404.146.762.372 1.072.676.317.3.569.677.756 1.134.194.457.29.994.29 1.609v5.08c0 .586-.093 1.096-.281 1.53a3.078 3.078 0 01-.747 1.063c-.305.28-.656.489-1.055.624a3.71 3.71 0 01-1.213.202c-.304 0-.606-.03-.905-.088a4.282 4.282 0 01-.852-.246 4.085 4.085 0 01-.765-.396 3.303 3.303 0 01-.624-.545v4.474h-4.368zm4.368-5.66h2.074v-7.242h-2.074v7.242zm14.862-1.828c-.047-.053-.176-.094-.387-.123-.21-.03-.471-.062-.782-.097-.31-.041-.656-.09-1.037-.15a9.604 9.604 0 01-1.16-.254 7.276 7.276 0 01-1.143-.431 3.838 3.838 0 01-.984-.668 3.124 3.124 0 01-.694-.967c-.17-.375-.255-.82-.255-1.336 0-.375.029-.73.088-1.063.058-.34.161-.654.307-.94a2.71 2.71 0 01.624-.774 3.29 3.29 0 011.011-.589c.41-.164.902-.29 1.477-.378a13.604 13.604 0 012.03-.132c.779.012 1.444.056 1.995.132a7.28 7.28 0 011.38.308c.375.129.671.287.888.474.222.188.389.399.501.633.117.235.19.495.219.782.035.282.053.583.053.906v.755l-4.131-.263v-1.24h-2.074v1.697c.053.053.185.097.395.132.217.035.481.076.791.123.311.04.657.093 1.038.158.38.064.764.152 1.151.264.393.111.77.252 1.134.422.369.17.697.383.984.641.287.258.516.566.686.923.175.357.263.776.263 1.257 0 .662-.076 1.245-.228 1.749a2.556 2.556 0 01-.826 1.257c-.405.334-.964.586-1.679.755-.715.17-1.638.255-2.769.255a16.11 16.11 0 01-1.968-.149 6.997 6.997 0 01-1.38-.316c-.375-.135-.674-.296-.897-.484a2.093 2.093 0 01-.509-.641 2.514 2.514 0 01-.238-.774 7.263 7.263 0 01-.053-.896v-.686l4.105.308v1.239h2.074v-1.82z" fill="#150621"/></svg>