<svg width="133" height="40" fill="none" xmlns="http://www.w3.org/2000/svg"><path d="M10.926 13.76l3.985-.346-.317-3.654h-3.668v4zm.988 11.38l-3.985.346h7.97l-3.985-.345zm.988-11.38v-4H9.234l-.317 3.654 3.985.346zm4.706 0l3.95.634.744-4.634h-4.694v4zM15.483 27v4h3.41l.54-3.366-3.95-.634zm-7.122 0l-3.95.634L4.953 31h3.41v-4zM6.236 13.76v-4H1.543l.744 4.634 3.95-.634zm.705.346l.988 11.38 7.97-.691-.988-11.38-7.97.691zm8.958 11.38l.988-11.38-7.97-.692-.988 11.38 7.97.692zm-2.997-7.726h4.706v-8h-4.706v8zm.757-4.634l-2.125 13.24 7.899 1.268 2.125-13.24-7.9-1.268zM15.483 23H8.361v8h7.122v-8zm-3.172 3.366l-2.125-13.24-7.9 1.268 2.126 13.24 7.899-1.268zM6.236 17.76h4.69v-8h-4.69v8zm18.81.3l-2.09 3.41.024.015.024.015 2.042-3.44zm.689.282l-1.129 3.838.044.013.045.012 1.04-3.863zm.98.233l.83-3.913-.83 3.913zm1.112.299l-1.232 3.805.034.011.033.01 1.165-3.826zm1.12.456l-1.832 3.556.022.011.021.01 1.79-3.577zm.972.722L27.01 22.8l.027.027.026.028 2.856-2.802zm.688 1.088l-3.717 1.477.008.02.009.02 3.7-1.517zm.05 3.926l3.837 1.132.002-.008.003-.009-3.842-1.115zM29.304 26.7l1.83 3.557.01-.005.01-.006-1.85-3.546zm-5.47.49l.555-3.961-.017-.003-.017-.002-.521 3.966zm-2.382-.93l-2.797 2.86.032.032.033.03 2.732-2.922zm-.598-.855l-3.66 1.613.011.026.012.026 3.637-1.665zm-.299-1.12l-3.966.521 3.966-.521zm-.083-1.403v-4h-4v4h4zm4.317 0h4v-4h-4v4zm0 2.15h-4v4h4v-4zm1.959 0v4h4v-4h-4zm-.266-2.856l-2.09 3.41.024.015.024.015 2.042-3.44zm-.689-.282l-1.197 3.817.044.014.044.012 1.109-3.843zm-2.092-.556l-1.18 3.822.008.002.008.003 1.164-3.827zM21.61 20.3l-2.646 3 .031.027.032.027 2.583-3.054zm-.689-.888l-3.589 1.766.017.035.018.034 3.554-1.835zm-.166-2.839l3.966.52.001-.006-3.967-.514zm.922-2.108l2.731 2.922.017-.016.017-.016-2.765-2.89zm.954-.59l-1.44-3.731-.008.003-.01.004 1.458 3.725zm1.37-.323l-.496-3.97-.005.001.501 3.969zm4.333.1l-.804 3.918.007.001.797-3.92zm2.54 3.735v4h4v-4h-4zm-4.125 0h-4v4h4v-4zm0-1.66h4v-4h-4v4zm-1.96 0v-4h-4v4h4zm-4 1.909c0 1.78 1.002 3.119 2.168 3.834l4.18-6.821c.34.208.783.569 1.135 1.148a3.55 3.55 0 01.518 1.839h-8zm2.216 3.863c.557.33 1.124.54 1.602.68l2.257-7.675c-.032-.01-.028-.01.004.003.031.013.11.047.221.113L23.004 21.5zm1.691.705c.372.1.77.194 1.19.283l1.66-7.826a14.864 14.864 0 01-.77-.182l-2.08 7.725zm1.19.283c.221.047.458.11.71.191l2.463-7.611c-.5-.162-1.005-.298-1.514-.406l-1.66 7.826zm.777.212c.145.044.296.105.453.186l3.664-7.112a10.71 10.71 0 00-1.788-.727L26.662 22.7zm.496.208a.554.554 0 01-.148-.11l5.817-5.492a7.445 7.445 0 00-2.09-1.554l-3.579 7.156zm-.095-.054c-.13-.133-.173-.239-.173-.237l7.435-2.955a7.231 7.231 0 00-1.551-2.411l-5.71 5.603zm-.156-.196c-.037-.09-.045-.14-.044-.133l.006.048c.002.03.004.072.004.127h8c0-.978-.14-2.043-.565-3.079l-7.401 3.037zm-.034.042c0 .37-.01.714-.027 1.032l7.988.444c.026-.48.039-.971.039-1.476h-8zm-.027 1.032c-.007.13-.024.198-.03.219l7.683 2.23c.193-.666.298-1.34.335-2.006l-7.988-.443zm-.025.202c.036-.122.1-.252.187-.367l6.369 4.84a6.836 6.836 0 001.117-2.209l-7.673-2.264zm.187-.367c.22-.29.427-.402.446-.412l3.7 7.092c.783-.408 1.582-.995 2.223-1.84l-6.37-4.84zm.466-.422c.047-.024.05-.02-.007-.003a2.642 2.642 0 01-.31.073l1.438 7.87c.827-.152 1.709-.4 2.54-.827l-3.661-7.113zm-.316.07c-.263.048-.71.092-1.39.092v8c.98 0 1.94-.06 2.827-.223l-1.437-7.87zm-1.39.092c-.605 0-1.057-.032-1.38-.077l-1.109 7.922c.785.11 1.622.155 2.49.155v-8zm-1.413-.082a3.376 3.376 0 01-.435-.086.735.735 0 01-.03-.01l-2.935 7.443a9.967 9.967 0 002.358.585l1.042-7.932zm-.465-.096c-.021-.008.111.04.293.21l-5.463 5.844a7.021 7.021 0 002.235 1.389l2.935-7.442zm.358.272c.113.11.195.235.243.34l-7.274 3.33c.347.759.827 1.453 1.438 2.05l5.593-5.72zm.266.392c.018.04.023.062.022.058a.753.753 0 01-.015-.087l-7.932 1.044c.096.728.282 1.48.605 2.211l7.32-3.226zm.007-.03a6.859 6.859 0 01-.049-.88h-8c0 .654.035 1.3.117 1.925l7.932-1.044zm-4.049 3.12h4.317v-8h-4.317v8zm.317-4v2.15h8v-2.15h-8zm4 6.15h1.959v-8h-1.96v8zm5.959-4v-2.457h-8v2.457h8zm0-2.457c0-1.978-1.228-3.247-2.224-3.838l-4.084 6.879a3.405 3.405 0 01-1.087-1.043 3.612 3.612 0 01-.605-1.998h8zm-2.176-3.81a6.799 6.799 0 00-1.67-.714l-2.218 7.686c.033.01.023.009-.02-.009-.04-.016-.138-.06-.272-.141l4.18-6.821zm-1.582-.688c-.407-.127-.838-.24-1.282-.34l-1.773 7.8c.287.065.504.124.66.174l2.395-7.634zm-1.282-.34c-.265-.061-.546-.136-.842-.226l-2.33 7.654c.468.142.935.267 1.4.372l1.772-7.8zm-.826-.221a5.378 5.378 0 01-.638-.243l-3.31 7.283a13.37 13.37 0 001.587.604l2.36-7.644zm-.638-.243a.44.44 0 01-.049-.025c-.006-.004-.006-.005-.002-.001l-5.167 6.107c.586.496 1.229.893 1.908 1.202l3.31-7.283zm.012.028c.1.088.174.19.219.276l-7.11 3.67a7.02 7.02 0 001.598 2.053l5.293-6zm.253.345c.156.316.154.533.154.521h-8c0 .95.17 1.998.668 3.011l7.178-3.532zm.154.521c0-.469.024-.821.058-1.074l-7.933-1.04a16.352 16.352 0 00-.125 2.114h8zm.058-1.08c.012-.093.025-.15.032-.179.008-.028.008-.021-.007.012l-7.353-3.151a8.611 8.611 0 00-.605 2.29l7.933 1.028zm.025-.167c-.049.116-.154.294-.339.467l-5.463-5.844a6.574 6.574 0 00-1.55 2.226l7.352 3.151zm-.305.435a1.18 1.18 0 01-.353.245l-2.915-7.45a6.87 6.87 0 00-2.262 1.424l5.53 5.781zm-.371.252c.016-.006.143-.05.431-.087L23.5 9.584a9.834 9.834 0 00-2.308.56l2.879 7.464zm.426-.086c.325-.04.77-.069 1.355-.069v-8c-.82 0-1.61.038-2.347.13l.992 7.939zm1.355-.069c.862 0 1.394.06 1.678.118l1.608-7.837c-1.011-.207-2.133-.28-3.286-.28v8zm1.685.12c.106.02.129.035.092.02a1.28 1.28 0 01-.294-.189l5.086-6.175c-1.033-.85-2.22-1.279-3.29-1.496l-1.594 7.84zm-.202-.169a1.708 1.708 0 01-.35-.395 1.442 1.442 0 01-.173-.373l7.692-2.198a6.383 6.383 0 00-2.083-3.21l-5.086 6.176zm-.523-.768c.01.036.062.258.062.752h8c0-.968-.092-1.98-.37-2.95l-7.692 2.197zm4.062-3.248h-4.125v8h4.125v-8zm-.125 4v-1.66h-8v1.66h8zm-4-5.66h-1.96v8h1.96v-8zm-5.96 4v1.909h8v-1.91h-8zm19.108 0h4v-4h-4v4zm-1.959 0v-4h-4v4h4zm0 9.305h-4v4h4v-4zm1.959 0v4h4v-4h-4zm0-3.727v-4h-4v4h4zm4.126 0h4v-4h-4v4zm-.042 3.328l-3.977-.432-.004.043-.004.043 3.985.346zm-.2.764l-3.668-1.595-.008.02-.008.02 3.685 1.555zm-1.377 1.336l-1.683-3.628-.01.004-.01.005 1.703 3.62zm-1.42.424l-.725-3.934-.022.004-.022.005.77 3.925zm-4.125 0l.77-3.925-.019-.004-.019-.004-.732 3.933zm-1.42-.424l-1.703 3.62.01.004.01.005 1.683-3.629zm-1.378-1.336l-3.668 1.595.007.015.006.015 3.655-1.625zm-.207-.764l-3.977.433 3.977-.433zm0-8.525l3.976.442v-.01l-3.976-.432zm.2-.755l-3.656-1.624-.015.034-.015.034 3.685 1.556zm.489-.714l-2.897-2.758-.001.001 2.898 2.757zm.896-.606l1.66 3.64.022-.01.022-.01-1.704-3.62zm1.403-.423l-.732-3.933-.007.002.74 3.93zm5.562.423l-1.683 3.629.022.01.022.01 1.639-3.649zm.896.606l-2.93 2.722.016.018.016.017L43.3 14.64zm.482.714l-3.685 1.556.014.034.016.035 3.655-1.625zm.199.755l-3.985.347.004.048.005.047 3.976-.442zm.042 3.346v4h4v-4h-4zm-4.126 0h-4v4h4v-4zm0-7.727h-1.959v8h1.959v-8zm-5.959 4v9.305h8v-9.306h-8zm4 13.305h1.959v-8h-1.959v8zm5.959-4v-3.727h-8v3.727h8zm-4 .273h4.126v-8h-4.126v8zm.126-4v2.614h8v-2.614h-8zm0 2.614c0 .057-.004.15-.019.282l7.954.864c.04-.376.065-.76.065-1.146h-8zm-.027.368a1.57 1.57 0 01.117-.485l7.337 3.19a6.434 6.434 0 00.516-2.012l-7.97-.693zm.1-.446c.105-.248.226-.392.273-.444l5.862 5.444c.48-.516.92-1.142 1.236-1.888l-7.37-3.112zm.273-.444c.233-.25.408-.319.352-.292l3.366 7.257c.707-.328 1.48-.806 2.145-1.521l-5.863-5.444zm.332-.283c.022-.01.002.001-.078.025a3.555 3.555 0 01-.364.084l1.451 7.867c.786-.145 1.615-.37 2.397-.737L40.7 23.115zm-.486.118c-.231.045-.645.09-1.297.09v8c.974 0 1.938-.064 2.836-.24l-1.54-7.85zm-1.297.09c-.645 0-1.057-.045-1.29-.09l-1.539 7.85c.897.176 1.857.24 2.828.24v-8zm-1.327-.098a3.642 3.642 0 01-.367-.085c-.083-.025-.112-.04-.102-.034l-3.365 7.257c.771.358 1.587.581 2.37.727l1.464-7.865zm-.448-.11c-.05-.023.117.044.34.283l-5.863 5.444c.654.704 1.414 1.181 2.116 1.512l3.407-7.239zm.34.283c.036.04.139.161.234.375l-7.31 3.25a6.641 6.641 0 001.213 1.819l5.862-5.444zm.247.405c.037.084.081.22.1.399l-7.953.864a6.62 6.62 0 00.516 1.927l7.337-3.19zm.1.399a2.68 2.68 0 01-.017-.282h-8c0 .386.023.77.064 1.146l7.954-.864zm-.017-.282v-7.105h-8v7.105h8zm0-7.105c0-.056.003-.143.017-.264l-7.951-.883c-.042.377-.067.76-.067 1.147h8zm.018-.273a1.322 1.322 0 01-.093.368l-7.37-3.112a6.68 6.68 0 00-.49 1.88l7.953.864zm-.122.437c-.101.226-.215.362-.268.418l-5.796-5.514a6.527 6.527 0 00-1.247 1.847l7.31 3.249zm-.27.42c-.216.227-.38.293-.34.275l-3.319-7.28c-.713.326-1.474.795-2.134 1.488l5.793 5.517zm-.296.255c-.017.007.007-.006.085-.029.077-.023.193-.053.354-.083L36.1 9.68c-.779.146-1.594.372-2.366.735l3.407 7.239zm.432-.11c.249-.047.672-.09 1.318-.09v-8c-.96 0-1.903.06-2.783.224l1.465 7.865zm1.318-.09c.666 0 1.102.043 1.357.09l1.452-7.867c-.885-.163-1.838-.224-2.81-.224v8zm1.357.09c.169.032.29.062.373.087.084.024.112.038.098.032l3.366-7.258c-.777-.36-1.6-.583-2.385-.728l-1.452 7.867zm.515.139c.041.019-.151-.057-.396-.321l5.862-5.444c-.676-.728-1.466-1.208-2.188-1.532l-3.278 7.297zm-.363-.286a1.637 1.637 0 01-.305-.487l7.37-3.112a6.384 6.384 0 00-1.269-1.915l-5.796 5.514zm-.276-.418a1.653 1.653 0 01-.13-.523l7.97-.693a6.351 6.351 0 00-.529-2.034l-7.31 3.25zm-.12-.428c.013.121.017.208.017.264h8c0-.387-.025-.77-.066-1.147l-7.952.883zm.017.264v2.64h8v-2.64h-8zm4-1.36h-4.126v8h4.126v-8zm-.126 4v-3.727h-8v3.727h8zm7.414 5.578h-4v4h4v-4zm1.959 0v4h4v-4h-4zm0-6.832h4v-4h-4v4zm-1.96 0v-4h-4v4h4zm-1.087 8.973l-.682 3.942h.006l.676-3.942zm-2.332-.98l-2.9 2.756.017.019.019.018 2.864-2.792zm-.673-1.41l-3.984.354.004.049.006.048 3.974-.451zm0-6.384l-3.975-.441-.005.04-.003.04 3.983.361zm.2-.73l3.658 1.617.007-.016.007-.015-3.672-1.586zm.473-.689l-2.864-2.792h-.001l2.865 2.792zm2.332-.98l-.676-3.942-.006.001.682 3.941zm4.209 0l-.689 3.94.007.002L54.43 16zm1.42.399l-1.636 3.65.01.005.01.005 1.615-3.66zm.87.581l-2.936 2.716.036.038.036.037 2.865-2.791zm.466.689l-3.703 1.514.006.015.007.015 3.69-1.544zm.174.73l-3.991.267.003.047.004.049 3.984-.363zm0 6.384l-3.984-.354-.004.04-.003.042 3.99.272zm-.64 1.41l-2.9-2.754-.018.02-.018.019 2.937 2.716zm-.87.582l-1.615-3.66-.01.005-.01.004 1.634 3.65zm-1.42.398l-.682-3.941-.007.001.689 3.94zm-3.121 1.859h1.959v-8h-1.96v8zm5.959-4V18.2h-8v6.832h8zm-4-10.832h-1.96v8h1.96v-8zm-5.96 4v6.832h8V18.2h-8zm5.03 5.123c-.687 0-1.153-.043-1.441-.092l-1.352 7.885c.874.15 1.82.207 2.793.207v-8zm-1.435-.091a4.24 4.24 0 01-.403-.087c-.093-.026-.128-.042-.12-.038l-3.19 7.336c.765.333 1.575.538 2.349.672l1.364-7.883zm-.523-.125c-.022-.01.007 0 .07.041.064.042.174.122.303.253l-5.728 5.585c.68.698 1.463 1.152 2.165 1.457l3.19-7.336zm.409.332a1.6 1.6 0 01.285.45l-7.317 3.232c.32.725.759 1.33 1.232 1.828l5.8-5.51zm.285.45c.049.108.096.26.117.442l-7.95.903c.077.67.257 1.302.516 1.887l7.317-3.233zm.127.54a4.003 4.003 0 01-.018-.352h-8c0 .354.018.708.049 1.06l7.969-.709zm-.018-.352v-4.98h-8v4.98h8zm0-4.98c0-.09.005-.2.017-.335l-7.967-.725c-.032.352-.05.706-.05 1.06h8zm.009-.256a1.53 1.53 0 01-.118.445l-7.317-3.234a6.473 6.473 0 00-.516 1.906l7.95.883zm-.104.414c-.113.26-.25.43-.334.516l-5.73-5.582a6.287 6.287 0 00-1.28 1.894l7.344 3.172zm-.335.517a1.791 1.791 0 01-.303.253c-.063.041-.092.052-.07.042l-3.19-7.336c-.702.305-1.485.76-2.165 1.457l5.728 5.584zm-.373.295c-.008.004.027-.012.12-.038a4.24 4.24 0 01.403-.087L49.54 12.06c-.774.134-1.584.34-2.349.672l3.19 7.336zm.517-.124c.288-.05.754-.092 1.44-.092v-8c-.972 0-1.918.057-2.792.207l1.352 7.885zm1.44-.092c.683 0 1.135.043 1.404.09l1.377-7.88c-.87-.153-1.813-.21-2.78-.21v8zm1.41.09c.178.032.305.061.388.085.085.024.106.035.08.024l3.269-7.302c-.776-.347-1.598-.555-2.372-.689l-1.364 7.883zm.488.118c.013.006-.028-.011-.105-.062a1.958 1.958 0 01-.346-.3l5.873-5.433c-.685-.74-1.488-1.213-2.193-1.525l-3.23 7.32zm-.38-.288a1.854 1.854 0 01-.372-.587l7.405-3.03a6.16 6.16 0 00-1.302-1.966l-5.73 5.583zm-.36-.557a1.728 1.728 0 01-.126-.549l7.982-.532a6.272 6.272 0 00-.476-2.009l-7.38 3.09zm-.119-.453c.013.136.017.247.017.336h8c0-.354-.018-.708-.05-1.06l-7.967.724zm.017.336v4.98h8v-4.98h-8zm0 4.98c0 .09-.005.206-.017.352l7.968.708c.031-.352.049-.706.049-1.06h-8zm-.024.434c.015-.22.067-.407.127-.55l7.38 3.088c.259-.62.426-1.288.475-1.994l-7.982-.544zm.127-.55a1.74 1.74 0 01.325-.522l5.8 5.51c.484-.51.936-1.14 1.254-1.9l-7.38-3.089zm.288-.483c.143-.154.27-.25.346-.301.077-.051.118-.068.105-.062l3.229 7.32c.705-.312 1.508-.784 2.193-1.525l-5.873-5.432zm.43-.354c.027-.012.006 0-.079.024-.083.023-.21.053-.388.084l1.365 7.883c.774-.134 1.596-.342 2.372-.69l-3.27-7.3zm-.473.109c-.27.047-.72.09-1.403.09v8c.967 0 1.91-.057 2.78-.21l-1.377-7.88zm16.02-10.428h4v-4h-4v4zm0 14.194v4h4v-4h-4zm-3.411 0l-3.857 1.062.81 2.938h3.047v-4zm-.382-1.386l3.856-1.063-2.48-9.005-4.806 8.01 3.43 2.058zm-.606.738l2.683 2.967.004-.004-2.687-2.963zm-.772.532l1.76 3.591.029-.013.028-.015-1.817-3.563zm-4.06-.415l-2.8 2.855.027.027.027.026 2.747-2.908zm-.713-1.08l-3.7 1.519.008.02.008.02 3.684-1.558zm0-7.752l3.663 1.606.004-.01.004-.009-3.671-1.587zm.697-1.013l-2.685-2.965-.014.013-.014.013 2.713 2.939zm.996-.59l-1.281-3.788-.009.002-.008.003 1.298 3.784zm2.814.117l-1.479 3.716.007.003.007.003 1.465-3.722zm1.312.896l-2.971 2.678 6.97 7.734V17.047h-4zm0-4.241v-4h-4v4h4zm0 5.395h4v-4h-4v4zm-1.96 0v-4h-4v4h4zm0 6.832h-4v4h4v-4zm1.96 0v4h4v-4h-4zm.125-12.227V27h8V12.806h-8zm4 10.194h-3.411v8h3.411v-8zm.445 2.938l-.382-1.386-7.713 2.124.382 1.386 7.713-2.124zm-7.668-2.382a.753.753 0 01.136-.166l5.375 5.925c.53-.48.982-1.032 1.349-1.643l-6.86-4.116zm.14-.17a.476.476 0 01.095-.066l3.634 7.127a7.544 7.544 0 001.638-1.128l-5.367-5.933zm.151-.094l-.003.001a.228.228 0 01-.022.006l1.779 7.8a8.102 8.102 0 001.767-.623l-3.52-7.184zm-.025.007a.364.364 0 01-.082.008v8c.624 0 1.246-.068 1.86-.208l-1.778-7.8zm-.082.008a.62.62 0 01.192.032L60.19 30.86c.81.294 1.661.447 2.533.447v-8zm.192.032a1.085 1.085 0 01.363.222l-5.493 5.816a6.924 6.924 0 002.405 1.483l2.725-7.521zm.418.274c.133.13.174.232.169.218l-7.368 3.117c.36.85.877 1.67 1.596 2.376l5.603-5.71zm.186.258c.031.077.04.123.04.126 0 .002-.007-.038-.007-.126h-8c0 .978.148 2.021.565 3.037l7.402-3.037zm.033 0v-4.798h-8v4.798h8zm0-4.798c0-.137.023-.044-.07.17l-7.328-3.212c-.448 1.021-.602 2.072-.602 3.042h8zm-.063.151a1.104 1.104 0 01-.26.34l-5.427-5.88a6.94 6.94 0 00-1.656 2.365l7.343 3.175zm-.289.365a1.154 1.154 0 01-.39.229l-2.598-7.567a6.846 6.846 0 00-2.382 1.408l5.37 5.93zm-.407.235a.432.432 0 01-.128.02v-8a7.58 7.58 0 00-2.435.402l2.563 7.578zm-.128.02c.121 0 .17.019.181.023l2.958-7.433a8.45 8.45 0 00-3.139-.59v8zm.195.029a.686.686 0 01-.195-.147l5.943-5.357a7.423 7.423 0 00-2.818-1.94l-2.93 7.444zm6.777-2.826v-4.241h-8v4.241h8zm-4-.241h4.125v-8h-4.125v8zm0-2.605h-1.96v8h1.96v-8zm-5.96 4v6.832h8V18.2h-8zm4 10.832h1.96v-8h-1.96v8zm5.96-4V18.2h-8v6.832h8zm12.601-1.777h4v-4.008l-4.008.008.008 4zm-.041 1.121l3.987.316v-.005l-3.987-.311zm-.208.98L78.23 23.99l-.007.02-.007.019 3.773 1.327zm-.49.805l-2.928-2.725-.017.019-.017.018 2.962 2.688zm-.896.614l1.615 3.66.012-.006.012-.005-1.639-3.65zm-1.42.382l-.613-3.953-.022.004-.022.003.658 3.946zm-4.175-.009l-.688 3.94.006.002.682-3.942zm-2.299-.97l-2.9 2.754.017.019.018.018 2.865-2.792zm-.465-.69l-3.702 1.515.006.015.006.015 3.69-1.545zm-.183-.73l-3.99.272.003.045.004.045 3.983-.362zm0-6.375l-3.983-.362-.004.045-.003.045 3.99.272zm.648-1.403l2.865 2.791.018-.018.017-.018-2.9-2.755zm2.3-.98l-.683-3.94h-.006l.688 3.94zm5.594.399l-1.614 3.66.01.004.01.004 1.594-3.668zm.897.581l-2.865 2.792.036.037.036.035 2.793-2.864zm.705 1.411l-3.975.442v.01l3.975-.452zm.042 3.802v4h4v-4h-4zm-6.085 0v-4h-4v4h4zm0 2.839h-4v4h4v-4zm1.96 0v4h4v-4h-4zm0-1.768l-.009-4-3.992.008v3.992h4zm-1.96-2.549h-4v4h4v-4zm1.96 0v4h4v-4h-4zm0-2.515h4v-4h-4v4zm-1.96 0v-4h-4v4h4zm2.076 5.055c0 .3-.01.57-.03.81l7.977.623c.036-.468.053-.947.053-1.433h-8zm-.029.805c0 .01 0 .007.002-.007a.485.485 0 01.02-.064l7.517 2.733a7.71 7.71 0 00.436-2.03l-7.975-.633zm.007-.032c.082-.234.212-.438.355-.592l5.857 5.449a6.284 6.284 0 001.335-2.202l-7.547-2.655zm.32-.555c.249-.273.452-.358.428-.347l3.278 7.298c.74-.332 1.54-.826 2.22-1.576l-5.925-5.375zm.453-.358c.029-.013.014-.003-.062.017-.075.02-.191.046-.357.072l1.228 7.905c.788-.122 1.625-.324 2.42-.674l-3.23-7.32zm-.463.096c-.278.046-.732.087-1.41.087v8c.95 0 1.874-.054 2.725-.196l-1.315-7.89zm-1.41.087c-.688 0-1.147-.043-1.425-.091l-1.365 7.883c.873.15 1.819.208 2.79.208v-8zm-1.42-.09a4.024 4.024 0 01-.389-.085c-.088-.025-.118-.04-.104-.033l-3.229 7.32c.765.337 1.575.544 2.346.679l1.377-7.88zm-.493-.118c-.024-.01.004 0 .066.04s.174.121.305.256l-5.73 5.583c.672.69 1.446 1.139 2.13 1.44l3.23-7.319zm.406.332c.064.068.206.238.325.522l-7.38 3.089c.319.76.77 1.389 1.255 1.9l5.8-5.51zm.337.552c.04.096.083.24.1.422l-7.968.724c.06.668.225 1.3.464 1.883l7.404-3.03zm.106.512a6.245 6.245 0 01-.015-.425h-8c0 .32.012.644.034.969l7.981-.544zm-.015-.425v-4.98h-8v4.98h8zm0-4.98c0-.123.004-.264.015-.426l-7.981-.544c-.022.325-.034.648-.034.97h8zm.008-.336a1.57 1.57 0 01-.111.46l-7.38-3.089a6.432 6.432 0 00-.476 1.905l7.967.724zm-.111.46a1.828 1.828 0 01-.36.566l-5.73-5.582a6.188 6.188 0 00-1.29 1.927l7.38 3.09zm-.325.53a1.86 1.86 0 01-.318.271c-.069.046-.104.06-.088.053l-3.229-7.32c-.702.31-1.487.773-2.165 1.486l5.8 5.51zm-.406.324c-.014.006.016-.008.104-.033.087-.024.215-.055.39-.085l-1.377-7.88c-.771.134-1.58.34-2.346.678l3.23 7.32zm.487-.117c.279-.048.738-.09 1.427-.09v-8c-.972 0-1.918.056-2.79.207l1.364 7.883zm1.427-.09c.66 0 1.105.041 1.378.089l1.377-7.88c-.867-.152-1.8-.21-2.755-.21v8zm1.378.089c.175.03.303.06.39.085.088.025.118.039.103.033l3.23-7.32c-.766-.337-1.575-.544-2.346-.679l-1.377 7.88zm.513.126c.022.01-.007 0-.07-.042a1.791 1.791 0 01-.303-.253l5.728-5.584c-.68-.698-1.463-1.152-2.165-1.457l-3.19 7.336zm-.3-.223a1.701 1.701 0 01-.337-.496l7.253-3.374a6.322 6.322 0 00-1.332-1.858l-5.585 5.728zm-.337-.496a1.666 1.666 0 01-.141-.515l7.95-.884a6.332 6.332 0 00-.556-1.975l-7.253 3.374zm-.14-.505c.013.113.016.19.016.237h8a10.1 10.1 0 00-.067-1.14l-7.95.903zm.016.237v3.113h8V19.08h-8zm4-.887h-6.085v8h6.085v-8zm-10.085 4v2.839h8v-2.84h-8zm4 6.839h1.96v-8h-1.96v8zm5.96-4v-1.768h-8v1.768h8zm-3.993 2.232l4.117-.009-.016-8-4.117.009.016 8zm-1.967-2.549h1.96v-8h-1.96v8zm5.96-4v-2.515h-8v2.515h8zm-4-6.515h-1.96v8h1.96v-8zm-5.96 4v2.515h8v-2.515h-8zm21.73-4.44h4v-4h-4v4zm0 1.966v4h4v-4h-4zm-2.871 0v-4h-4v4h4zm0 11.273v4h4v-4h-4zm-4.126 0h-4v4h4v-4zm0-11.273h4v-4h-4v4zm-2.855 0h-4v4h4v-4zm0-1.967v-4h-4v4h4zm5.853 0v1.967h8V13.76h-8zm4-2.033H91.02v8h2.873v-8zm-6.873 4V27h8V15.727h-8zm4 7.273h-4.125v8h4.126v-8zm-.125 4V15.727h-8V27h8zm-4-15.273H84.04v8h2.855v-8zm1.145 4V13.76h-8v1.967h8zm-4 2.033h9.853v-8H84.04v8zM100.64 27v4h4v-4h-4zm-4.125 0h-4v4h4v-4zm0-10.791v-4h-4v4h4zm4.125 0h4v-4h-4v4zm0-3.403h4v-4h-4v4zm0 1.967v4h4v-4h-4zm-4.125 0h-4v4h4v-4zm0-1.967v-4h-4v4h4zM100.64 23h-4.125v8h4.125v-8zm-.125 4V16.209h-8V27h8zm-4-6.791h4.125v-8h-4.125v8zm.125-4V27h8V16.209h-8zm0-3.403v1.967h8v-1.967h-8zm4-2.033h-4.125v8h4.125v-8zm-.125 4v-1.967h-8v1.967h8zm-4 2.033h4.125v-8h-4.125v8zm6.474 13.58h-4v4h4v-4zm0-14.177v-4h-4v4h4zm3.412 0l3.856-1.062-.809-2.938h-3.047v4zm.382 1.386l-3.857 1.063 2.481 9.005 4.806-8.01-3.43-2.058zm.606-.73l2.648 2.997.02-.017.019-.017-2.687-2.963zm.78-.531l1.761 3.591.028-.014.028-.014-1.817-3.563zm.896-.324l-.874-3.903-.008.001-.007.002.889 3.9zm3.146.738l-2.801 2.856.027.026.028.027 2.746-2.909zm.714 1.071l-3.7 1.519.008.02.008.02 3.684-1.559zm.009 7.762l3.663 1.605.004-.009.004-.009-3.671-1.587zm-.706 1.004l-2.685-2.965-.014.013-.014.013 2.713 2.939zm-.996.59l-1.282-3.79-.008.003-.009.003 1.299 3.783zm-2.001.107l.77-3.925-.03-.006-.031-.005-.709 3.936zm-.805-.232l1.499-3.709-.02-.008-.021-.008-1.458 3.725zm-.722-.374l-2.238 3.316.019.012.019.013 2.2-3.34zm-.589-.514l2.994-2.652-6.994-7.897v10.549h4zm0 4.225v4h4v-4h-4zm0-5.346h-4v4h4v-4zm1.959 0v4h4v-4h-4zm0-6.84h4v-4h-4v4zm-1.959 0v-4h-4v4h4zm-.126 12.186V16.209h-8v14.178h8zm-4-10.178h3.412v-8h-3.412v8zm-.445-2.938l.382 1.386 7.713-2.124-.382-1.386-7.713 2.124zm7.669 2.382a.936.936 0 01-.176.21l-5.297-5.996a7.08 7.08 0 00-1.387 1.67l6.86 4.116zm-.137.175a.65.65 0 01-.146.097l-3.522-7.183a7.372 7.372 0 00-1.707 1.16l5.375 5.926zm-.09.07a.21.21 0 01-.023.009l-.008.003-1.779-7.8a7.866 7.866 0 00-1.824.66l3.634 7.127zm-.046.015a.395.395 0 01.088-.011v-8c-.622 0-1.236.07-1.837.205l1.749 7.806zm.088-.011a.63.63 0 01-.192-.032l2.725-7.521a7.412 7.412 0 00-2.533-.447v8zm-.192-.032a1.215 1.215 0 01-.426-.266l5.603-5.71a6.787 6.787 0 00-2.452-1.545l-2.725 7.521zm-.371-.213a1.011 1.011 0 01-.24-.32l7.401-3.036a7.033 7.033 0 00-1.668-2.46l-5.493 5.816zm-.224-.28a.796.796 0 01-.047-.144c-.001-.01.005.023.005.105h8c0-.992-.155-2.05-.59-3.077l-7.368 3.117zm-.042-.039v4.798h8v-4.798h-8zm0 4.798c0 .135-.022.054.063-.143l7.343 3.175c.439-1.015.594-2.06.594-3.032h-8zm.071-.161c.023-.054.102-.2.273-.355l5.37 5.93a6.913 6.913 0 001.684-2.364l-7.327-3.211zm.245-.33c.13-.12.288-.21.435-.26l2.564 7.578a6.754 6.754 0 002.427-1.439l-5.426-5.878zm.418-.254a.497.497 0 01.153-.026v8c.834 0 1.655-.136 2.445-.407l-2.598-7.567zm.153-.026a.437.437 0 01-.085-.008l-1.539 7.85a8.425 8.425 0 001.624.158v-8zm-.146-.02c-.007 0-.01-.002-.015-.004l-2.998 7.417a8.07 8.07 0 001.596.461l1.417-7.873zm-.056-.02l.008.004a.077.077 0 01.012.007l-4.4 6.681a7.9 7.9 0 001.465.758l2.915-7.45zm.058.036a.897.897 0 01.167.148l-5.989 5.305c.402.453.855.846 1.346 1.178l4.476-6.631zm-6.827 2.8v4.226h8v-4.225h-8zm4 .226h-4.126v8h4.126v-8zm0 2.654h1.959v-8h-1.959v8zm5.959-4v-6.84h-8v6.84h8zm-4-10.84h-1.959v8h1.959v-8zm-5.959 4v6.84h8v-6.84h-8zm18.036 5.113h4v-1.52l-1.01-1.137-2.99 2.657zm-1.104-.207l-.523 3.966.036.004.037.004.45-3.974zm-.979-.141l-.608 3.953.608-3.953zm-1.096-.24l1.091-3.85-1.091 3.85zm-2.664-1.952l-3.644 1.651.011.024.011.023 3.622-1.698zm-.158-2.266l3.94.692.002-.012-3.942-.68zm.29-.888l-3.533-1.875-.015.029-.015.028 3.563 1.818zm.59-.73l2.619 3.022.019-.016.019-.017-2.657-2.99zm.954-.556l1.44 3.732.023-.01.023-.009-1.486-3.713zm3.312-.482l.061-4h-.061v4zm3.188.415l-1.319 3.777.009.003.01.003 1.3-3.783zm.838.448l-2.616 3.026.02.017.02.017 2.576-3.06zm.473.598l-3.613 1.716.018.037.018.036 3.577-1.789zm.208.739l-3.979.406.004.045.006.045 3.969-.496zm.05 1.569l-.255 3.992 4.255.271v-4.263h-4zm-3.902-.25h-4v3.753l3.746.24.254-3.992zm0-1.17h4v-4h-4v4zm-1.959 0v-4h-4v4h4zm0 1.602h-4v1.657l1.172 1.172 2.828-2.829zm.374.125l-.658 3.945.009.002.009.001.64-3.948zm.747.116l-.597 3.955.037.006.036.005.524-3.966zm2.067.398l-1.107 3.844.008.002.008.003 1.091-3.849zm1.071.399l-1.695 3.623.011.005.011.005 1.673-3.633zm1.577 1.477l-3.613 1.718.012.024.011.024 3.59-1.766zm.033 2.84L121.233 24l-.004.014-.004.015 3.837 1.128zm-.78 1.186l2.547 3.084.013-.01.014-.012-2.574-3.062zm-4.2.955l-.093 3.999h.093v-4zm-1.86-.141l.589-3.957-.017-.002-.018-.003-.554 3.962zm-1.303-.3l-1.353 3.765 1.353-3.764zm-.847-.456l-2.622 3.02.022.02.024.02 2.576-3.06zm-.705-1.336l-3.969.496.005.04.006.041 3.958-.577zm-.05-1.494l.299-3.989-4.299-.322v4.31h4zm3.876.29h4v-3.711l-3.701-.277-.299 3.988zm0 1.17h-4v4h4v-4zm1.959 0v4h4v-4h-4zm2.99-4.375c-.766-.862-1.68-1.15-1.901-1.22a5.474 5.474 0 00-.904-.2l-1.1 7.923c-.013-.002-.181-.023-.422-.1a3.541 3.541 0 01-.593-.251 3.839 3.839 0 01-1.059-.837l5.979-5.315zm-2.805-1.42a33.913 33.913 0 00-.839-.105l-.9 7.95c.274.03.484.057.639.078l1.1-7.924zm-.765-.096a43.486 43.486 0 01-.895-.129l-1.216 7.907c.381.059.737.11 1.064.154l1.047-7.932zm-.895-.129a5.115 5.115 0 01-.613-.135l-2.182 7.696c.52.148 1.047.264 1.579.346l1.216-7.907zm-.613-.135a2.846 2.846 0 01-.45-.17l-3.44 7.223a10.88 10.88 0 001.708.643l2.182-7.696zm-.45-.17a.47.47 0 01.088.064l-5.475 5.833a7.63 7.63 0 001.947 1.326l3.44-7.223zm.088.064c.117.11.191.225.228.306l-7.243 3.395c.369.789.88 1.513 1.54 2.132l5.475-5.833zm.25.352c.126.278.116.447.116.39h-8c0 .917.15 1.926.597 2.912l7.287-3.302zm.116.39c0-.147.011-.249.023-.314l-7.88-1.382a9.839 9.839 0 00-.143 1.696h8zm.025-.325a.907.907 0 01-.089.25l-7.126-3.636a7.117 7.117 0 00-.669 2.027l7.884 1.359zm-.118.307a1.457 1.457 0 01-.325.417l-5.239-6.045a6.547 6.547 0 00-1.503 1.878l7.067 3.75zm-.287.384c-.185.165-.309.204-.263.186l-2.879-7.464a7.092 7.092 0 00-2.173 1.299l5.315 5.98zm-.217.168c.031-.012.185-.066.514-.117l-1.21-7.907c-.756.115-1.532.3-2.275.597l2.971 7.427zm.514-.117a8.966 8.966 0 011.312-.078v-8c-.875 0-1.725.049-2.522.17l1.21 7.908zm1.252-.078c.632.01 1.088.044 1.397.087l1.096-7.925a19.691 19.691 0 00-2.372-.162l-.121 8zm1.397.087a4.884 4.884 0 01.498.094l.034.01 2.638-7.552a10.826 10.826 0 00-2.074-.477l-1.096 7.925zm.551.11c.01.005-.032-.01-.111-.051a2.06 2.06 0 01-.367-.257l5.233-6.051c-.709-.613-1.49-.977-2.155-1.206l-2.6 7.566zm-.438-.274a2.23 2.23 0 01-.564-.746l7.226-3.432a5.769 5.769 0 00-1.509-1.941l-5.153 6.119zm-.528-.673a1.87 1.87 0 01-.194-.644l7.958-.812a6.12 6.12 0 00-.609-2.122l-7.155 3.578zm-.184-.554c.01.08.019.198.019.359h8c0-.448-.025-.9-.081-1.351l-7.938.992zm.019.359v.714h8v-.714h-8zm4.255-3.278l-3.902-.25-.509 7.984 3.901.25.51-7.984zm-.157 3.743v-1.17h-8v1.17h8zm-4-5.17h-1.959v8h1.959v-8zm-5.959 4v1.601h8v-1.602h-8zm1.172 4.43c.698.697 1.468.959 1.694 1.034.336.112.642.173.85.207l1.315-7.89c.01 0 .154.023.365.094.11.036.293.104.512.219.206.108.559.317.921.679l-5.657 5.657zm2.562 1.244c.223.037.488.077.79.123l1.194-7.91a69.73 69.73 0 01-.704-.11l-1.28 7.897zm.863.133c.236.032.514.074.836.128l1.335-7.888a31.508 31.508 0 00-1.123-.17l-1.048 7.93zm.836.128c.206.035.421.084.648.15l2.213-7.688a13.858 13.858 0 00-1.526-.35l-1.335 7.888zm.664.154c.167.047.322.105.467.173l3.389-7.246c-.541-.254-1.1-.461-1.674-.624l-2.182 7.697zm.489.183c.004.002-.003 0-.018-.01a.437.437 0 01-.052-.041l5.345-5.952a7.683 7.683 0 00-1.93-1.264l-3.345 7.267zm-.07-.051a1.264 1.264 0 01-.293-.387l7.225-3.435a6.724 6.724 0 00-1.587-2.13l-5.345 5.952zm-.27-.34a1.41 1.41 0 01-.161-.578h8c0-.94-.174-1.963-.66-2.952l-7.179 3.53zm-.161-.578c0 .33-.039.476-.045.495l7.658 2.315c.282-.934.387-1.888.387-2.81h-8zm-.053.524c.038-.13.101-.276.196-.42.094-.143.197-.251.287-.327l5.148 6.124a6.41 6.41 0 002.043-3.12l-7.674-2.257zm.509-.769c.127-.104.215-.145.223-.148l-.039.014c-.031.01-.08.025-.147.04l1.85 7.784c1.047-.25 2.204-.692 3.208-1.522l-5.095-6.168zm.037-.094c-.256.061-.785.133-1.689.133v8c1.231 0 2.445-.09 3.539-.35l-1.85-7.783zm-1.597.134a11.37 11.37 0 01-1.363-.099l-1.178 7.913c.732.11 1.526.165 2.356.184l.185-7.998zm-1.398-.104a4.523 4.523 0 01-.47-.09l-.026-.009-.008-.002-2.706 7.528c.69.248 1.41.4 2.102.496l1.108-7.923zm-.504-.101c-.021-.008.007 0 .068.034.061.033.173.1.309.214l-5.153 6.119c.68.573 1.423.929 2.07 1.161l2.706-7.528zm.423.287c.136.118.322.322.474.625l-7.156 3.578a5.97 5.97 0 001.437 1.837l5.245-6.04zm.474.625c.095.191.138.361.156.482l-7.916 1.154a6.38 6.38 0 00.604 1.942l7.156-3.578zm.167.563a2.743 2.743 0 01-.019-.35h-8c0 .445.025.894.081 1.342l7.938-.992zm-.019-.35v-.648h-8v.647h8zm-4.299 3.34l3.876.291.598-7.977-3.876-.291-.598 7.978zm.175-3.698v1.17h8v-1.17h-8zm4 5.17h1.959v-8h-1.959v8zm5.959-4v-1.718h-8v1.719h8z" fill="#fff"/><path d="M10.926 13.76l.988 11.38.988-11.38h4.706L15.483 27H8.361L6.236 13.76h4.69zm13.863 3.877c0 .177.085.318.257.423.177.105.407.2.689.282.288.078.614.155.98.233.365.077.735.177 1.112.299.381.116.755.268 1.12.456.366.183.69.423.972.722.287.294.517.656.688 1.088.178.431.266.951.266 1.56 0 .437-.011.855-.033 1.254-.022.398-.083.769-.183 1.112-.1.338-.254.645-.465.921-.21.277-.506.515-.888.714-.376.194-.852.343-1.427.448-.576.106-1.279.158-2.109.158-.736 0-1.38-.039-1.934-.116a5.996 5.996 0 01-1.411-.34 3.032 3.032 0 01-.971-.59 2.83 2.83 0 01-.598-.855 4.093 4.093 0 01-.299-1.12 10.8 10.8 0 01-.083-1.403h4.317v2.15h1.959v-2.457c0-.16-.089-.294-.266-.399a2.848 2.848 0 00-.689-.282 12.636 12.636 0 00-.971-.257 16.112 16.112 0 01-1.12-.3 9.36 9.36 0 01-1.113-.422 4.188 4.188 0 01-.98-.615 3.02 3.02 0 01-.689-.888c-.171-.349-.257-.764-.257-1.245 0-.598.03-1.129.091-1.594.061-.47.166-.88.316-1.228.15-.349.351-.642.606-.88.254-.244.573-.44.954-.59.388-.149.844-.257 1.37-.323.531-.067 1.148-.1 1.851-.1 1.007 0 1.835.067 2.482.2.653.132 1.168.354 1.544.663.376.31.636.717.78 1.22.144.504.216 1.121.216 1.852h-4.125v-1.66h-1.96v1.909zm15.107-1.91h-1.959v9.306h1.959v-3.727h4.126v2.614c0 .222-.014.46-.042.714a2.494 2.494 0 01-.68 1.486c-.217.232-.515.437-.897.614-.377.177-.85.319-1.42.424-.564.11-1.253.166-2.066.166-.808 0-1.495-.056-2.06-.166-.563-.105-1.037-.247-1.419-.424-.376-.177-.672-.382-.888-.614a2.648 2.648 0 01-.49-.722c-.11-.255-.18-.51-.207-.764a6.648 6.648 0 01-.041-.714v-7.105c0-.221.013-.457.041-.706.028-.254.094-.506.2-.755.11-.249.273-.487.489-.714.221-.232.52-.434.896-.606.377-.177.844-.318 1.403-.423.565-.105 1.248-.158 2.05-.158.82 0 1.514.053 2.084.158.57.105 1.046.246 1.428.423.382.172.68.374.896.606.216.227.377.465.482.714.11.249.177.5.199.755.028.25.042.485.042.706v2.64h-4.126v-3.727zm11.414 9.306h1.959V18.2h-1.96v6.832zm1.029 2.29c-.83 0-1.536-.05-2.117-.149-.575-.1-1.054-.232-1.436-.398-.382-.166-.68-.36-.896-.581a2.438 2.438 0 01-.474-.69 2.473 2.473 0 01-.199-.721 7.963 7.963 0 01-.033-.706v-4.98c0-.222.011-.454.033-.698.028-.249.094-.492.2-.73.105-.244.262-.473.473-.689.215-.221.514-.415.896-.581.382-.166.86-.299 1.436-.398.581-.1 1.287-.15 2.117-.15.824 0 1.522.05 2.092.15.575.1 1.048.232 1.42.398.375.166.666.36.87.581.211.216.366.445.466.689.1.238.157.481.174.73.022.244.033.476.033.698v4.98c0 .221-.011.457-.033.706a2.26 2.26 0 01-.174.722c-.1.238-.255.468-.465.689-.205.221-.496.415-.872.58-.37.167-.844.3-1.42.4-.57.099-1.267.149-2.091.149zm17.423-14.517V27h-3.411l-.382-1.386a3.25 3.25 0 01-.606.738c-.233.21-.49.388-.772.532a4.1 4.1 0 01-.897.315 4.35 4.35 0 01-.97.108 3.41 3.41 0 01-1.171-.207 2.923 2.923 0 01-1.021-.631 3.278 3.278 0 01-.714-1.08c-.177-.431-.266-.937-.266-1.518v-4.798c0-.554.089-1.032.266-1.436.177-.41.41-.747.697-1.013.293-.266.626-.462.996-.59.377-.127.761-.19 1.154-.19.592 0 1.145.102 1.66.307.52.205.958.503 1.312.896v-4.241h4.125zM65.637 18.2h-1.96v6.832h1.96V18.2zm16.601 5.055c0 .393-.014.767-.041 1.121a3.716 3.716 0 01-.208.98 2.285 2.285 0 01-.49.805c-.215.238-.514.442-.896.614-.376.166-.85.293-1.42.382-.564.094-1.253.14-2.066.14-.83 0-1.533-.049-2.109-.149-.57-.1-1.043-.232-1.42-.398-.375-.166-.669-.357-.879-.573a2.295 2.295 0 01-.465-.689 2.53 2.53 0 01-.183-.73 10.267 10.267 0 01-.024-.698v-4.98c0-.221.008-.454.024-.697.023-.244.083-.484.183-.722.1-.238.255-.465.465-.681.21-.221.504-.415.88-.581.376-.166.85-.299 1.42-.398.575-.1 1.278-.15 2.108-.15.808 0 1.497.05 2.067.15.57.1 1.043.232 1.419.398.382.166.68.36.897.581.22.216.387.443.498.68.11.239.18.482.207.731.028.244.042.473.042.69v3.112h-6.085v2.839h1.96v-1.768l4.116-.009zm-6.076-2.54h1.96v-2.515h-1.96v2.515zm17.73-6.956v1.967h-2.871V27h-4.126V15.727H84.04V13.76h9.853zM100.642 27h-4.125V16.209h4.125V27zm0-14.194v1.967h-4.125v-1.967h4.125zm2.349 17.58V16.21h3.412l.382 1.386c.166-.276.368-.52.606-.73.238-.216.498-.393.78-.531.282-.144.581-.252.896-.324.321-.072.642-.108.963-.108.399 0 .789.069 1.171.207a2.78 2.78 0 011.012.64c.299.282.537.639.714 1.07.183.432.274.938.274 1.52v4.797c0 .554-.088 1.035-.265 1.445a2.925 2.925 0 01-.706 1.004c-.288.266-.62.462-.996.59-.371.127-.753.19-1.146.19a4.44 4.44 0 01-.855-.083 4.076 4.076 0 01-.805-.232 3.9 3.9 0 01-.722-.374 3.09 3.09 0 01-.589-.514v4.225h-4.126zm4.126-5.345h1.959v-6.84h-1.959v6.84zm14.036-1.727c-.044-.05-.166-.088-.365-.116a30.069 30.069 0 00-.739-.091 46.653 46.653 0 01-.979-.141 9.076 9.076 0 01-1.096-.24 6.858 6.858 0 01-1.079-.408 3.636 3.636 0 01-.93-.63 2.962 2.962 0 01-.655-.914c-.161-.354-.241-.774-.241-1.261 0-.355.028-.69.083-1.005a3.1 3.1 0 01.29-.888c.144-.271.341-.515.59-.73.249-.222.567-.407.954-.556a6.394 6.394 0 011.395-.357 12.843 12.843 0 011.917-.125c.736.011 1.364.053 1.885.125.52.072.954.168 1.303.29.354.122.633.271.838.448.211.177.368.377.473.598.111.221.18.468.208.739.033.265.05.55.05.855v.714l-3.902-.25v-1.17h-1.959v1.602c.05.05.175.091.374.125.205.033.454.072.747.116.293.039.62.088.979.15.36.06.723.143 1.088.248.371.105.728.238 1.071.399.348.16.658.362.929.606.272.243.487.534.648.871.166.338.249.734.249 1.187 0 .626-.072 1.176-.216 1.652-.138.47-.398.866-.78 1.187-.382.316-.911.554-1.586.714-.675.16-1.546.24-2.614.24a15.21 15.21 0 01-1.86-.14 6.61 6.61 0 01-1.303-.3c-.354-.126-.636-.279-.847-.456a1.966 1.966 0 01-.481-.606 2.366 2.366 0 01-.224-.73 6.68 6.68 0 01-.05-.847v-.647l3.876.29v1.17h1.959v-1.718z" fill="#471B52"/></svg>