<svg width="125" height="40" fill="none" xmlns="http://www.w3.org/2000/svg"><path d="M14.455 24.086l-1.15 2.771 4.15 1.72v-4.491h-3zm0-1.72h3v-2.161l-2.05-.685-.95 2.846zm-3.479-1.162l-.998 2.83.024.008.024.008.95-2.846zm-.432-.152L9.51 18.236l-7.815 2.873 7.852 2.772.998-2.83zm.432-.159l-.964-2.84-.036.011-.035.013 1.035 2.816zm3.479-1.18l.964 2.84 2.036-.69v-2.15h-3zm0-1.715h3v-4.491l-4.15 1.72 1.15 2.771zm-5.618 2.33l-1.15-2.771-1.85.768v2.003h3zm0 1.428h-3v2.004l1.85.767 1.15-2.77zm8.618 2.33v-1.72h-6v1.72h6zm-2.05-4.566l-3.479-1.161-1.9 5.69 3.478 1.162 1.9-5.69zm-3.43-1.145l-.432-.152-1.997 5.658.432.152 1.997-5.658zm-.395 5.492l.431-.158-2.07-5.632-.432.159 2.07 5.631zm.36-.133l3.479-1.18-1.929-5.682-3.478 1.18 1.928 5.682zm5.515-4.022V18h-6v1.713h6zm-4.15-4.485l-5.617 2.33 2.298 5.542 5.618-2.33-2.299-5.542zm-7.468 5.101v1.428h6v-1.428h-6zm1.85 4.2l5.618 2.33 2.299-5.543-5.618-2.33-2.298 5.543zM18.645 25l-2.872.868.645 2.132h2.227v-3zm1.816 0v3h2.225l.646-2.13-2.872-.87zm2.799-9.242l2.871.87 1.172-3.87h-4.043v3zm-1.968 0v-3h-2.317L18.388 15l2.903.758zm-1.574 6.03l2.894.79.004-.016.005-.016-2.903-.758zm-.172.628l-2.907.742 2.81 11.015 2.992-10.967-2.895-.79zm-.158-.622l2.907-.741-.004-.013-2.903.754zm-1.568-6.036l2.904-.754-.584-2.246h-2.32v3zm-1.968 0v-3h-4.04l1.168 3.868 2.872-.868zM18.644 28h1.816v-6h-1.816v6zm4.687-2.13l2.799-9.242-5.742-1.74-2.8 9.242 5.743 1.74zm-.072-13.112H21.29v6h1.968v-6zM18.389 15l-1.575 6.03 5.805 1.516 1.575-6.03L18.388 15zm-1.566 5.999l-.172.628 5.789 1.579.171-.629L16.823 21zm5.63.676l-.16-.622-5.813 1.483.159.622 5.813-1.483zm-.163-.635l-1.567-6.036-5.808 1.508 1.568 6.037 5.807-1.509zm-4.471-8.282H15.85v6h1.968v-6zm-4.84 3.868l2.793 9.242 5.744-1.736-2.793-9.242-5.744 1.736zm16.012 6.419l2.683 1.342.008-.017.008-.016-2.7-1.31zm-.292.349l-1.826-2.38 1.826 2.38zm-.47.229l-.85-2.878-.01.003-.008.003.868 2.872zm-1.365-.007l-.78 2.897.007.002.007.002.766-2.9zm-.565-.28l1.89-2.33-.015-.012-.016-.012-1.859 2.355zm-.52-1.205l2.998-.091-.088-2.91h-2.91v3zm-1.752 0v-3h-3v3h3zm.273 1.25l-2.67 1.367.006.013.006.012 2.658-1.392zm.755.927l-1.911 2.312.02.017.02.017 1.871-2.346zm1.175.61l-.892 2.864.016.005.016.005.86-2.875zm2.672.038l.8 2.891.014-.004.014-.004-.828-2.883zm1.028-.502l-1.8-2.4-.011.009-.011.008 1.822 2.383zm.673-.793l-2.662-1.384-.003.006-.004.007 2.669 1.37zm-.946-3.276l1.791-2.406-.047-.036-.05-.034-1.694 2.476zm-1.7-.762l.808-2.888-.012-.004-.011-.003-.786 2.895zm-.8-.26l-1.115 2.786.009.003.008.003 1.097-2.792zm-.597-.31l1.707-2.467-.021-.015-.022-.015-1.664 2.496zm-.381-.375l-2.566 1.555.017.028.018.027 2.53-1.61zm-.032-.927l-2.714-1.277-.009.017-.008.019 2.731 1.241zm.292-.375l-1.874-2.342-.024.019-.023.019 1.921 2.305zm.463-.234l.868 2.871.021-.006.021-.007-.91-2.858zm1.308.019l-1.06 2.806.037.014.037.013.986-2.833zm.489.285l2.121-2.121-.035-.035-.037-.034-2.05 2.19zm.285.451l-2.817 1.03.011.03.012.03 2.794-1.09zm.115.571l-2.998.123.118 2.877h2.88v-3zm1.739 0v3h3v-3h-3zm-.914-2.044l1.985-2.25-.01-.008-.01-.008-1.965 2.266zm-1.035-.584l-.994 2.831.01.003.984-2.834zm-2.615-.025l.856 2.875.014-.004.014-.004-.884-2.867zM24.49 19.14l-2.76 1.177.008.017.008.017 2.744-1.21zm.559.787l-2.084 2.158 2.084-2.158zm.946.654l-1.377 2.665.012.007 1.365-2.672zm1.352.508l-.79 2.894.01.003.78-2.897zm.825.292l-1.3 2.704.031.015.031.014 1.238-2.733zm.546.336l2.052-2.188-.036-.033-.036-.032-1.98 2.253zm.285.407l-2.802 1.07.014.037.014.035 2.774-1.142zm-2.91.463c0-.259.056-.558.198-.852l5.4 2.618a4.033 4.033 0 00.401-1.766h-6zm.214-.885c.148-.294.353-.526.566-.69l3.651 4.762a4.002 4.002 0 001.15-1.388l-5.367-2.684zm.566-.69c.22-.168.413-.24.506-.268l1.7 5.755a4.423 4.423 0 001.445-.725l-3.65-4.762zm.488-.262c.159-.048.252-.046.24-.046v6c.462 0 .973-.053 1.496-.21l-1.736-5.744zm.24-.046c-.046 0-.03-.005.03.01l-1.533 5.802a5.87 5.87 0 001.503.188v-6zm.043.014c.133.036.335.118.545.288l-3.78 4.66a4.504 4.504 0 001.675.846l1.56-5.794zm.514.263c.244.193.41.428.506.642l-5.478 2.448c.273.613.69 1.173 1.254 1.62l3.718-4.71zm.506.642c.109.244.113.41.113.416l-5.997.182a4.88 4.88 0 00.406 1.85l5.478-2.448zm-2.885-2.493h-1.752v6h1.752v-6zm-4.752 3c0 .86.165 1.763.602 2.617l5.341-2.734a.63.63 0 01.056.148c.006.026 0 .018 0-.031h-6zm.615 2.642a5.998 5.998 0 001.502 1.847l3.823-4.624a.174.174 0 01-.012-.01l-.001-.002.002.004.001.001-5.315 2.784zm1.543 1.88c.653.521 1.384.89 2.153 1.129l1.783-5.729a.592.592 0 01-.195-.09l-3.741 4.69zm2.185 1.139a7.76 7.76 0 002.23.329v-6c-.162 0-.33-.024-.51-.078l-1.72 5.749zm2.23.329c.704 0 1.41-.083 2.102-.274l-1.6-5.783a1.892 1.892 0 01-.501.057v6zm2.13-.282a6.062 6.062 0 002.023-1.002l-3.645-4.766c.022-.017.036-.024.034-.023a.45.45 0 01-.068.024l1.656 5.767zm2-.985a5.288 5.288 0 001.542-1.823l-5.338-2.74a.73.73 0 01.196-.237l3.6 4.8zm1.535-1.81c.416-.8.586-1.647.586-2.469h-6v-.006l.001-.018a.88.88 0 01.09-.275l5.323 2.769zm.586-2.469c0-.947-.224-1.907-.752-2.787l-5.145 3.087a.8.8 0 01-.088-.208c-.016-.061-.015-.096-.015-.092h6zm-.752-2.787a6.28 6.28 0 00-1.65-1.81l-3.583 4.814c.04.03.063.052.073.063.01.011.014.018.015.02l5.145-3.087zm-1.748-1.879a7.912 7.912 0 00-1.276-.706l-2.422 5.489c.131.058.232.116.31.17l3.388-4.953zm-1.276-.706a9.77 9.77 0 00-1.31-.468l-1.618 5.777c.187.053.355.113.506.18l2.422-5.49zm-1.333-.475a4.791 4.791 0 01-.489-.157l-2.194 5.584c.357.14.73.26 1.111.364l1.572-5.79zm-.472-.15a.614.614 0 01-.05-.023c-.002 0 .016.009.047.03l-3.415 4.934c.39.27.797.473 1.19.63l2.228-5.571zm-.046-.022c.114.077.31.236.486.511l-5.062 3.221c.353.555.803.964 1.247 1.26l3.329-4.992zm.52.567c.218.359.308.746.308 1.085h-6c0 .686.174 1.387.561 2.025l5.131-3.11zm.308 1.085c0 .23-.047.505-.174.784l-5.462-2.482a4.09 4.09 0 00-.364 1.698h6zm-.19.82c-.127.268-.306.49-.502.653l-3.842-4.61c-.45.376-.824.847-1.085 1.403l5.428 2.554zm-.549.691c-.217.174-.42.257-.543.294l-1.736-5.743a4.36 4.36 0 00-1.47.764l3.749 4.685zm-.501.281a.97.97 0 01-.275.053v-6c-.482 0-1.01.06-1.544.23L27.812 20zm-.275.053c-.011 0-.162 0-.387-.086l2.12-5.613a4.89 4.89 0 00-1.733-.301v6zm-.313-.059a1.652 1.652 0 01-.575-.357l4.1-4.382a4.351 4.351 0 00-1.553-.928l-1.972 5.667zm-.647-.426a1.778 1.778 0 01-.41-.64l5.635-2.062a4.222 4.222 0 00-.982-1.541l-4.243 4.243zm-.387-.58a1.255 1.255 0 01-.089-.397l5.995-.245a4.754 4.754 0 00-.317-1.54l-5.59 2.182zm2.909 2.48h1.739v-6h-1.74v6zm4.739-3c0-.813-.16-1.629-.52-2.404l-5.443 2.523a.464.464 0 01-.033-.096c-.005-.026-.004-.035-.004-.023h6zm-.52-2.404a5.707 5.707 0 00-1.41-1.89l-3.969 4.5a.264.264 0 01-.064-.087l5.444-2.523zm-1.428-1.906a6.12 6.12 0 00-2.016-1.152l-1.97 5.668a.456.456 0 01.07.03c.005.002-.002-.002-.016-.014l3.932-4.532zm-2.007-1.148a6.96 6.96 0 00-2.314-.38v6c.192 0 .29.028.326.041l1.988-5.661zm-2.314-.38c-.73 0-1.464.097-2.18.318l1.77 5.734c.079-.025.21-.051.41-.051v-6zm-2.151.31a6.158 6.158 0 00-2.006 1.01l3.655 4.758c-.015.012-.022.014-.015.01a.513.513 0 01.078-.028l-1.712-5.75zm-2.006 1.01a5.428 5.428 0 00-1.52 1.808l5.323 2.768a.615.615 0 01-.148.182l-3.655-4.758zm-1.52 1.808a5.26 5.26 0 00-.586 2.444h6a.569.569 0 01-.017.125.859.859 0 01-.074.199l-5.323-2.768zm-.586 2.444c0 .71.13 1.426.425 2.116l5.519-2.354a.761.761 0 01.056.238h-6zm.44 2.15c.296.672.718 1.25 1.219 1.734l4.168-4.316a.646.646 0 01.102.16l-5.49 2.422zm1.219 1.734a6.965 6.965 0 001.653 1.162l2.753-5.331c-.192-.1-.25-.159-.238-.147l-4.168 4.316zm1.665 1.168c.607.31 1.257.547 1.927.73l1.579-5.788a4.098 4.098 0 01-.776-.286l-2.73 5.344zm1.937.733c.103.027.179.052.233.07.054.02.076.03.072.029l2.6-5.408a7.78 7.78 0 00-1.345-.485l-1.56 5.794zm.367.128c.014.006 0 0-.031-.019a1.245 1.245 0 01-.166-.124l3.961-4.507c-.42-.37-.876-.63-1.289-.816l-2.475 5.466zm-.268-.208a1.91 1.91 0 01-.465-.711l5.605-2.143a4.094 4.094 0 00-1.036-1.523l-4.104 4.377zm-.437-.64a1.796 1.796 0 01-.137-.68h6c0-.532-.097-1.077-.314-1.605l-5.549 2.285zm12.29-1.162l2.994.191.203-3.19h-3.197v3zm-1.784 0v-3H33.91l-.17 2.819 2.994.181zm-2.031 1.518l-.87 2.87.05.016.052.014.768-2.9zm-.381-.19l1.785-2.412-.016-.012-.016-.012-1.753 2.435zm-.286-.287l-2.453 1.727.02.03.022.03 2.411-1.787zm-.21-.393l-2.792 1.095.003.01.004.01 2.786-1.115zm-.19-.755l-2.975.388.004.024.003.024 2.968-.436zm-.019-3.003l2.982.325.001-.005-2.983-.32zm.12-.647l-2.882-.831-.002.007-.002.008 2.887.816zm.286-.654l-2.521-1.625-.005.007-.005.007 2.531 1.61zm.445-.438l-1.512-2.591-.004.002 1.516 2.589zm.33-.133l-.704-2.917-.012.003-.012.003.728 2.91zm1.066.063l-1.081 2.798.038.015.038.014 1.005-2.827zm.476.305l2.254-1.98-.032-.037-.033-.035-2.189 2.052zm.28.52l-2.869.878.008.027.009.026 2.852-.93zm.127.724l-2.995.184.173 2.816h2.822v-3zm1.777 0v3H41.8l-.287-3.262-2.988.262zm-1.98-2.895l-1.03 2.818.009.003 1.02-2.82zm-2.318-.082l.825 2.884.013-.003.013-.004-.85-2.877zm-.818.368l-1.625-2.522-.033.021-.032.022 1.69 2.479zm-1.282 1.638l2.773 1.142.013-.031.013-.032-2.8-1.08zm-.267.94l2.954.523.001-.007-2.955-.517zm.006 3.433l-2.953.528.003.017.003.017 2.947-.562zm.286.978l-2.772 1.148.007.017.007.017 2.758-1.182zm.463.812l-2.41 1.787.01.013.01.013 2.39-1.813zm.635.629l-1.772 2.42.008.007.009.006 1.755-2.433zm.87.431l-.904 2.861.023.007.022.007.859-2.875zm2.38-.063l.994 2.83.013-.004.013-.005-1.02-2.821zm1.028-.61l2.022 2.217-2.022-2.216zm.686-.952l-2.72-1.267-.005.013-.006.013 2.73 1.241zm.305-4.256h-1.784v6h1.784v-6zm-4.779 2.818c-.001.027-.003.024.002-.003.006-.027.02-.087.052-.171l5.603 2.146a5.405 5.405 0 00.332-1.609l-5.989-.363zm.054-.174c.054-.142.172-.37.404-.594l4.172 4.311a4.324 4.324 0 001.027-1.571l-5.603-2.146zm.404-.594a1.81 1.81 0 01.7-.424l1.82 5.718a4.19 4.19 0 001.652-.983l-4.172-4.311zm.7-.424a.98.98 0 01.282-.052v6c.484 0 1.007-.062 1.538-.23l-1.82-5.718zm.282-.052c.044 0 .147.004.291.042l-1.535 5.8c.432.115.853.158 1.244.158v-6zm.394.072c.18.054.365.144.534.27l-3.57 4.82c.397.296.835.512 1.296.652l1.74-5.742zm.502.245a1.7 1.7 0 01.372.364l-4.822 3.571c.253.34.565.662.944.935l3.506-4.87zm.414.423c.072.1.108.18.123.219l-5.57 2.228c.133.335.309.677.54 1.006l4.907-3.453zm.13.238c.01.023.01.028.006.01a1.153 1.153 0 01-.02-.107l-5.937.873c.068.459.18.94.366 1.414l5.586-2.19zm-.008-.049a4.762 4.762 0 01-.032-.602h-6c0 .468.024.93.082 1.379l5.95-.776zm-.032-.602V19.75h-6v1.257h6zm0-1.257c0-.178.009-.32.02-.43l-5.964-.65a9.96 9.96 0 00-.056 1.08h6zm.021-.435c.01-.098.023-.145.025-.152l-5.774-1.631a6.919 6.919 0 00-.217 1.143l5.966.64zm.02-.137c.007-.021-.006.032-.066.127l-5.062-3.222c-.296.467-.5.956-.637 1.434l5.765 1.661zm-.075.141c-.1.155-.28.36-.562.526l-3.03-5.178a4.327 4.327 0 00-1.451 1.402l5.043 3.25zm-.566.528c-.152.09-.308.15-.454.186l-1.455-5.82a4.255 4.255 0 00-1.114.452l3.023 5.182zm-.477.192c-.13.031-.238.04-.31.04v-6a4.67 4.67 0 00-1.098.127l1.408 5.833zm-.31.04a.73.73 0 01-.11-.012 1.484 1.484 0 01-.299-.083l2.162-5.596a4.853 4.853 0 00-1.754-.31v6zm-.333-.066a1.819 1.819 0 01-.707-.47l4.377-4.104a4.182 4.182 0 00-1.66-1.08l-2.01 5.654zm-.772-.542a1.619 1.619 0 01-.336-.582l5.737-1.756a4.39 4.39 0 00-.894-1.623l-4.507 3.961zm-.32-.529a.584.584 0 01-.02-.076c0-.003.003.014.005.053l5.989-.368a5.9 5.9 0 00-.27-1.471l-5.703 1.862zm2.98 2.793h1.777v-6h-1.777v6zm4.765-3.262a7.338 7.338 0 00-.524-2.195l-5.537 2.312c.024.058.065.184.084.407l5.977-.524zm-.524-2.195a5.846 5.846 0 00-1.357-1.992l-4.143 4.34a.302.302 0 01-.04-.047c-.008-.011-.006-.01.003.01l5.537-2.311zm-1.357-1.992a5.854 5.854 0 00-2.067-1.267l-2.041 5.643c.025.009.029.012.017.006a.322.322 0 01-.052-.042l4.143-4.34zm-2.057-1.263a6.913 6.913 0 00-2.383-.399v6c.229 0 .32.033.322.034l2.06-5.635zm-2.383-.399c-.604 0-1.214.08-1.815.257l1.701 5.754a.65.65 0 01.114-.01v-6zm-1.789.25a6.05 6.05 0 00-1.619.73l3.25 5.044-.003.002a.148.148 0 01.02-.008l-1.648-5.769zm-1.684.773a6.435 6.435 0 00-1.402 1.303l4.685 3.748a.438.438 0 01.097-.093l-3.38-4.958zm-1.402 1.303a6.515 6.515 0 00-.99 1.735l5.599 2.158a.534.534 0 01.076-.145l-4.685-3.748zm-.965 1.671a7.494 7.494 0 00-.447 1.565l5.91 1.034c.026-.146.058-.247.086-.314l-5.549-2.285zm-.446 1.559a9.064 9.064 0 00-.135 1.583h6c0-.213.017-.39.043-.536l-5.908-1.047zm-.135 1.583v1.244h6v-1.244h-6zm0 1.244c0 .557.044 1.111.142 1.658l5.906-1.055a3.437 3.437 0 01-.048-.603h-6zm.148 1.691c.101.532.251 1.057.461 1.565l5.543-2.297a2.008 2.008 0 01-.11-.39l-5.894 1.122zm.475 1.599c.214.498.483.974.811 1.417l4.82-3.573a1.016 1.016 0 01-.116-.208l-5.515 2.364zm.831 1.443c.353.466.77.883 1.253 1.236l3.544-4.84c.003.001.004.002.002 0a.213.213 0 01-.019-.022l-4.78 3.626zm1.27 1.249a6.039 6.039 0 001.721.86l1.807-5.722a.201.201 0 01-.028-.011l.002.002a.127.127 0 01.008.005l-3.51 4.866zm1.766.873c.636.19 1.281.271 1.919.271v-6a.736.736 0 01-.202-.02l-1.717 5.749zm1.919.271c.772 0 1.554-.112 2.314-.378l-1.988-5.662c-.036.013-.134.04-.326.04v6zm2.34-.388a6.04 6.04 0 002.03-1.214l-4.043-4.433a.162.162 0 01.013-.011l.006-.004s-.014.008-.046.02l2.04 5.642zm2.03-1.214a5.89 5.89 0 001.395-1.927l-5.462-2.483c-.007.015-.008.015-.002.006a.214.214 0 01.026-.03l4.043 4.434zm1.383-1.902a6.47 6.47 0 00.58-2.333l-5.988-.381c-.01.143-.035.19-.03.18l5.438 2.534zm-.986-1.597l-2.844.957.003.009 2.84-.966zm.634 1.105l2.255-1.98-.008-.009-.008-.008-2.239 1.997zm1.016.736l-1.213 2.744.017.008.018.007 1.178-2.759zm2.755 0l1.189 2.755.012-.006.012-.005-1.213-2.744zm1.016-.736l2.254 1.98-2.254-1.98zm.628-1.105l2.84.966.003-.009-2.843-.957zm0-2.913l-2.843.957.003.008 2.84-.965zm-.628-1.111l2.254-1.98-.008-.008-.007-.009-2.24 1.997zm-3.777-.736l-1.213-2.744-.011.005 1.224 2.739zm-1.01.736l2.24 1.997.007-.009.008-.008-2.255-1.98zm-.634 1.11l2.84.966.003-.008-2.843-.957zm2.348-.52l-1.526-2.583 1.526 2.583zm1.81.45l2.572-1.543-.013-.02-.012-.021-2.547 1.585zm.253 2.4l2.93.646.002-.01-2.932-.636zm-.253.654l2.547 1.585.005-.008.005-.008-2.557-1.569zm-1.81.45l-1.526 2.584.013.007.013.007 1.5-2.597zm-.457-.45l2.547-1.585-.008-.013-.008-.013-2.53 1.611zm-.26-.654l-2.932.636.002.01 2.93-.646zm-4.847-.946v.134h6v-.134h-6zm0 .134c0 .791.113 1.584.373 2.353l5.686-1.914a1.375 1.375 0 01-.059-.44h-6zm.375 2.362a6.17 6.17 0 001.237 2.136l4.477-3.994-.006-.01a.367.367 0 01-.027-.063l-5.68 1.93zm1.222 2.118a5.88 5.88 0 002.056 1.5l2.426-5.487c-.017-.008-.018-.01-.007-.002a.187.187 0 01.033.03l-4.508 3.96zm2.09 1.516a6.485 6.485 0 002.563.501v-6c-.179 0-.23-.029-.206-.019l-2.356 5.518zm2.563.501c.852 0 1.724-.145 2.56-.505l-2.378-5.51c.032-.013-.01.015-.182.015v6zm2.584-.516a5.88 5.88 0 002.057-1.5l-4.508-3.96a.206.206 0 01.033-.03c.01-.008.01-.006-.008.002l2.426 5.488zm2.057-1.5c.553-.63.953-1.35 1.214-2.12l-5.68-1.93a.444.444 0 01-.042.09l4.508 3.96zm1.217-2.128c.26-.77.373-1.562.373-2.353h-6c0 .216-.03.354-.06.44l5.687 1.913zm.373-2.353v-.134h-6v.134h6zm0-.134c0-.79-.114-1.58-.376-2.35l-5.68 1.932c.026.078.056.21.056.418h6zm-.373-2.34a6.212 6.212 0 00-1.217-2.134l-4.508 3.96.006.01c.006.01.018.034.033.078l5.686-1.915zm-1.232-2.151a5.946 5.946 0 00-2.048-1.483l-2.426 5.487.017.009a.141.141 0 01-.022-.02l4.479-3.993zm-2.048-1.483a6.367 6.367 0 00-2.59-.523v6c.17 0 .205.028.164.01l2.426-5.487zm-2.59-.523c-.863 0-1.746.15-2.591.523l2.426 5.487c-.041.018-.006-.01.164-.01v-6zm-2.602.527a5.896 5.896 0 00-2.04 1.496l4.509 3.96a.169.169 0 01-.028.024l-.006.005s.004-.003.013-.006l-2.448-5.478zm-2.024 1.479a6.159 6.159 0 00-1.24 2.15l5.687 1.915a.386.386 0 01.028-.067l.002-.004-4.477-3.994zm-1.237 2.142a7.269 7.269 0 00-.375 2.35h6c0-.21.03-.34.056-.419l-5.68-1.931zm7.39 2.483v-.134h-6v.134h6zm0-.134a.71.71 0 01.012-.147l-5.86-1.291c-.105.48-.152.962-.152 1.438h6zm.012-.147a.934.934 0 01-.123.279l-5.094-3.17a5.089 5.089 0 00-.643 1.6l5.86 1.29zm-.123.279a1.67 1.67 0 01-.563.547l-3.053-5.166a4.33 4.33 0 00-1.478 1.449l5.095 3.17zm-.563.547a1.719 1.719 0 01-.854.252v-6c-.685 0-1.46.146-2.199.582l3.053 5.166zm-.854.252a1.71 1.71 0 01-.847-.252l3.053-5.166a4.305 4.305 0 00-2.206-.582v6zm-.847-.252a1.671 1.671 0 01-.564-.547l5.095-3.17a4.33 4.33 0 00-1.478-1.449l-3.053 5.166zm-.589-.589a.85.85 0 01-.103-.237l5.86-1.291a5.186 5.186 0 00-.612-1.559l-5.145 3.087zm-.103-.237a.71.71 0 01.012.147h6c0-.476-.047-.958-.153-1.438l-5.86 1.29zm.012.147v.134h6v-.134h-6zm0 .134c0 .097-.01.153-.015.177l5.864 1.27c.105-.483.15-.968.15-1.447h-6zm-.012.167a.932.932 0 01.118-.27l5.114 3.138a5.101 5.101 0 00.627-1.577l-5.86-1.291zm.128-.286a1.67 1.67 0 01.564-.547l3.053 5.166a4.33 4.33 0 001.478-1.449l-5.095-3.17zm.564-.547c.359-.212.686-.252.86-.252v6c.69 0 1.462-.15 2.193-.582L42.12 20.97zm.86-.252c.149 0 .462.033.815.237l-3.001 5.195a4.34 4.34 0 002.186.568v-6zm.84.252c.246.145.438.343.565.547l-5.095 3.17a4.33 4.33 0 001.478 1.448l3.053-5.165zm.548.521c.097.153.13.272.139.312l-5.86 1.29c.12.54.325 1.095.66 1.62l5.061-3.222zm.141.322a.858.858 0 01-.014-.177h-6c0 .479.045.964.15 1.448l5.864-1.271zm3.27 1.226l-2.884.827.002.008 2.882-.835zm.533 1.098l2.412-1.784-.008-.011-.008-.01-2.396 1.805zm.838.73l-1.422 2.641.02.01.02.011 1.382-2.662zm2.907-.584l2.977-.37-.867-7.004-4.442 5.486 2.332 1.888zm.089.717l-2.977.369.326 2.631h2.651v-3zm1.593 0v3h3v-3h-3zm0-9.75h3v-3h-3v3zm-1.77 0v-3h-3v3h3zm0 3.498l-2.239 1.998 5.238 5.866v-7.864h-3zm-.73-.546l-1.309 2.7.026.012.025.011 1.257-2.723zm-2.09.057l-1.354-2.677-.007.004-.007.003 1.369 2.67zm-.843.717l-2.396-1.805 2.396 1.805zm-.534 1.11l-2.885-.82-.004.014-.004.013 2.893.794zm1.663.623l2.94.598.002-.01-2.941-.588zm.242-.666l-2.583-1.527-.008.013-.007.013 2.598 1.5zm.425-.438l1.562 2.56.008-.004.01-.006-1.58-2.55zm1.39.031l-1.652 2.505.02.012.018.012 1.614-2.529zm.476.54h3v-.72l-.326-.641-2.674 1.36zm0 2.78l2.663 1.381.337-.65v-.73h-3zm-.482.54l-1.628-2.52-.012.007-.012.008 1.652 2.505zm-1.39.038l-1.562 2.561 1.562-2.561zm-.426-.438l2.583-1.526-.008-.014-.007-.013-2.568 1.553zm-.24-.641l-2.95.55.005.029.006.028 2.938-.607zm-4.835-.94v.133h6v-.133h-6zm0 .133c0 .746.092 1.491.3 2.218l5.767-1.655a2.039 2.039 0 01-.067-.563h-6zm.303 2.226c.21.725.538 1.43 1.018 2.068l4.792-3.61c.015.02-.013-.008-.048-.129l-5.763 1.671zm1.002 2.047a5.517 5.517 0 001.828 1.587l2.844-5.283a.509.509 0 01.152.128L45.9 25.92zm1.868 1.608a5.414 5.414 0 002.512.598v-6c-.002 0 .026 0 .077.011a.759.759 0 01.175.066l-2.764 5.325zm2.512.598a5.21 5.21 0 002.373-.547l-2.715-5.35a1.03 1.03 0 01.243-.09c.063-.013.1-.013.099-.013v6zm2.373-.547a5.329 5.329 0 001.736-1.41l-4.664-3.775a.732.732 0 01.213-.166l2.715 5.351zm-3.573-2.928l.089.717 5.954-.738-.089-.717-5.954.738zM52.147 28h1.593v-6h-1.593v6zm4.593-3v-9.75h-6V25h6zm-3-12.75h-1.77v6h1.77v-6zm-4.77 3v3.498h6V15.25h-6zm5.237 1.5a5.22 5.22 0 00-1.71-1.272l-2.515 5.447a.843.843 0 01-.25-.18l4.475-3.995zm-1.66-1.248a5.138 5.138 0 00-2.253-.497v6a.922.922 0 01-.362-.103l2.615-5.4zm-2.253-.497a5.49 5.49 0 00-2.498.577l2.71 5.353a.729.729 0 01-.168.062c-.042.01-.06.008-.044.008v-6zm-2.512.584a5.446 5.446 0 00-1.871 1.582l4.792 3.61a.607.607 0 01-.183.147l-2.738-5.339zm-1.871 1.582a6.341 6.341 0 00-1.023 2.096l5.771 1.64c.038-.132.066-.155.044-.126l-4.792-3.61zm-1.03 2.122a8.377 8.377 0 00-.285 2.222h6c0-.295.033-.499.07-.634l-5.785-1.588zm7.48 2.355v-.133h-6v.133h6zm0-.133c0-.112.01-.179.015-.208l-5.88-1.196c-.095.47-.136.94-.136 1.404h6zm.017-.218a.877.877 0 01-.103.246l-5.195-3.001a5.17 5.17 0 00-.585 1.579l5.883 1.176zm-.117.272a1.76 1.76 0 01-.596.597l-3.124-5.123a4.241 4.241 0 00-1.446 1.473l5.166 3.053zm-.579.586a1.82 1.82 0 01-.938.284v-6c-.698 0-1.483.158-2.22.615l3.158 5.101zm-.938.284c-.134 0-.498-.031-.903-.299l3.304-5.008c-.803-.53-1.666-.693-2.4-.693v6zm-.865-.274c-.299-.19-.486-.436-.583-.628l5.347-2.722a4.346 4.346 0 00-1.536-1.707l-3.228 5.057zm-.91-1.99v2.781h6v-2.78h-6zm.337 1.4c.106-.204.29-.43.553-.6l3.255 5.04a4.387 4.387 0 001.519-1.678l-5.327-2.762zm.529-.584c.411-.271.776-.299.896-.299v6c.73 0 1.598-.158 2.408-.692l-3.304-5.009zm.896-.299c.176 0 .534.04.927.28l-3.123 5.123a4.19 4.19 0 002.196.597v-6zm.927.28c.274.167.472.388.596.598l-5.165 3.052a4.242 4.242 0 001.446 1.473l3.123-5.123zm.58.571c.095.157.124.274.13.304l-5.876 1.215c.108.521.298 1.066.612 1.586l5.135-3.105zm.141.362a1.423 1.423 0 01-.019-.257h-6c0 .449.037.903.121 1.356l5.898-1.1zm9.334 1.971l2.45 1.732 1.404-1.987-1.654-1.784-2.2 2.04zm-.882-.952l2.2-2.039-2.406-2.596-2.167 2.799 2.373 1.836zm-3.035.35l1.968-2.266-.005-.004-1.963 2.27zm-.374-.451l-2.629 1.445.008.015.008.014 2.613-1.474zm-.229-.667h-3v.32l.068.312 2.932-.632zm0-.019v-3h-3v3h3zm4.66 0v3h3v-3h-3zm-.21-2.126l-2.846.948.003.01 2.843-.958zm-.61-1.073l2.23-2.007-.007-.009-.008-.008-2.214 2.024zm-.99-.686l-1.181 2.758.018.008.018.007 1.145-2.773zm-3.7.743l-2.18-2.062 2.18 2.062zm-.692 1.124l2.802 1.071.003-.009-2.805-1.062zm0 2.99l-2.78 1.128.008.018.007.018 2.765-1.165zm.717 1.047l2.092-2.15-.008-.008-.008-.008-2.076 2.166zm2.933-4.615l-1.174 2.761.041.018.042.016 1.09-2.795zm.438.28l2.158-2.085-.018-.018-.019-.019-2.121 2.121zm.38 1.098v3h3v-3h-3zm-2.894 0l-2.948-.557-.67 3.557h3.618v-3zm.508-1.08l2.156 2.087.017-.019.018-.018-2.191-2.05zm.432-.298l1.138 2.776.03-.013.03-.013-1.198-2.75zm.755 8.586c1.054 0 2.132-.206 3.132-.737l-2.811-5.3c.027-.015-.047.037-.321.037v6zm3.132-.737c.74-.392 1.526-.955 2.11-1.782l-4.9-3.463a.968.968 0 01.129-.146s-.01.008-.036.024a1.514 1.514 0 01-.114.067l2.811 5.3zm1.861-5.553l-.882-.952-4.4 4.078.881.953 4.401-4.079zm-5.455-.75c.065-.082.143-.16.231-.225.087-.065.168-.106.228-.13l2.24 5.566a4.858 4.858 0 002.046-1.537l-4.745-3.673zm.459-.355a.324.324 0 01.111-.02v6a5.68 5.68 0 002.13-.414l-2.241-5.566zm.11-.02c.07 0 .197.01.356.07l-2.069 5.631c.574.21 1.154.298 1.714.298v-6zm.356.07c.121.044.256.118.38.226l-3.934 4.53a4.76 4.76 0 001.485.875l2.07-5.632zm.376.222c.08.07.184.183.276.345l-5.226 2.948c.278.492.632.905 1.025 1.245l3.925-4.538zm.291.373c.053.095.076.16.083.18.007.02.002.011-.007-.032l-5.865 1.263c.095.442.25.969.532 1.48l5.258-2.891zm.143.78v-.02h-6v.02h6zm-3 2.98h4.66v-6h-4.66v6zm7.66-3v-.749h-6v.75h6zm0-.749c0-.78-.109-1.569-.367-2.335L58.8 20.968c.021.064.053.194.053.42h6zm-.364-2.326a5.994 5.994 0 00-1.225-2.13l-4.46 4.013a.275.275 0 01-.026-.035c-.002-.003.006.011.019.05l5.692-1.898zm-1.241-2.148a5.736 5.736 0 00-2.06-1.434l-2.29 5.545c.007.003-.003 0-.023-.014a.336.336 0 01-.055-.049l4.428-4.048zm-2.023-1.419a6.316 6.316 0 00-2.502-.49v6c.162 0 .188.026.139.005l2.363-5.515zm-2.502-.49a6.34 6.34 0 00-2.505.501l2.357 5.518c.004-.002.041-.02.148-.02v-6zm-2.505.501c-.774.331-1.469.808-2.055 1.427l4.36 4.124c.006-.007.014-.017.052-.033l-2.357-5.518zm-2.055 1.427a6.324 6.324 0 00-1.318 2.123l5.611 2.125c.036-.095.064-.122.066-.124l-4.359-4.123zm-1.314 2.114a6.983 6.983 0 00-.446 2.506h6c0-.207.032-.317.05-.363l-5.604-2.143zm-.446 2.506v.254h6v-.254h-6zm0 .254c0 .828.15 1.647.468 2.43l5.56-2.258a.434.434 0 01-.028-.172h-6zm.483 2.466a6.1 6.1 0 001.406 2.048l4.152-4.33c-.007-.008-.015-.014-.028-.047l-5.53 2.329zm1.39 2.033a6.378 6.378 0 002.084 1.344l2.238-5.567c-.099-.04-.13-.07-.138-.078l-4.184 4.301zm2.084 1.344c.833.335 1.7.477 2.56.477v-6a.88.88 0 01-.322-.044L56.36 27.65zm2.35-5.217c-.092 0-.309-.015-.583-.131l2.347-5.522a4.492 4.492 0 00-1.764-.347v6zm-.5-.097a1.75 1.75 0 01-.593-.394l4.243-4.243a4.253 4.253 0 00-1.469-.953l-2.18 5.59zm-.63-.432a1.646 1.646 0 01-.337-.513l5.55-2.278a4.356 4.356 0 00-.896-1.377l-4.316 4.168zm-.337-.513a1.626 1.626 0 01-.123-.612h6c0-.56-.104-1.124-.326-1.666l-5.551 2.278zm-.123-.612v.14h6v-.14h-6zm3-2.86h-2.895v6h2.895v-6zm.053 3.556c.002-.013-.004.027-.037.1l-5.44-2.531a5.562 5.562 0 00-.419 1.318l5.896 1.113zm-.037.1c-.043.09-.12.219-.247.35l-4.312-4.172c-.381.394-.67.836-.882 1.29l5.44 2.531zm-.212.314c-.17.181-.384.33-.62.428l-2.278-5.552a4.218 4.218 0 00-1.484 1.025l4.382 4.099zm-.56.402c-.252.11-.483.142-.654.142v-6a4.35 4.35 0 00-1.744.358l2.397 5.5zm10.76-5.08v3h3v-3h-3zm0-1.453h3v-3h-3v3zm-7.453 0v-3h-3v3h3zm0 1.453h-3v3h3v-3zm2.812 0h3v-3h-3v3zm0 7.789h-3v3h3v-3zm1.79 0v3h3v-3h-3zm0-7.789v-3h-3v3h3zm5.85 0v-1.453h-6v1.453h6zm-3-4.453h-7.452v6h7.453v-6zm-10.452 3v1.453h6v-1.453h-6zm3 4.453h2.812v-6h-2.812v6zm-.188-3V25h6v-7.789h-6zm3 10.789h1.79v-6h-1.79v6zm4.79-3v-7.789h-6V25h6zm-3-4.789h2.85v-6h-2.85v6zm4.4-2.08v-3h-3v3h3zm0 1.442h-3v3h3v-3zm1.954 0h3v-3h-3v3zm0 3.992v3h3v-3h-3zm-1.955 0v-3h-3v3h3zm0 1.435h-3v3h3v-3zm5.599 0v3h3v-3h-3zm0-1.435h3v-3h-3v3zm-1.86 0h-3v3h3v-3zm0-5.433h3v-3h-3v3zm-1.84-1.378l-2.793 1.097.024.062.027.06 2.741-1.219zm.209.292l2.069-2.172-.028-.027-.028-.025-2.013 2.224zm.317.197l-1.064 2.805.016.006.015.006 1.033-2.817zm1.162-.19l2.07 2.17h.001l-2.071-2.17zm0-1.352l-2.096 2.146.025.024.026.024 2.045-2.194zm-1.162-.197l-1.033-2.817-.015.006-.016.006 1.064 2.805zm-.317.19l-2.013-2.224-.028.025-.028.027 2.069 2.172zm-.21.305l-2.757-1.182-.01.025-.011.025L73.57 16zm-4.898 2.133v1.44h6v-1.44h-6zm3 4.44h1.955v-6h-1.955v6zm-1.045-3v3.993h6v-3.992h-6zm3 .993h-1.955v6h1.955v-6zm-4.955 3V25h6v-1.435h-6zm3 4.435h5.599v-6h-5.599v6zm8.599-3v-1.435h-6V25h6zm-3-4.435h-1.86v6h1.86v-6zm1.14 3v-5.433h-6v5.433h6zm-3-8.433h-3.739v6h3.74v-6zm-4.91 1.242c0 .486.085.988.277 1.477l5.585-2.194c.099.253.138.5.138.716h-6zm.328 1.599c.213.48.525.925.938 1.298l4.026-4.45c.235.213.407.464.519.715l-5.483 2.437zm.882 1.246c.398.379.852.65 1.322.83l2.128-5.61c.225.084.467.225.688.435l-4.138 4.345zm1.353.84c.497.183.992.254 1.452.254v-6c.156 0 .37.024.614.114l-2.066 5.633zm1.452.254c.885 0 1.944-.26 2.813-1.09l-4.14-4.341c.23-.22.495-.374.756-.465.25-.088.454-.104.571-.104v6zm2.814-1.09a3.896 3.896 0 001.208-2.85h-6a2.123 2.123 0 01.65-1.49l4.142 4.34zm1.208-2.85a3.876 3.876 0 00-1.234-2.867l-4.09 4.39a2.15 2.15 0 01-.516-.747 2.036 2.036 0 01-.16-.776h6zm-1.183-2.818c-.866-.846-1.934-1.12-2.839-1.12v6c-.125 0-.336-.018-.593-.11a2.119 2.119 0 01-.76-.478l4.192-4.292zm-2.839-1.12c-.46 0-.955.07-1.452.252l2.066 5.633c-.243.09-.458.114-.614.114v-6zm-1.483.264a3.99 3.99 0 00-1.266.77l4.026 4.45a2.01 2.01 0 01-.632.39l-2.128-5.61zm-1.322.823a3.91 3.91 0 00-.898 1.295l5.515 2.364a2.09 2.09 0 01-.48.686l-4.137-4.345zm-.919 1.345a3.983 3.983 0 00-.291 1.506h6c0 .215-.039.48-.152.758l-5.557-2.264zm8.244 12.774h-3v3h3v-3zm1.764 0v3h3v-3h-3zm0-3.238l2.225-2.012-5.225-5.775v7.787h3zm.534.438l-1.56 2.563.042.026.043.024 1.475-2.613zm.533.21l.757-2.903-.022-.006-.023-.005-.712 2.914zm2.628-.927l2.423 1.768.004-.005-2.427-1.763zm.507-1.104l-2.89-.802-.004.013-.004.014 2.898.774zm0-2.946l-2.9.768.005.017.005.017 2.89-.802zm-.514-1.11l2.412-1.785-.006-.008-.006-.008-2.4 1.8zm-.844-.705l-1.355 2.676.013.007.014.007 1.328-2.69zm-1.752-.184l.68 2.922.024-.006.024-.006-.728-2.91zm-.501.184l-1.4-2.653-.012.006 1.412 2.647zm-.356.241l1.885 2.334.027-.022.026-.022-1.938-2.29zm-.304.305l-2.987.282.687 7.289 4.625-5.676-2.325-1.895zm-.064-.673l2.987-.282-.257-2.718h-2.73v3zm-1.631 0v-3h-3v3h3zm4.303 4.303l2.94.599.002-.01-2.942-.588zm-.672 1.111l-1.58-2.55-.013.008-.014.009 1.606 2.533zm-1.06.121l-.773 2.899.045.012.046.01.681-2.921zm-.337-.14l-1.59 2.544.015.01.015.009 1.56-2.563zm-.273-.228L78.72 25.25l.027.03.026.03 2.225-2.012zM80.8 23h-3v.709l.317.633 2.683-1.341zm0-2.869l-2.683-1.341-.317.633v.708h3zm.21-.31l-2.173-2.07-.026.028-.026.029 2.225 2.012zm.292-.223l-1.388-2.66-.017.01-.018.009 1.423 2.641zm.323-.114l.63 2.933.049-.01.05-.013-.728-2.91zm1.029.114l-1.562 2.562.014.008.013.008 1.535-2.578zm.438.432l2.583-1.526-.021-.035-.022-.035-2.54 1.596zm.241.66l-2.942.588.006.029.006.029 2.93-.646zm-4.297 9.95H80.8v-6h-1.764v6zm4.764-3v-3.237h-6v3.238h6zm-5.224-1.224c.18.198.376.386.59.56l3.776-4.663c.037.03.064.057.083.078l-4.45 4.025zm.59.56c.193.156.396.299.608.428l3.12-5.125c.017.01.033.022.048.034l-3.775 4.663zm.694.478c.412.233.847.402 1.294.511l1.425-5.828a.913.913 0 01.229.091l-2.949 5.226zm1.25.5c.472.123.941.173 1.391.173v-6c-.007 0 .04 0 .123.02l-1.515 5.807zm1.391.173c.854 0 1.732-.179 2.558-.618l-2.817-5.298a.806.806 0 01.192-.073c.052-.012.077-.011.067-.011v6zm2.558-.618a5.47 5.47 0 001.859-1.617l-4.847-3.536a.551.551 0 01.17-.144l2.818 5.297zm1.863-1.622c.472-.65.784-1.366.979-2.093l-5.797-1.55c-.034.128-.06.15-.037.117l4.855 3.526zm.971-2.066c.2-.719.287-1.455.287-2.192h-6c0 .262-.03.453-.069.59l5.782 1.602zm.287-2.192v-.133h-6v.133h6zm0-.133c0-.746-.085-1.494-.287-2.223l-5.781 1.603c.034.125.068.325.068.62h6zm-.277-2.19A6.234 6.234 0 0086.9 17.18l-4.824 3.569c-.014-.02-.016-.027-.01-.015.005.012.02.046.036.109l5.8-1.535zm-1.015-2.143a5.336 5.336 0 00-1.916-1.594l-2.656 5.38a.679.679 0 01-.228-.186l4.8-3.6zM85 15.583a5.518 5.518 0 00-2.51-.578v6c.024 0 .011.002-.029-.007a.739.739 0 01-.171-.063l2.71-5.353zm-2.51-.578a5.45 5.45 0 00-1.325.16l1.456 5.82a.577.577 0 01-.131.02v-6zm-1.276.148a5.077 5.077 0 00-1.223.453l2.8 5.306a.93.93 0 01-.218.085l-1.36-5.844zm-1.234.459c-.315.168-.61.368-.882.598l3.876 4.58a.974.974 0 01-.17.116l-2.824-5.294zm-.829.554a5.067 5.067 0 00-.745.744l4.651 3.79a.93.93 0 01-.136.134l-3.77-4.668zm4.567 2.357l-.063-.673-5.974.564.064.672 5.973-.563zm-3.05-3.391h-1.631v6h1.631v-6zm-4.631 3v9.509h6v-9.51h-6zm4.38 3.364v.133h6v-.133h-6zm0 .133c0 .105-.01.175-.018.218l5.883 1.177c.093-.465.134-.932.134-1.395h-6zm-.016.209a.865.865 0 01.1-.243l5.196 3.002a5.175 5.175 0 00.583-1.564l-5.88-1.195zm.1-.243a1.74 1.74 0 01.587-.6l3.159 5.102a4.26 4.26 0 001.45-1.5L80.5 21.595zm.56-.582c.401-.255.776-.302.972-.302v6c.695 0 1.493-.156 2.241-.631l-3.213-5.067zm.972-.302c.028 0 .12.003.256.035l-1.363 5.843c.39.09.765.122 1.107.122v-6zm.347.057c.109.03.27.086.45.197L79.71 26.09c.377.229.76.379 1.124.476l1.545-5.798zm.481.215c.134.084.256.186.362.303l-4.45 4.026c.267.294.571.549.908.76l3.18-5.089zm.415.363c.091.107.16.215.209.313l-5.367 2.683c.16.318.359.625.602.91l4.556-3.905zM83.8 23v-2.869h-6v2.87h6zm-.316-1.527c-.05.1-.13.227-.25.36l-4.449-4.025c-.281.31-.5.645-.668.982l5.367 2.683zm-.302.416a1.846 1.846 0 01-.458.35l-2.845-5.282a4.159 4.159 0 00-1.042.794l4.345 4.138zm-.493.369a1.732 1.732 0 01-.435.16l-1.257-5.867c-.356.076-.723.2-1.083.387l2.775 5.32zm-.336.136c-.157.04-.275.046-.334.046v-6c-.347 0-.727.035-1.121.133l1.455 5.821zm-.334.046c-.175 0-.533-.04-.927-.28l3.124-5.123a4.19 4.19 0 00-2.197-.598v6zm-.9-.264a1.706 1.706 0 01-.568-.55l5.081-3.192a4.294 4.294 0 00-1.444-1.414l-3.069 5.156zm-.61-.62a.955.955 0 01-.118-.278l5.884-1.176a5.092 5.092 0 00-.6-1.598l-5.166 3.052zm-.106-.22a.793.793 0 01.012.16h6c0-.478-.045-.965-.152-1.452l-5.86 1.291zm10.763 2.07l-2.55-1.578-.028.044-.027.046 2.605 1.489zm-.235.236l1.572 2.555.023-.014.022-.015-1.617-2.526zm-.425.165l.658 2.927.027-.006.026-.007-.711-2.914zm-1.155 0l-.629 2.933.007.002.007.001.615-2.936zm-.477-.184l1.555-2.566-.028-.017-.03-.017-1.496 2.6zm-.342-.318l-2.508 1.646.012.018.012.019 2.484-1.683zm-.153-.482l2.993-.204-.19-2.796h-2.803v3zm-1.682 0v-3h-3v3h3zm.203.838l-2.7 1.308.013.025.012.025L86.9 23.66zm.61.736l1.91-2.314-.011-.009-.012-.009-1.887 2.332zm.99.533l-.976 2.837.01.003.966-2.84zm2.647.051l.773 2.899.015-.004.015-.005-.803-2.89zm.977-.438l1.7 2.472.01-.006.008-.006-1.718-2.46zm.616-.66l-2.602-1.493-.004.007-.004.007 2.61 1.479zm0-1.695l-2.576 1.537.016.027.016.026 2.544-1.59zm-.603-.616l1.645-2.508-.014-.01-.015-.01-1.616 2.528zm-2.076-.666l.484-2.961-.023-.004-.024-.003-.437 2.968zm-.71-.146l-.91 2.858.03.01.03.009.85-2.877zm-.438-.197l1.687-2.48-.057-.04-.058-.035-1.572 2.555zm-.229-.229l-2.709 1.29.013.026.013.026 2.683-1.341zm.006-.57l-2.633-1.437-.012.022-.012.022 2.657 1.392zm.216-.242l1.765 2.426.018-.013.017-.013-1.8-2.4zm.394-.178l-.764-2.901.764 2.901zm1.212.032l-1.009 2.825.01.004.011.004.988-2.833zm.432.254l2.178-2.063-.028-.03-.029-.028-2.121 2.12zm.171.273l-2.809 1.053.008.02.008.02 2.793-1.093zm.057.317h-3v3h3v-3zm1.765 0v3h3v-3h-3zm-.813-1.587l1.813-2.39-.022-.017-.021-.016-1.77 2.423zm-.97-.457l-.863 2.874.015.004.015.004.832-2.882zm-3.447.464l1.825 2.38-1.825-2.38zm-.59 2.266l-2.59 1.514.01.018.011.018 2.568-1.55zm.558.59l1.772-2.42-.014-.01-.015-.011-1.743 2.441zm.85.444l-1.045 2.812.021.008.022.008 1.002-2.828zm1.105.299l-.588 2.941.018.004.02.004.55-2.95zm1.288.368l1.518-2.588-.053-.03-.053-.03-1.412 2.648zm.254.228l-2.596 1.504.029.05.03.048 2.537-1.602zm-2.923.28c0-.445.124-.896.366-1.287l5.102 3.158c.352-.57.532-1.215.532-1.871h-6zm.312-1.197c.239-.417.542-.668.753-.803l3.234 5.053c.423-.27.883-.678 1.223-1.273l-5.21-2.977zm.798-.831a1.86 1.86 0 01.298-.15c.07-.027.119-.04.138-.045l1.422 5.83c.37-.091.83-.244 1.286-.525l-3.144-5.11zm.488-.207c.055-.013.09-.016.097-.017h-.035v6c.385 0 .814-.03 1.255-.13l-1.317-5.853zm.062-.016a.28.28 0 01.056.006l-1.229 5.873c.389.081.781.12 1.173.12v-6zm.07.01c.113.023.273.076.45.183l-3.11 5.131c.457.277.935.452 1.403.552l1.257-5.867zm.392.149c.248.142.474.348.645.6l-4.968 3.365c.348.514.803.931 1.33 1.234l2.993-5.2zm.669.636c.234.358.316.71.332.96l-5.986.408c.043.621.225 1.296.638 1.924l5.016-3.292zm-2.66-1.836h-1.683v6h1.682v-6zm-4.683 3c0 .78.193 1.505.504 2.146l5.399-2.617c.04.083.097.248.097.47h-6zm.528 2.196a5.266 5.266 0 001.397 1.71l3.775-4.664c.025.02.107.096.178.238l-5.35 2.716zM85.6 26.71c.594.49 1.258.827 1.924 1.056l1.952-5.674c-.12-.041-.117-.06-.056-.01l-3.82 4.628zm1.933 1.06c.771.262 1.565.362 2.338.362v-6c-.26 0-.38-.034-.404-.043l-1.934 5.68zm2.338.362c.683 0 1.373-.073 2.049-.253l-1.546-5.798a2.004 2.004 0 01-.503.051v6zm2.079-.261a6.234 6.234 0 001.874-.857l-3.4-4.944c.053-.036.044-.015-.08.02l1.606 5.78zm1.892-.87a5.022 5.022 0 001.508-1.64l-5.22-2.958c.101-.178.219-.28.277-.32l3.435 4.919zm1.5-1.626c.416-.724.62-1.522.62-2.337h-6a1.342 1.342 0 01.176-.649l5.204 2.986zm.62-2.337c0-.79-.181-1.647-.678-2.441l-5.088 3.18a1.45 1.45 0 01-.234-.74h6zm-.645-2.388a4.898 4.898 0 00-1.535-1.587l-3.29 5.017a1.112 1.112 0 01-.328-.356l5.153-3.074zm-1.564-1.606a6.608 6.608 0 00-1.68-.754l-1.712 5.75c.141.043.181.072.16.059l3.232-5.055zm-1.68-.754a12.307 12.307 0 00-1.528-.346l-.967 5.922c.305.05.565.11.783.174l1.712-5.75zm-1.575-.353a4.09 4.09 0 01-.227-.04c-.054-.01-.075-.017-.07-.015l-1.7 5.754c.37.11.758.183 1.124.237l.873-5.936zm-.238-.037c-.007-.002.02.006.07.029.05.022.147.069.27.152l-3.374 4.962c.436.296.882.469 1.215.575l1.82-5.718zm.225.107c.198.122.6.418.882.985l-5.366 2.683a3.581 3.581 0 001.34 1.442l3.144-5.11zm.908 1.037c.155.327.228.674.228 1.004h-6c0 .533.114 1.07.355 1.575l5.417-2.58zm.228 1.004c0 .377-.092.76-.273 1.106l-5.315-2.784a3.606 3.606 0 00-.412 1.678h6zm-.297 1.15c-.18.33-.418.578-.653.75l-3.53-4.853a3.729 3.729 0 00-1.084 1.23l5.267 2.874zm-.618.723c-.288.216-.54.296-.643.323l-1.527-5.802c-.425.112-.939.31-1.43.679l3.6 4.8zm-.643.323c-.078.021-.136.03-.166.033-.032.003-.043.003-.032.003v-6c-.402 0-.858.038-1.329.162l1.527 5.802zm-.198.036c.004 0-.027 0-.084-.008a1.457 1.457 0 01-.278-.072l2.018-5.65a4.915 4.915 0 00-1.656-.27v6zm-.34-.072a1.902 1.902 0 01-.703-.458l4.243-4.242a4.112 4.112 0 00-1.565-.966l-1.976 5.666zm-.759-.516a2.198 2.198 0 01-.46-.737l5.618-2.107a3.804 3.804 0 00-.802-1.282l-4.356 4.126zm-.445-.697c-.11-.282-.149-.55-.149-.776h6c0-.453-.076-.933-.263-1.41l-5.588 2.186zm2.851 2.224h1.765v-6h-1.765v6zm4.765-3c0-.775-.175-1.543-.543-2.257l-5.333 2.75a1.106 1.106 0 01-.124-.493h6zm-.543-2.257a5.071 5.071 0 00-1.457-1.72l-3.625 4.781a.937.937 0 01-.25-.311l5.332-2.75zm-1.5-1.753a6.074 6.074 0 00-1.908-.916l-1.665 5.764c.054.016.08.028.083.03.004.001-.015-.008-.049-.032l3.539-4.846zm-1.879-.907a7.47 7.47 0 00-2.15-.298v6c.243 0 .375.03.426.045l1.724-5.747zm-2.15-.298c-.704 0-1.425.087-2.13.309l1.797 5.724a1.2 1.2 0 01.333-.033v-6zm-2.13.309c-.636.2-1.274.5-1.854.945l3.65 4.761a.428.428 0 01-.06.041c-.003.001.016-.008.06-.023l-1.796-5.724zm-1.854.945a5.06 5.06 0 00-1.415 1.666l5.313 2.787a.953.953 0 01-.247.308l-3.65-4.761zm-1.415 1.666a4.725 4.725 0 00-.547 2.206h6c0 .216-.056.422-.14.581l-5.313-2.787zm-.547 2.206c0 .757.176 1.55.608 2.29l5.179-3.03c.17.29.213.567.213.74h-6zm.629 2.325c.37.612.85 1.101 1.383 1.481l3.487-4.882c.059.042.168.137.266.3l-5.136 3.101zm1.355 1.46c.499.366 1.037.636 1.577.836l2.09-5.623c-.12-.045-.148-.072-.123-.053l-3.544 4.84zm1.62.852c.488.173.997.308 1.519.412l1.176-5.883a5.039 5.039 0 01-.69-.184l-2.005 5.655zm1.556.42c.266.05.429.089.514.113l1.648-5.77a11.82 11.82 0 00-1.06-.241l-1.102 5.898zm.514.113l.04.012a1.431 1.431 0 01-.126-.06l2.823-5.293a5.566 5.566 0 00-1.089-.428l-1.648 5.77zm-.192-.106a2.061 2.061 0 01-.334-.247 2.512 2.512 0 01-.49-.61l5.192-3.006a3.663 3.663 0 00-1.333-1.313L89.4 25.195zm-.765-.758a2.49 2.49 0 01-.387-1.322h6a3.51 3.51 0 00-.54-1.881l-5.073 3.203zm15.943 1.357v3h2.139l.697-2.023-2.836-.977zm3.459-10.036l2.836.977 1.371-3.977h-4.207v3zm-1.644 0v-3h-2.139l-.697 2.022 2.836.978zm-3.459 10.036l-2.837-.978-1.37 3.978h4.207v-3zm4.48.977l3.459-10.036-5.672-1.955-3.46 10.036 5.673 1.955zm.623-14.013h-1.644v6h1.644v-6zm-4.48 2.022l-3.46 10.036 5.673 1.955 3.459-10.036-5.672-1.955zm-.623 14.014h1.644v-6h-1.644v6zm7.433-4.702h-3v4.463l4.132-1.685-1.132-2.778zm5.713-2.33l1.132 2.779 1.868-.762v-2.016h-3zm0-1.44h3v-2.019l-1.87-.76-1.13 2.779zm-5.713-2.323l1.13-2.78-4.13-1.679v4.459h3zm0 1.707h-3v2.17l2.061.68.939-2.85zm3.643 1.2l.949-2.846-.011-.004-.938 2.85zm.381.127l.935 2.85 8.623-2.827-8.609-2.87-.949 2.847zm-.387.127l-.935-2.851-.009.003-.009.003.953 2.845zm-3.637 1.218l-.953-2.844-2.047.686v2.158h3zm1.132 4.492l5.713-2.33-2.265-5.555-5.713 2.33 2.265 5.555zm7.581-5.107v-1.441h-6v1.44h6zm-1.87-4.22l-5.713-2.323-2.26 5.557 5.712 2.324 2.261-5.558zm-9.843.456v1.707h6V18h-6zm2.061 4.557l3.644 1.2 1.876-5.7-3.643-1.2-1.877 5.7zm3.634 1.196l.38.127 1.898-5.692-.381-.127-1.897 5.692zm.394-5.57l-.387.127 1.87 5.701.387-.127-1.87-5.701zm-.405.133l-3.637 1.219 1.906 5.689 3.637-1.219-1.906-5.689zm-5.684 4.063v1.714h6v-1.714h-6z" fill="#fff"/><path d="M14.455 24.086v-1.72l-3.479-1.162-.432-.152.432-.159 3.479-1.18v-1.715l-5.618 2.33v1.428l5.618 2.33zm4.189.914h1.816l2.799-9.242H21.29l-1.574 6.03-.172.628-.158-.622-1.568-6.036H15.85L18.644 25zm10.448-2.412c0 .165-.034.317-.101.457a1 1 0 01-.292.349 1.43 1.43 0 01-.47.229 2.175 2.175 0 01-.628.082c-.267 0-.512-.03-.737-.089a1.504 1.504 0 01-.565-.28 1.272 1.272 0 01-.374-.488 1.893 1.893 0 01-.146-.717h-1.752c0 .478.09.895.273 1.25.186.356.438.665.755.927.335.267.726.47 1.175.61.452.135.91.203 1.37.203.47 0 .904-.055 1.302-.165.398-.115.74-.282 1.028-.502.288-.216.512-.48.673-.793.165-.318.248-.68.248-1.086 0-.47-.108-.884-.324-1.244a3.283 3.283 0 00-.87-.946 4.905 4.905 0 00-.793-.438 6.768 6.768 0 00-.908-.323 7.742 7.742 0 01-.8-.26 3.012 3.012 0 01-.596-.312 1.286 1.286 0 01-.381-.374.889.889 0 01-.127-.47c0-.165.032-.317.095-.457.068-.144.165-.269.292-.375.127-.101.281-.18.463-.234.186-.06.398-.09.635-.09.258 0 .483.037.673.109.195.067.357.163.489.285.127.127.222.277.285.451.068.174.106.364.115.571h1.739c0-.415-.08-.795-.241-1.142a2.708 2.708 0 00-.673-.902 3.122 3.122 0 00-1.035-.584 3.965 3.965 0 00-1.32-.21c-.466 0-.897.062-1.295.185a3.16 3.16 0 00-1.035.514c-.292.224-.52.495-.685.813-.165.317-.248.67-.248 1.06 0 .338.061.651.184.94.127.287.313.55.559.786.245.237.56.455.946.654.389.199.84.368 1.352.508.33.089.605.186.825.292.224.101.406.213.546.336a1.1 1.1 0 01.285.407c.06.143.09.298.09.463zm9.427-.483h-1.784c-.017.28-.064.519-.14.718a1.33 1.33 0 01-.31.488c-.132.128-.29.22-.477.28-.186.06-.396.089-.628.089-.174 0-.333-.02-.476-.057a1.304 1.304 0 01-.666-.476 1.925 1.925 0 01-.21-.394 3.452 3.452 0 01-.19-.755 7.715 7.715 0 01-.058-.99V19.75c0-.27.013-.522.038-.755.026-.237.066-.453.12-.647a2.5 2.5 0 01.286-.654 1.252 1.252 0 01.774-.571 1.67 1.67 0 01.394-.045c.263 0 .487.036.673.108.19.068.35.17.476.305.123.14.216.313.28.52.067.208.11.449.127.724h1.777a4.347 4.347 0 00-.305-1.301c-.16-.386-.38-.711-.66-.978a2.857 2.857 0 00-1.016-.616 3.925 3.925 0 00-1.352-.216c-.342 0-.664.045-.965.134a3.05 3.05 0 00-.818.368c-.28.19-.53.423-.75.698-.22.275-.397.588-.532.94-.119.287-.208.6-.267.94-.06.333-.089.687-.089 1.06v1.243c0 .398.032.775.095 1.13.068.356.163.681.286.978.127.296.281.567.463.812.186.246.398.455.635.629.258.186.548.33.87.431.326.098.679.146 1.06.146.482 0 .922-.07 1.32-.21.398-.143.74-.346 1.028-.608a2.89 2.89 0 00.686-.953c.173-.372.275-.791.305-1.256zm1.212-.603v.134c0 .503.072.969.216 1.396.144.423.355.792.634 1.105.276.313.614.558 1.016.736.406.174.868.26 1.384.26a3.43 3.43 0 001.371-.26c.402-.178.74-.423 1.016-.736.275-.313.484-.682.628-1.105.144-.427.216-.893.216-1.396v-.134c0-.499-.072-.96-.216-1.383a3.218 3.218 0 00-.628-1.111 2.946 2.946 0 00-1.022-.736 3.376 3.376 0 00-1.378-.267c-.516 0-.975.089-1.377.267a2.897 2.897 0 00-1.01.736c-.279.313-.49.683-.634 1.11a4.273 4.273 0 00-.216 1.384zm1.765.134v-.134c0-.279.027-.543.082-.793.055-.25.142-.47.26-.66.119-.19.271-.34.457-.45a1.3 1.3 0 01.673-.166c.267 0 .493.055.68.165.186.11.338.26.456.45.115.191.2.411.254.661.055.25.083.514.083.793v.134c0 .288-.028.558-.083.812-.055.25-.14.468-.253.654-.119.19-.271.34-.457.45-.187.11-.409.166-.667.166-.267 0-.495-.055-.686-.165a1.33 1.33 0 01-.457-.45 2.014 2.014 0 01-.26-.655 3.832 3.832 0 01-.082-.812zm6.1-.12v.132c0 .5.061.963.184 1.39.123.424.3.79.533 1.099.228.309.508.552.838.73.334.173.71.26 1.13.26.385 0 .723-.074 1.015-.222a2.33 2.33 0 00.762-.622l.089.717h1.593v-9.75h-1.77v3.498a2.219 2.219 0 00-.73-.546 2.146 2.146 0 00-.947-.197c-.427 0-.808.085-1.142.254-.33.17-.612.408-.844.717a3.35 3.35 0 00-.534 1.11 5.387 5.387 0 00-.177 1.43zm1.764.132v-.133c0-.288.026-.556.077-.806.05-.254.13-.476.24-.666.11-.187.252-.333.426-.438.178-.11.392-.166.641-.166.3 0 .55.066.75.197.198.127.357.307.475.54v2.78c-.118.229-.28.408-.482.54-.2.13-.45.196-.756.196-.25 0-.46-.052-.634-.158a1.242 1.242 0 01-.426-.438 2.023 2.023 0 01-.24-.641 4.396 4.396 0 01-.07-.807zm9.56 3.479c.664 0 1.24-.13 1.727-.387.486-.258.842-.546 1.066-.863l-.882-.953c-.204.263-.468.46-.794.59a2.678 2.678 0 01-1.01.197c-.245 0-.471-.038-.678-.114a1.759 1.759 0 01-.927-.774 2.484 2.484 0 01-.229-.667v-.019h4.66v-.749c0-.503-.07-.963-.21-1.377a2.998 2.998 0 00-.61-1.073c-.27-.296-.6-.525-.99-.686a3.325 3.325 0 00-1.32-.247c-.478 0-.92.087-1.326.26a3.12 3.12 0 00-1.054.73 3.327 3.327 0 00-.692 1.124c-.165.431-.248.91-.248 1.434v.254c0 .461.083.895.248 1.301.17.402.408.752.717 1.048.31.3.68.537 1.111.71.432.174.912.261 1.44.261zm-.21-5.694a1.5 1.5 0 01.59.108c.174.068.32.16.439.28a1.374 1.374 0 01.38.959v.139h-2.894a2.57 2.57 0 01.19-.61c.085-.182.191-.338.318-.47.123-.13.267-.23.432-.298.165-.072.347-.108.545-.108zm11.414-2.222v-1.453H62.67v1.453h2.812V25h1.79v-7.789h2.85zm1.548.92v1.442h1.955v3.992h-1.955V25h5.599v-1.435h-1.86v-5.433h-3.739zm1.829-1.758c0 .136.023.263.07.381a.936.936 0 00.527.489c.126.047.266.07.418.07.313 0 .56-.087.743-.26a.898.898 0 00.28-.68c0-.274-.094-.499-.28-.672-.182-.178-.43-.267-.743-.267a1.21 1.21 0 00-.419.07.992.992 0 00-.317.19.911.911 0 00-.28.68zm5.535 11.268H80.8v-3.238c.08.09.165.17.254.242.09.072.182.137.28.196.165.093.342.163.533.21.194.05.406.076.634.076a2.41 2.41 0 001.15-.267 2.47 2.47 0 00.844-.736c.224-.309.393-.677.507-1.104.119-.428.178-.891.178-1.39v-.134c0-.52-.06-.994-.178-1.422a3.24 3.24 0 00-.514-1.11 2.335 2.335 0 00-.844-.705 2.523 2.523 0 00-1.155-.254 2.456 2.456 0 00-1.098.254 2.021 2.021 0 00-.356.241 2.07 2.07 0 00-.304.305l-.064-.673h-1.631v9.509zm4.38-6.145v.133c0 .284-.026.553-.077.806-.05.25-.13.47-.24.66-.11.191-.255.341-.433.451-.173.11-.385.165-.634.165-.157 0-.299-.014-.426-.044a1.277 1.277 0 01-.336-.14 1.282 1.282 0 01-.273-.228A1.455 1.455 0 0180.8 23v-2.869c.06-.118.13-.222.21-.31a1.158 1.158 0 01.615-.337c.119-.03.25-.045.394-.045a1.198 1.198 0 011.073.59c.11.187.19.407.241.66.055.25.082.52.082.807zm7.833 1.619a.544.544 0 01-.083.292.691.691 0 01-.235.235c-.11.067-.252.122-.425.165-.17.038-.368.057-.597.057-.19 0-.376-.02-.558-.057a1.529 1.529 0 01-.477-.184 1.028 1.028 0 01-.342-.318.986.986 0 01-.153-.482h-1.682c0 .28.068.558.203.838.14.275.343.52.61.736.266.22.596.398.99.533a4.25 4.25 0 001.371.203c.47 0 .895-.05 1.276-.152.38-.106.707-.252.977-.438.267-.186.472-.406.616-.66.148-.258.222-.54.222-.844 0-.33-.074-.614-.222-.851a1.899 1.899 0 00-.603-.616 3.615 3.615 0 00-.92-.406 9.317 9.317 0 00-1.156-.26 5.311 5.311 0 01-.71-.146 1.718 1.718 0 01-.438-.197.59.59 0 01-.229-.229.656.656 0 01.006-.57.73.73 0 01.216-.242c.102-.076.233-.135.394-.178.16-.042.349-.063.565-.063.254 0 .47.032.647.095.182.063.326.148.432.254a.864.864 0 01.229.59h1.764c0-.317-.07-.611-.21-.882-.14-.27-.34-.506-.603-.705a3.082 3.082 0 00-.97-.457 4.48 4.48 0 00-1.29-.171c-.456 0-.867.057-1.23.171a2.972 2.972 0 00-.927.464 2.062 2.062 0 00-.584.679 1.725 1.725 0 00-.204.812c0 .292.066.55.197.775.136.224.322.42.559.59.237.174.52.322.85.444.335.119.703.218 1.105.299.317.059.58.118.787.177.207.06.374.123.501.19a.683.683 0 01.254.23c.051.08.077.173.077.279zm13.33 2.679l3.459-10.036h-1.644l-3.459 10.036h1.644zm5.789-1.702l5.713-2.33v-1.44l-5.713-2.323v1.707l3.643 1.2.381.127-.387.127-3.637 1.218v1.714z" fill="#471B52"/></svg>