<svg width="133" height="40" fill="none" xmlns="http://www.w3.org/2000/svg"><path d="M14.759 24.016l-1.532 3.695 5.532 2.294v-5.99h-4zm0-1.853h4v-2.881l-2.733-.913-1.267 3.794zm-3.746-1.25L9.68 24.683l.032.011.033.011 1.267-3.794zm-.465-.165l-1.38-3.754-10.421 3.83 10.47 3.696 1.33-3.772zm.465-.17l-1.286-3.789-.047.016-.048.018 1.38 3.754zm3.746-1.272l1.285 3.787 2.715-.92v-2.867h-4zm0-1.846h4v-5.99l-5.532 2.295 1.532 3.695zm-6.05 2.509l-1.532-3.695-2.468 1.023v2.672h4zm0 1.538h-4v2.671l2.468 1.024 1.532-3.695zm10.05 2.509v-1.853h-8v1.853h8zm-2.733-5.647l-3.746-1.25-2.534 7.587 3.746 1.251 2.534-7.588zm-3.682-1.229l-.465-.164-2.662 7.544.464.164 2.663-7.544zm-.416 7.362l.465-.17-2.76-7.51-.465.172 2.76 7.508zm.37-.137l3.746-1.272-2.57-7.575-3.747 1.271 2.571 7.576zm6.46-5.06V17.46h-8v1.846h8zm-5.531-5.54l-6.05 2.509 3.064 7.39 6.05-2.51-3.064-7.389zM4.709 19.97v1.538h8v-1.538h-8zm2.468 5.233l6.05 2.508 3.064-7.39-6.05-2.508-3.064 7.39zM19.27 25l-3.829 1.157.86 2.843h2.97v-4zm1.956 0v4h2.968l.86-2.84L21.226 25zm3.014-9.953l3.829 1.16 1.562-5.16h-5.39v4zm-2.119 0v-4h-3.09l-.78 2.99 3.87 1.01zm-1.695 6.494l3.859 1.052.006-.02.005-.022-3.87-1.01zm-.185.677l-3.876.988 3.747 14.688L24.1 23.27l-3.859-1.052zm-.17-.67l3.875-.989-.002-.008-.002-.009-3.872 1.006zm-1.69-6.501l3.872-1.006-.777-2.994h-3.094v4zm-2.118 0v-4h-5.388l1.559 5.157 3.829-1.157zM19.27 29h1.956v-8H19.27v8zm5.784-2.84l3.015-9.954-7.657-2.319-3.015 9.953 7.657 2.32zm-.814-15.113h-2.119v8h2.12v-8zm-5.99 2.99l-1.695 6.494 7.741 2.02 1.695-6.494-7.74-2.02zm-1.683 6.451l-.185.677L24.1 23.27l.185-.677-7.718-2.105zm7.55.741l-.17-.67-7.753 1.978.171.67 7.752-1.978zm-.175-.687l-1.689-6.5-7.743 2.01 1.689 6.501 7.743-2.01zm-5.56-9.495h-2.12v8h2.12v-8zm-5.948 5.157l3.008 9.953 7.657-2.314-3.007-9.953-7.658 2.314zm17.98 6.69l3.577 1.79.01-.022.011-.022-3.599-1.745zm-.315.377l-2.434-3.175 2.434 3.174zm-.506.246l-1.134-3.837-.012.004-.012.004 1.158 3.829zm-1.47-.007l-1.04 3.862.01.003.009.002 1.021-3.867zm-.608-.301l2.519-3.107-.02-.016-.02-.016-2.48 3.139zm-.56-1.299l3.997-.121-.117-3.879h-3.88v4zm-1.888 0v-4h-4v4h4zm.294 1.347l-3.56 1.822.008.017.009.017 3.543-1.856zm.814.998l-2.549 3.083.027.022.028.022 2.494-3.127zm1.264.656l-1.189 3.82.022.006.021.006 1.146-3.832zm2.878.041l1.067 3.855.019-.005.019-.005-1.105-3.845zm1.108-.54l-2.4-3.2-.015.011-.015.012 2.43 3.177zm.724-.854L28.6 21.712l-.004.01-.005.008 3.558 1.828zm-1.018-3.528l2.388-3.209-.064-.047-.065-.045-2.26 3.301zm-1.832-.82l1.078-3.852-.015-.004-.015-.004-1.048 3.86zm-.861-.28l-1.486 3.714.011.004.012.005 1.462-3.723zm-.643-.335l2.277-3.289-.03-.02-.028-.02-2.22 3.329zm-.41-.404l-3.421 2.074.023.037.023.037 3.375-2.148zm-.034-.998l-3.62-1.703-.01.024-.012.024 3.642 1.655zm.314-.403l-2.499-3.123-.031.024-.03.026 2.56 3.073zm.5-.253l1.157 3.829.027-.008.028-.01-1.213-3.81zm1.407.02L28.16 20.3l.05.02.05.017 1.313-3.778zm.527.308l2.828-2.828-.047-.047-.049-.046-2.732 2.921zm.307.486l-3.756 1.374.014.04.016.04 3.726-1.454zm.123.615l-3.996.163.156 3.837h3.84v-4zm1.873 0v4h4v-4h-4zm-.26-1.23l-3.629 1.681 3.63-1.682zm-.724-.971l2.647-3-.013-.01-.013-.012-2.621 3.022zm-1.114-.63l-1.325 3.775.012.004 1.313-3.778zm-2.817-.027l1.142 3.834.019-.006.018-.005-1.179-3.823zm-1.92 3.582l-3.68 1.57.01.022.01.023 3.66-1.615zm.601.848l-2.778 2.878 2.778-2.878zm1.018.704l-1.835 3.554.008.004.008.004 1.82-3.562zm1.457.547l-1.053 3.86.013.002 1.04-3.862zm.888.314l-1.733 3.605.041.02.042.02 1.65-3.645zm.588.363l2.736-2.918-.047-.044-.048-.043-2.64 3.005zm.308.437l-3.736 1.429.018.047.019.047 3.699-1.523zm-3.904.5c0-.388.083-.826.29-1.254l7.2 3.49c.353-.728.51-1.494.51-2.237h-8zm.312-1.297c.214-.428.513-.767.83-1.01l4.867 6.349a5.078 5.078 0 001.459-1.762l-7.156-3.577zm.83-1.01a2.48 2.48 0 01.794-.416l2.267 7.673a5.533 5.533 0 001.806-.908l-4.867-6.349zm.77-.408c.259-.078.436-.082.481-.082v8c.555 0 1.184-.064 1.834-.26l-2.315-7.658zm.481-.082c.008 0 .091 0 .229.036l-2.043 7.735c.62.164 1.232.229 1.814.229v-8zm.247.041c.233.063.551.196.87.455l-5.038 6.214c.657.533 1.381.866 2.088 1.056l2.08-7.725zm.83.423c.366.288.62.643.77.98l-7.304 3.264a5.369 5.369 0 001.577 2.035l4.957-6.28zm.77.98c.168.377.187.66.19.739l-7.997.242c.02.681.144 1.48.503 2.283l7.304-3.263zm-3.809-3.14h-1.887v8h1.887v-8zm-5.887 4c0 1.025.197 2.122.734 3.17l7.12-3.646c.146.282.146.482.146.476h-8zm.751 3.203a7.23 7.23 0 001.808 2.225l5.097-6.166a.81.81 0 01.181.229l-7.086 3.712zm1.863 2.27a7.828 7.828 0 002.57 1.347l2.377-7.638c-.03-.01-.036-.014-.025-.008.013.006.037.02.066.044l-4.988 6.254zm2.612 1.36c.85.255 1.729.387 2.623.387v-8c-.1 0-.205-.014-.33-.051l-2.293 7.664zm2.623.387c.817 0 1.648-.096 2.468-.323l-2.133-7.71c-.037.01-.14.033-.335.033v8zm2.506-.333a7.298 7.298 0 002.433-1.207l-4.86-6.355c.139-.107.235-.132.218-.127l2.209 7.689zm2.403-1.185a6.464 6.464 0 001.883-2.227L28.59 21.73c.11-.214.27-.395.434-.518l4.8 6.4zm1.873-2.209a6.491 6.491 0 00.718-3.014h-8c0-.117.028-.375.184-.677l7.098 3.691zm.718-3.014a6.55 6.55 0 00-.919-3.398l-6.86 4.116a1.633 1.633 0 01-.18-.425 1.188 1.188 0 01-.041-.293h8zm-.919-3.398a7.536 7.536 0 00-1.978-2.17l-4.776 6.418c.007.005-.006-.003-.029-.028a.652.652 0 01-.077-.104l6.86-4.116zm-2.107-2.262a9.294 9.294 0 00-1.5-.83l-3.228 7.32c.101.044.168.084.21.112l4.518-6.602zm-1.5-.83a11.274 11.274 0 00-1.513-.54l-2.157 7.703c.168.047.314.1.442.156l3.229-7.32zm-1.543-.55a4.378 4.378 0 01-.447-.142l-2.925 7.446c.415.163.844.3 1.276.417l2.096-7.72zm-.424-.133c-.016-.006-.01-.005.015.008.024.012.07.038.134.082l-4.554 6.578c.477.33.97.574 1.434.76l2.971-7.428zm.09.05c.196.13.49.375.746.778l-6.749 4.295a5.38 5.38 0 001.566 1.584l4.438-6.656zm.793.852c.311.515.442 1.071.442 1.568h-8c0 .87.222 1.764.716 2.579l6.842-4.147zm.442 1.568c0 .349-.07.755-.256 1.163l-7.283-3.31a5.175 5.175 0 00-.461 2.147h8zm-.278 1.21c-.186.395-.45.722-.744.967l-5.122-6.146a5.168 5.168 0 00-1.373 1.773l7.239 3.406zm-.806 1.017a2.54 2.54 0 01-.842.453l-2.316-7.658a5.463 5.463 0 00-1.84.959l4.998 6.246zm-.787.436a1.786 1.786 0 01-.53.092v-8c-.582 0-1.23.073-1.896.284l2.426 7.624zm-.53.092a2 2 0 01-.688-.142l2.827-7.483a6.034 6.034 0 00-2.138-.375v8zm-.589-.105a2.547 2.547 0 01-.892-.55l5.465-5.842a5.458 5.458 0 00-1.945-1.164l-2.628 7.556zm-.988-.642a2.683 2.683 0 01-.62-.97l7.513-2.748a5.318 5.318 0 00-1.236-1.94l-5.657 5.658zm-.59-.89a2.115 2.115 0 01-.147-.675l7.993-.326a5.895 5.895 0 00-.393-1.907l-7.453 2.909zm3.85 3.162h1.872v-8H30.53v8zm5.872-4c0-.978-.193-1.968-.63-2.913l-7.259 3.364a1.128 1.128 0 01-.11-.451h8zm-.63-2.913a6.917 6.917 0 00-1.707-2.288l-5.293 5.999a1.053 1.053 0 01-.259-.347l7.259-3.364zm-1.733-2.31a7.359 7.359 0 00-2.423-1.386l-2.625 7.557c.009.003-.078-.027-.194-.128l5.242-6.043zm-2.41-1.381a8.26 8.26 0 00-2.747-.452v8c.132 0 .15.019.097 0l2.65-7.548zm-2.747-.452c-.855 0-1.721.113-2.574.376l2.358 7.645c.005-.002.068-.02.216-.02v-8zm-2.537.365c-.837.25-1.66.64-2.409 1.215l4.874 6.344c-.12.092-.2.114-.18.108l-2.285-7.667zm-2.409 1.215a6.614 6.614 0 00-1.85 2.202l7.098 3.69c-.1.192-.24.349-.374.452l-4.874-6.344zm-1.85 2.202a6.434 6.434 0 00-.718 2.987h8c0 .165-.04.426-.184.704l-7.098-3.691zm-.718 2.987c0 .859.158 1.735.519 2.58l7.359-3.138c.096.226.122.428.122.558h-8zm.539 2.626a6.676 6.676 0 001.483 2.11l5.556-5.755c.077.075.19.213.28.416l-7.32 3.229zm1.483 2.11a8.27 8.27 0 001.961 1.381l3.671-7.108a1.21 1.21 0 01-.127-.073c-.012-.008.01.005.051.046l-5.556 5.755zm1.977 1.39c.71.362 1.46.635 2.223.843l2.105-7.718a3.66 3.66 0 01-.689-.25l-3.64 7.124zm2.236.846c.095.026.158.046.194.06.038.013.035.014.001-.002l3.466-7.21a9.149 9.149 0 00-1.581-.572l-2.08 7.724zm.278.096c-.009-.004-.178-.08-.402-.276l5.28-6.01a6.344 6.344 0 00-1.578-1.001l-3.3 7.287zm-.498-.363a2.826 2.826 0 01-.692-1.052l7.472-2.857a5.178 5.178 0 00-1.308-1.927l-5.472 5.836zm-.655-.958a2.703 2.703 0 01-.206-1.024h8c0-.668-.122-1.355-.396-2.022l-7.398 3.046zm13.946-1.543l3.992.254.27-4.254h-4.262v4zm-1.921 0v-4h-3.765l-.228 3.758 3.993.242zm-2.188 1.634l-1.16 3.828.068.02.069.018 1.023-3.866zm-.41-.206l2.381-3.214-.022-.016-.022-.016-2.337 3.246zm-.307-.307l-3.272 2.302.028.04.03.039 3.214-2.381zm-.226-.424l-3.724 1.46.005.013.005.013 3.714-1.486zm-.205-.813l-3.966.517.004.032.005.033 3.957-.582zm-.02-3.234l3.976.434v-.008l-3.976-.426zm.13-.697l-3.844-1.107-.003.01-.003.01 3.85 1.087zm.307-.704l-3.362-2.167-.007.01-.006.01 3.375 2.147zm.478-.472l-2.015-3.455-.005.003 2.02 3.452zm.356-.143l-.939-3.889-.015.004-.016.004.97 3.88zm1.148.068l-1.441 3.731.05.02.051.018 1.34-3.769zm.513.328l3.005-2.64-.043-.049-.044-.047-2.918 2.736zm.3.56l-3.824 1.172.01.035.013.035 3.802-1.241zm.138.78l-3.993.246.231 3.754h3.762v-4zm1.914 0v4h4.366l-.382-4.35-3.984.35zm-.328-1.401l-3.692 1.54 3.691-1.54zm-1.805-1.716l-1.374 3.757.013.004 1.36-3.761zm-2.495-.09l1.099 3.847.017-.005.018-.005-1.134-3.836zm-.882.397l-2.166-3.362-.044.028-.043.03 2.253 3.304zm-1.381 1.764l3.699 1.523.017-.042.016-.042-3.732-1.439zm-.287 1.012l3.939.698.001-.009-3.94-.69zm.007 3.698l-3.938.703.004.023.004.022 3.93-.748zm.307 1.053l-3.695 1.53.01.023.009.022 3.676-1.575zm.5.875l-3.214 2.382.013.018.014.017 3.186-2.417zm.683.677l-2.363 3.227.011.008.012.009L35 24.522zm.937.464l-1.205 3.815.03.01.03.008 1.145-3.833zm2.563-.068l1.325 3.774.018-.006.017-.006-1.36-3.762zm1.107-.656l2.695 2.956-2.695-2.956zm.739-1.026l-3.626-1.689-.008.017-.008.017 3.642 1.655zm.328-5.353h-1.921v8h1.92v-8zM34.76 21.64s0-.01.003-.027l.012-.077c.013-.067.04-.175.092-.312l7.471 2.86a6.59 6.59 0 00.408-1.96l-7.986-.484zm.107-.416a2.58 2.58 0 01.619-.918l5.563 5.749a5.428 5.428 0 001.289-1.97l-7.47-2.861zm.619-.918c.333-.322.71-.526 1.056-.636l2.426 7.623a5.284 5.284 0 002.081-1.238l-5.563-5.749zm1.056-.636c.258-.082.451-.093.536-.093v8c.586 0 1.23-.074 1.89-.284l-2.426-7.623zm.536-.093c.103 0 .282.011.511.072l-2.047 7.733c.539.143 1.06.195 1.536.195v-8zm.647.11c.277.085.556.22.811.41l-4.762 6.428a5.333 5.333 0 001.631.819l2.32-7.656zm.767.377c.25.18.437.379.57.558l-6.429 4.762c.315.425.707.828 1.185 1.173l4.675-6.493zm.627.637c.115.164.181.303.217.392l-7.428 2.972c.163.408.38.83.668 1.24l6.543-4.604zm.227.418a.92.92 0 01.035.105l-.007-.04-7.914 1.164c.079.538.212 1.115.438 1.691l7.448-2.92zm.037.13a4.399 4.399 0 01-.028-.55h-8c0 .529.027 1.062.096 1.584l7.932-1.035zm-.028-.55v-1.353h-8V20.7h8zm0-1.353c0-.169.009-.294.018-.38l-7.953-.868c-.045.415-.065.833-.065 1.248h8zm.019-.388a.828.828 0 01.008-.059l-.006.024-7.699-2.176c-.13.46-.21.918-.258 1.36l7.955.851zm-.004-.016c-.01.036-.051.163-.161.336l-6.75-4.295a6.689 6.689 0 00-.776 1.745l7.687 2.214zm-.174.356a2.576 2.576 0 01-.863.813l-4.041-6.904a5.428 5.428 0 00-1.82 1.757l6.724 4.334zm-.868.816a2.65 2.65 0 01-.69.282l-1.94-7.761c-.48.12-.953.307-1.401.569l4.031 6.91zm-.722.29c-.205.05-.381.064-.514.064v-8c-.434 0-.893.046-1.363.16l1.877 7.776zm-.514.064c-.064 0-.338-.007-.717-.153l2.883-7.462a5.994 5.994 0 00-2.166-.385v8zm-.616-.115a2.728 2.728 0 01-1.065-.705l5.836-5.472a5.273 5.273 0 00-2.09-1.36l-2.68 7.537zm-1.152-.8a2.51 2.51 0 01-.519-.91l7.65-2.341a5.497 5.497 0 00-1.121-2.03l-6.01 5.28zm-.496-.839a1.373 1.373 0 01-.05-.188c-.005-.034-.005-.045-.004-.028l7.985-.492a7.121 7.121 0 00-.327-1.775l-7.605 2.483zm3.939 3.538h1.914v-8h-1.914v8zm5.898-4.35a8.673 8.673 0 00-.621-2.593l-7.383 3.083c-.008-.02.02.036.035.21l7.97-.7zm-.621-2.593a7.065 7.065 0 00-1.64-2.405l-5.524 5.787a1.091 1.091 0 01-.15-.176.739.739 0 01-.069-.123l7.383-3.083zm-1.64-2.405a7.073 7.073 0 00-2.496-1.53l-2.72 7.522a.69.69 0 01-.12-.059 1.116 1.116 0 01-.188-.146l5.523-5.787zM39.92 11.38a8.213 8.213 0 00-2.83-.476v8c.175 0 .182.026.083-.01l2.747-7.514zm-2.83-.476c-.717 0-1.448.094-2.173.308l2.27 7.672c-.078.023-.117.02-.096.02v-8zm-2.137.298a7.284 7.284 0 00-1.949.88l4.332 6.725a.72.72 0 01-.185.087l-2.198-7.692zm-2.036.938a7.698 7.698 0 00-1.677 1.558l6.247 4.997-.017.017a.413.413 0 01-.047.037l-4.506-6.61zm-1.677 1.558c-.51.637-.9 1.337-1.183 2.071l7.464 2.878c.005-.013.006-.012 0-.001a.38.38 0 01-.034.05l-6.247-4.998zm-1.15 1.987a8.844 8.844 0 00-.528 1.845l7.88 1.38a.89.89 0 01.046-.179l-7.398-3.046zm-.527 1.837a10.537 10.537 0 00-.157 1.84h8c0-.19.015-.336.035-.444l-7.878-1.396zm-.157 1.84v1.34h8v-1.34h-8zm0 1.34c0 .64.051 1.282.165 1.92l7.875-1.407a2.932 2.932 0 01-.04-.514h-8zm.173 1.964c.118.618.293 1.235.542 1.836l7.39-3.062a1.43 1.43 0 01-.073-.27l-7.859 1.496zm.56 1.88a8.32 8.32 0 00.963 1.682l6.427-4.765a.345.345 0 01-.036-.068l-7.353 3.151zm.99 1.717c.423.558.924 1.06 1.507 1.487l4.726-6.455a.696.696 0 01.14.133l-6.373 4.835zm1.53 1.504a7.272 7.272 0 002.072 1.035l2.409-7.629a.74.74 0 01.199.105l-4.68 6.489zm2.132 1.053a7.967 7.967 0 002.286.325v-8c-.035 0-.05-.003-.047-.002.002 0 .02.003.05.012l-2.29 7.665zm2.286.325a8.26 8.26 0 002.747-.452l-2.65-7.548c.054-.02.036 0-.097 0v8zm2.782-.464a7.274 7.274 0 002.442-1.462l-5.39-5.912a.907.907 0 01.147-.11.506.506 0 01.08-.04l2.721 7.524zm2.442-1.462a7.11 7.11 0 001.685-2.326l-7.283-3.31a.978.978 0 01.208-.275l5.39 5.91zm1.67-2.292c.423-.91.634-1.857.694-2.79l-7.984-.507c-.003.037-.006.044-.002.026a.594.594 0 01.04-.108l7.252 3.379zm-1.76-2.045l-3.791 1.276.004.012 3.787-1.288zm.683 1.19l3.006-2.64-.01-.012-.01-.011-2.986 2.662zm1.094.792l-1.617 3.659.023.01.023.01 1.571-3.679zm2.967 0l1.585 3.673.016-.007.017-.007-1.618-3.659zm1.094-.793l3.005 2.64-3.005-2.64zm.677-1.19l3.787 1.289.003-.012-3.79-1.276zm0-3.137l-3.791 1.276.004.012 3.787-1.288zm-.677-1.196l3.005-2.64-.01-.011-.01-.012-2.985 2.663zm-4.068-.793l-1.617-3.659-.007.004-.007.003 1.631 3.652zm-1.087.793l2.986 2.662.01-.011.01-.011-3.006-2.64zm-.683 1.196l3.787 1.288.004-.012-3.791-1.276zm2.53-.56l-2.036-3.444 2.035 3.444zm1.948.485l3.43-2.058-.017-.028-.017-.027-3.396 2.113zm.273 2.584l3.906.86.003-.013-3.91-.847zm-.273.704l3.396 2.113.006-.01.007-.01-3.41-2.093zm-1.949.485l-2.035 3.444.017.01.017.01 2.001-3.464zm-.492-.485l3.396-2.113-.01-.017-.011-.017-3.375 2.147zm-.28-.704l-3.91.847.004.014 3.906-.861zm-5.99-1.019v.144h8v-.144h-8zm0 .144c0 .926.133 1.864.442 2.78l7.582-2.552a.765.765 0 01-.023-.228h-8zm.446 2.792c.316.929.805 1.801 1.485 2.564l5.97-5.325a.722.722 0 01.119.185l-7.574 2.576zm1.465 2.541a7.104 7.104 0 002.482 1.812l3.235-7.317a.746.746 0 01.132.078c.058.042.113.092.162.147l-6.01 5.28zm2.528 1.832a7.752 7.752 0 003.062.602v-8c-.055 0-.069-.005-.05-.002a.66.66 0 01.13.043l-3.142 7.357zm3.062.602c1.005 0 2.05-.172 3.061-.608l-3.17-7.345c.07-.03.121-.043.145-.047.023-.005.014 0-.036 0v8zm3.094-.622a7.104 7.104 0 002.481-1.812l-6.01-5.28c.048-.055.104-.105.161-.147a.746.746 0 01.133-.078l3.235 7.317zm2.481-1.812a7.474 7.474 0 001.459-2.541l-7.575-2.576c0 .002.007-.018.026-.051a.69.69 0 01.08-.112l6.01 5.28zm1.462-2.553a8.682 8.682 0 00.442-2.78h-8a.765.765 0 01-.023.228l7.581 2.552zm.442-2.78v-.144h-8v.144h8zm0-.144c0-.925-.134-1.861-.445-2.777l-7.575 2.575a.203.203 0 01.01.043c.005.03.01.083.01.16h8zm-.442-2.766a7.462 7.462 0 00-1.462-2.56l-6.01 5.28a.718.718 0 01-.085-.119c-.02-.034-.026-.053-.024-.049l7.581-2.552zm-1.482-2.583a7.17 7.17 0 00-2.468-1.789l-3.235 7.317a.913.913 0 01-.267-.203l5.97-5.325zm-2.468-1.789c-1.024-.452-2.084-.628-3.101-.628v8c.049 0 .055.004.028-.001a.777.777 0 01-.162-.054l3.235-7.316zm-3.101-.628c-1.017 0-2.078.176-3.101.628l3.235 7.317a.779.779 0 01-.162.054c-.028.005-.021 0 .028 0v-8zm-3.115.635a7.118 7.118 0 00-2.46 1.805l6.01 5.28a.956.956 0 01-.287.219l-3.263-7.304zm-2.44 1.782a7.403 7.403 0 00-1.49 2.583l7.582 2.552a.758.758 0 01-.122.19l-5.97-5.325zm-1.486 2.572a8.597 8.597 0 00-.445 2.777h8a1.052 1.052 0 01.016-.192l.003-.01-7.574-2.575zm9.455 2.921v-.144h-8v.144h8zm0-.144v-.025a.268.268 0 01-.005.032l-7.813-1.722a7.957 7.957 0 00-.182 1.715h8zm-.005.007a1.764 1.764 0 01-.23.541l-6.792-4.226a6.244 6.244 0 00-.79 1.963l7.812 1.722zm-.23.541c-.2.32-.494.624-.869.845l-4.07-6.887a5.431 5.431 0 00-1.853 1.816l6.792 4.226zm-.869.845a2.617 2.617 0 01-1.31.379v-8c-.846 0-1.824.18-2.76.734l4.07 6.887zm-1.31.379c-.263 0-.76-.057-1.304-.379l4.07-6.887a5.405 5.405 0 00-2.766-.734v8zm-1.304-.379a2.57 2.57 0 01-.869-.845l6.793-4.226a5.431 5.431 0 00-1.854-1.816l-4.07 6.887zm-.902-.9a1.666 1.666 0 01-.203-.486l7.812-1.722a6.353 6.353 0 00-.75-1.908l-6.86 4.116zm-.203-.486c-.005-.02-.006-.03-.006-.032v.025h8c0-.564-.055-1.139-.182-1.715l-7.812 1.722zm-.005-.007v.144h8v-.144h-8zm0 .144c0 .055-.005.06.002.028l7.818 1.694c.126-.58.18-1.157.18-1.722h-8zm.005.014c.02-.094.077-.29.223-.527l6.819 4.184a6.263 6.263 0 00.77-1.935l-7.812-1.722zm.236-.548c.2-.32.495-.624.87-.845l4.07 6.887a5.432 5.432 0 001.853-1.816l-6.793-4.226zm.87-.845a2.63 2.63 0 011.317-.379v8a5.38 5.38 0 002.752-.734l-4.07-6.887zm1.317-.379c.266 0 .742.058 1.262.359l-4.002 6.927c.93.537 1.899.714 2.74.714v-8zm1.296.379c.375.221.67.524.87.845l-6.793 4.226a5.432 5.432 0 001.853 1.816l4.07-6.887zm.848.81c.16.252.225.466.251.583l-7.813 1.722c.145.654.397 1.338.812 1.99l6.75-4.294zm.254.597c.007.033.002.027.002-.028h-8c0 .565.054 1.142.18 1.722l7.818-1.694zm2.77 1.483l-3.845 1.104.003.01 3.842-1.114zm.574 1.182l3.215-2.378-.01-.015-.01-.014-3.195 2.407zm.902.786l-1.896 3.522.026.015.027.014 1.843-3.55zm3.13-.629l3.97-.491-1.157-9.34-5.921 7.315 3.109 2.517zm.097.773l-3.97.492.435 3.508h3.535v-4zm1.715 0v4h4v-4h-4zm0-10.5h4v-4h-4v4zm-1.907 0v-4h-4v4h4zm0 3.767l-2.984 2.664 6.984 7.822V18.267h-4zm-.786-.588l-1.744 3.6.034.016.034.015 1.676-3.631zm-2.249.061l-1.807-3.568-.01.004-.008.005 1.825 3.56zm-.91.773l-3.194-2.407 3.195 2.407zm-.573 1.196l-3.848-1.094-.005.018-.005.017 3.858 1.059zm1.79.67l3.92.797.003-.013-3.922-.784zm.26-.718l-3.443-2.035-.01.017-.01.017 3.463 2.001zm.458-.472l2.083 3.416.011-.007.012-.008-2.106-3.4zm1.498.035l-2.203 3.339.025.016.025.016 2.153-3.371zm.512.58h4v-.959l-.435-.855-3.565 1.815zm0 2.995l3.551 1.841.45-.866V22.8h-4zm-.52.58l-2.17-3.36-.016.011-.016.01 2.203 3.34zm-1.496.042l-2.083 3.415 2.083-3.415zm-.458-.472l3.443-2.035-.01-.017-.01-.017-3.423 2.07zm-.26-.69l-3.932.733.007.039.008.038 3.917-.81zm-5.976-1.012v.144h8v-.144h-8zm0 .144a9.4 9.4 0 00.354 2.6l7.69-2.207a1.45 1.45 0 01-.044-.393h-8zm.357 2.61c.249.859.64 1.705 1.22 2.476l6.39-4.814a.72.72 0 01.072.115c.011.023.01.024.001-.004l-7.683 2.228zm1.2 2.448a6.709 6.709 0 002.222 1.93l3.792-7.044c.177.095.322.228.417.357l-6.431 4.757zm2.275 1.958c.991.514 2.04.73 3.06.73v-8c.117 0 .355.029.626.17l-3.686 7.1zm3.06.73a6.38 6.38 0 002.903-.672l-3.619-7.135a1.65 1.65 0 01.716-.193v8zm2.903-.672a6.508 6.508 0 002.12-1.72l-6.218-5.034c.105-.13.267-.273.48-.38l3.618 7.134zm-4.959-3.746l.096.773 7.94-.984-.096-.772-7.94.983zM55.351 29h1.715v-8h-1.715v8zm5.715-4V14.5h-8V25h8zm-4-14.5H55.16v8h1.907v-8zm-5.907 4v3.767h8V14.5h-8zm6.984 1.102a6.39 6.39 0 00-2.094-1.555l-3.352 7.264a1.614 1.614 0 01-.522-.38l5.968-5.329zm-2.026-1.523a6.302 6.302 0 00-2.762-.612v8c-.1 0-.378-.02-.726-.188l3.488-7.2zm-2.762-.612c-1 0-2.044.201-3.038.705l3.614 7.137a1.35 1.35 0 01-.576.158v-8zm-3.056.714a6.632 6.632 0 00-2.279 1.925l6.39 4.814a1.371 1.371 0 01-.46.38l-3.651-7.119zm-2.279 1.925a7.596 7.596 0 00-1.227 2.51l7.695 2.187c.019-.066.011-.002-.078.117l-6.39-4.814zm-1.237 2.544a9.792 9.792 0 00-.334 2.597h8c0-.26.03-.41.049-.48l-7.715-2.117zm9.567 2.74v-.143h-8v.144h8zm0-.143c0-.076.006-.096.001-.07l-7.84-1.595a8.348 8.348 0 00-.161 1.665h8zm.004-.084c-.016.08-.065.266-.2.5l-6.926-4.003a6.34 6.34 0 00-.719 1.934l7.845 1.57zm-.219.533c-.193.327-.494.66-.903.909l-4.165-6.83a5.336 5.336 0 00-1.82 1.851l6.888 4.07zm-.88.894a2.727 2.727 0 01-1.415.422v-8a5.28 5.28 0 00-2.796.776l4.21 6.802zm-1.415.422c-.256 0-.805-.06-1.396-.45l4.405-6.678c-1.02-.672-2.106-.872-3.01-.872v8zm-1.346-.417c-.45-.287-.739-.66-.9-.976l7.13-3.629a5.45 5.45 0 00-1.925-2.138l-4.305 6.743zm-1.335-2.79v2.994h8v-2.994h-8zm.45 1.153c.17-.33.457-.677.86-.938l4.34 6.72a5.493 5.493 0 001.901-2.1l-7.102-3.682zm.828-.917c.6-.396 1.151-.45 1.39-.45v8c.894 0 1.987-.194 3.015-.872l-4.405-6.678zm1.39-.45c.297 0 .828.067 1.398.415l-4.165 6.83c.944.575 1.93.756 2.766.756v-8zm1.398.415c.41.25.71.581.903.908l-6.887 4.07a5.337 5.337 0 001.82 1.852l4.164-6.83zm.883.873c.154.256.213.466.234.57l-7.834 1.62a6.17 6.17 0 00.754 1.95l6.846-4.14zm.249.647c0 .002-.007-.04-.007-.135h-8c0 .524.042 1.06.143 1.6l7.864-1.465zm8.147 3.194l1.874 3.533-1.874-3.533zm1.148-.93l3.267 2.309 1.872-2.649-2.205-2.379-2.934 2.719zm-.95-1.025l2.934-2.72-3.208-3.46-2.889 3.731 3.163 2.449zm-3.267.376l2.622-3.02-.006-.006-2.616 3.026zm-.404-.486l-3.505 1.928.01.019.011.019 3.484-1.966zm-.246-.718h-4v.426l.09.417 3.91-.843zm0-.02v-4h-4v4h4zm5.018 0v4h4v-4h-4zm-.226-2.29l-3.795 1.265.004.012 3.791-1.277zm-.656-1.155l2.973-2.676-.01-.012-.011-.011-2.952 2.699zm-1.067-.739L62.28 21.41l.024.01.025.01 1.526-3.697zm-3.985.8l-2.906-2.749 2.906 2.75zm-.745 1.21l3.736 1.429.005-.012-3.741-1.417zm0 3.22l-3.706 1.505.01.024.01.023 3.686-1.552zm.773 1.128l2.788-2.868-.01-.01-.01-.01-2.768 2.888zm3.158-4.97l-1.565 3.681.055.024.055.021 1.455-3.726zm.471.3l2.878-2.777-.024-.026-.025-.025-2.829 2.829zm.41 1.184v4h4v-4h-4zm-3.117 0l-3.93-.742-.895 4.742h4.825v-4zm.547-1.163l2.875 2.782.023-.024.023-.025-2.92-2.733zm.465-.32l1.518 3.7.04-.017.04-.017-1.598-3.667zm.813 10.015c1.236 0 2.525-.242 3.734-.884l-3.748-7.067a.742.742 0 01.14-.057c.012-.002-.026.008-.126.008v8zm3.734-.884c.862-.456 1.819-1.133 2.541-2.154l-6.533-4.617c.124-.177.236-.276.281-.312.044-.036.042-.026-.038.016l3.75 7.067zm2.208-7.182l-.95-1.025-5.868 5.438.95 1.025 5.868-5.438zm-7.047-.755c.242-.312.547-.518.815-.626l2.987 7.421a6.001 6.001 0 002.524-1.898l-6.326-4.897zm.815-.626c.118-.048.262-.078.407-.078v8c.892 0 1.76-.171 2.58-.501l-2.987-7.421zm.407-.078c.154 0 .383.025.648.123l-2.759 7.509a6.101 6.101 0 002.11.368v-8zm.648.123c.215.079.441.206.648.386l-5.245 6.04c.553.48 1.176.84 1.838 1.083l2.759-7.51zm.642.38c.147.127.319.317.464.575l-6.968 3.93a5.834 5.834 0 001.271 1.546l5.233-6.05zm.485.613c.082.148.124.26.142.314.02.055.023.076.017.053l-7.82 1.685c.112.519.3 1.164.651 1.803l7.01-3.855zm.25 1.21v-.021h-8v.02h8zm-4 3.979h5.017v-8h-5.018v8zm9.017-4v-.807h-8v.807h8zm0-.807a8.62 8.62 0 00-.435-2.76l-7.582 2.553c-.007-.021.017.035.017.207h8zm-.431-2.748a7.225 7.225 0 00-1.478-2.566l-5.946 5.352a.997.997 0 01-.126-.173.522.522 0 01-.04-.083l7.59-2.53zm-1.499-2.59a6.946 6.946 0 00-2.492-1.736l-3.053 7.394a.915.915 0 01-.17-.093 1.135 1.135 0 01-.19-.166l5.905-5.398zm-2.443-1.715a7.571 7.571 0 00-2.997-.59v8c.088 0 .011.014-.154-.057l3.151-7.353zm-2.997-.59c-1.01 0-2.026.186-3 .601l3.142 7.358a.597.597 0 01-.116.036c-.03.006-.041.005-.026.005v-8zm-3 .601a7.359 7.359 0 00-2.47 1.716l5.812 5.498a.673.673 0 01-.2.144l-3.142-7.357zm-2.47 1.716a7.583 7.583 0 00-1.58 2.543l7.482 2.833c.004-.012.001 0-.015.026a.603.603 0 01-.075.096l-5.812-5.498zm-1.575 2.53a8.288 8.288 0 00-.53 2.974h8c0-.073.005-.114.008-.13.002-.015.002-.008-.006.014l-7.472-2.857zm-.53 2.974v.273h8v-.273h-8zm0 .273c0 .986.178 1.967.56 2.907l7.412-3.01a.43.43 0 01.024.079c.004.023.003.033.003.024h-8zm.58 2.954a7.34 7.34 0 001.69 2.463l5.537-5.774a.684.684 0 01.146.207l-7.373 3.104zm1.67 2.443a7.639 7.639 0 002.493 1.61l2.984-7.423c-.014-.006-.006-.004.016.01a.547.547 0 01.084.068l-5.577 5.735zm2.493 1.61c1 .402 2.032.569 3.044.569v-8a.626.626 0 01-.105-.007c-.004 0 .013.002.045.015L59.6 28.568zm2.818-5.563c-.181 0-.52-.029-.929-.203l3.13-7.362a5.607 5.607 0 00-2.201-.435v8zm-.819-.158a2.653 2.653 0 01-.902-.597l5.657-5.657a5.35 5.35 0 00-1.846-1.198L61.6 22.847zm-.951-.647a2.542 2.542 0 01-.523-.795l7.402-3.037a5.458 5.458 0 00-1.124-1.724L60.649 22.2zm-.523-.795a2.52 2.52 0 01-.19-.95h8a5.48 5.48 0 00-.408-2.086l-7.402 3.036zm-.19-.95v.15h8v-.15h-8zm4-3.85H60.82v8h3.117v-8zm.814 4.741a1.266 1.266 0 01-.099.29l-7.253-3.375a6.76 6.76 0 00-.51 1.602l7.862 1.483zm-.099.29a2.18 2.18 0 01-.41.588l-5.75-5.563a5.825 5.825 0 00-1.093 1.6l7.253 3.374zm-.364.539c-.257.275-.58.5-.938.647l-3.036-7.402a5.312 5.312 0 00-1.868 1.29l5.842 5.465zm-.858.613a2.55 2.55 0 01-1.01.217v-8c-.706 0-1.454.13-2.186.45l3.196 7.333zm11.281-6.176v4h4v-4h-4zm0-1.565h4v-4h-4v4zm-8.025 0v-4h-4v4h4zm0 1.565h-4v4h4v-4zm3.028 0h4v-4h-4v4zm0 8.388h-4v4h4v-4zm1.928 0v4h4v-4h-4zm0-8.388v-4h-4v4h4zm7.069 0v-1.565h-8v1.565h8zm-4-5.565h-8.025v8h8.025v-8zm-12.025 4v1.565h8v-1.565h-8zm4 5.565h3.028v-8h-3.028v8zm-.972-4V25h8v-8.388h-8zm4 12.388h1.928v-8h-1.928v8zm5.928-4v-8.388h-8V25h8zm-4-4.388h3.069v-8h-3.07v8zm4.737-3.008v-4h-4v4h4zm0 1.551h-4v4h4v-4zm2.105 0h4v-4h-4v4zm0 4.3v4h4v-4h-4zm-2.105 0v-4h-4v4h4zm0 1.545h-4v4h4v-4zm6.03 0v4h4v-4h-4zm0-1.545h4v-4h-4v4zm-2.004 0h-4v4h4v-4zm0-5.851h4v-4h-4v4zm-1.982-1.484l-3.723 1.463.032.081.036.08 3.655-1.624zm.225.315l2.76-2.897-.038-.035-.038-.035-2.684 2.967zm.342.212l-1.418 3.74.02.007.021.008 1.377-3.756zm1.251-.206L83 19.336l.002-.001-2.762-2.894zm0-1.456l-2.795 2.862.034.033.034.032 2.727-2.927zm-1.25-.212l-1.378-3.755-.02.008-.021.007 1.418 3.74zm-.343.206l-2.683-2.967-.038.035-.037.035 2.758 2.896zm-.225.328l-3.677-1.576-.014.033-.013.034 3.704 1.509zm-6.044 2.296v1.552h8v-1.552h-8zm4 5.552h2.105v-8h-2.105v8zm-1.895-4v4.3h8v-4.3h-8zm4 .3h-2.105v8h2.105v-8zm-6.105 4V25h8v-1.545h-8zm4 5.545h6.03v-8h-6.03v8zm10.03-4v-1.545h-8V25h8zm-4-5.545h-2.004v8h2.003v-8zm1.996 4v-5.851h-8v5.851h8zm-4-9.851h-4.026v8h4.026v-8zm-6.057 2.106c0 .614.107 1.25.352 1.873l7.446-2.925c.144.367.202.73.202 1.052h-8zm.42 2.035c.271.61.67 1.178 1.197 1.656l5.367-5.933c.336.305.584.663.746 1.028l-7.31 3.249zm1.122 1.586c.508.484 1.086.83 1.682 1.056l2.837-7.48c.331.125.681.33.998.631l-5.517 5.793zm1.723 1.071c.63.231 1.254.32 1.828.32v-8c.247 0 .57.038.926.169l-2.754 7.511zm1.828.32c1.1 0 2.449-.326 3.56-1.386l-5.52-5.79a2.908 2.908 0 011.96-.824v8zm3.562-1.387a4.965 4.965 0 001.539-3.625h-8c0-.31.054-.7.225-1.116.174-.423.429-.775.712-1.046l5.524 5.787zm1.539-3.625c0-1.306-.49-2.642-1.574-3.651l-5.454 5.853a3.085 3.085 0 01-.742-1.072 2.962 2.962 0 01-.23-1.13h8zm-1.506-3.586c-1.108-1.082-2.468-1.426-3.595-1.426v8c-.452 0-1.279-.152-1.995-.851l5.59-5.723zm-3.595-1.426c-.575 0-1.198.089-1.828.32l2.754 7.51c-.356.132-.679.17-.926.17v-8zm-1.87.335a5.065 5.065 0 00-1.606.98l5.367 5.932a2.936 2.936 0 01-.923.568l-2.837-7.48zm-1.681 1.049a4.98 4.98 0 00-1.144 1.649l7.353 3.151a3.022 3.022 0 01-.692.993l-5.517-5.793zm-1.171 1.715c-.264.647-.371 1.3-.371 1.913h8c0 .32-.057.705-.22 1.106l-7.41-3.018zm9.59 14.047h-4v4h4v-4zm1.9 0v4h4v-4h-4zm0-3.487l2.966-2.683-6.966-7.7v10.383h4zm.574.472l-2.08 3.417.057.034.058.033 1.965-3.484zm.574.226l1.01-3.87-.03-.009-.03-.007-.95 3.886zm2.83-.998l3.232 2.358.005-.008-3.237-2.35zm.547-1.19L86.88 21.8l-.005.017-.005.018 3.864 1.033zm0-3.172l-3.866 1.024.005.022.007.023 3.854-1.069zM90.18 18.5l3.215-2.379-.007-.01-.008-.011-3.2 2.4zm-.91-.759l-1.806 3.569.018.009.018.009 1.77-3.587zm-1.886-.198l.906 3.896.032-.007.032-.008-.97-3.881zm-.54.198l-1.867-3.537-.008.004-.008.004 1.883 3.53zm-.383.26l2.513 3.112.036-.029.035-.03L86.46 18zm-.328.328l-3.983.376.917 9.719 6.167-7.568-3.101-2.527zm-.069-.724l3.983-.376-.342-3.625h-3.64v4zm-1.756 0v-4h-4v4h4zm4.634 4.634l3.92.797.003-.012-3.923-.785zm-.724 1.197l-2.106-3.401-.018.01-.018.012 2.142 3.379zm-1.142.13l-1.03 3.864.06.017.061.014.91-3.896zm-.362-.15l-2.12 3.391.02.013.02.012 2.08-3.417zm-.294-.247l-3.037 2.603.035.04.036.04 2.966-2.683zm-.212-.321h-4v.944l.422.845 3.578-1.79zm0-3.09l-3.578-1.789-.422.845v.944h4zm.226-.335l-2.897-2.759-.035.037-.034.038 2.966 2.684zm.314-.24l-1.85-3.546-.023.012-.023.013 1.896 3.522zm.349-.122l.838 3.91.066-.013.066-.017-.97-3.88zm1.107.123l-2.082 3.415.018.01.018.012 2.046-3.437zm.472.465l3.444-2.035-.028-.047-.029-.046-3.387 2.128zm.26.71l-3.923.785.008.038.008.038 3.907-.86zm-4.628 11.486h1.9v-8h-1.9v8zm5.9-4v-3.487h-8v3.487h8zm-6.966-.803c.218.242.459.472.723.685l5.033-6.218c.073.059.13.116.176.166l-5.932 5.367zm.723.685c.233.19.48.363.737.52l4.16-6.834c.048.03.094.062.136.096l-5.033 6.218zm.852.587a6.251 6.251 0 001.59.627l1.9-7.77c.137.033.289.09.44.175l-3.93 6.968zm1.53.612c.58.152 1.152.212 1.693.212v-8c.05 0 .165.005.326.047l-2.02 7.741zm1.693.212a6.59 6.59 0 003.115-.756L87.4 21.319c.294-.157.543-.181.64-.181v8zm3.115-.756a6.66 6.66 0 002.263-1.966l-6.463-4.716a1.361 1.361 0 01.444-.381l3.756 7.064zm2.268-1.974a7.568 7.568 0 001.175-2.507l-7.729-2.066c-.016.06-.008-.006.08-.127l6.474 4.7zm1.165-2.471a9.582 9.582 0 00.337-2.566h-8c0 .221-.026.357-.046.429l7.709 2.137zm.337-2.566v-.143h-8v.143h8zm0-.143c0-.861-.098-1.738-.337-2.6l-7.71 2.137c.017.058.047.202.047.463h8zm-.325-2.555a7.483 7.483 0 00-1.204-2.552l-6.432 4.758c-.1-.134-.112-.213-.097-.16l7.733-2.046zm-1.22-2.573a6.515 6.515 0 00-2.339-1.946L87.5 21.328a1.486 1.486 0 01-.52-.428l6.4-4.8zm-2.303-1.927a6.71 6.71 0 00-3.05-.705v8c-.057 0-.278-.014-.563-.158l3.613-7.137zm-3.05-.705a6.64 6.64 0 00-1.613.194l1.94 7.762a1.373 1.373 0 01-.328.044v-8zm-1.55.179a6.235 6.235 0 00-1.5.557l3.734 7.075c-.164.086-.31.134-.421.16l-1.812-7.792zm-1.516.565c-.387.206-.75.453-1.084.736l5.168 6.107a1.816 1.816 0 01-.319.216l-3.765-7.06zm-1.013.677a6.23 6.23 0 00-.916.913l6.202 5.054a1.77 1.77 0 01-.26.257l-5.026-6.224zm6.167 3.064l-.068-.724-7.965.751.069.725 7.964-.752zm-4.05-4.349h-1.757v8h1.756v-8zm-5.757 4v10.24h8v-10.24h-8zm4.716 3.624v.143h8v-.143h-8zm0 .143c0 .067-.005.092-.004.084l7.845 1.569c.11-.555.16-1.109.16-1.653h-8zm-.001.071c.018-.089.067-.27.196-.493l6.927 4.002a6.34 6.34 0 00.716-1.915l-7.84-1.594zm.196-.493c.194-.336.494-.667.893-.915l4.211 6.803a5.358 5.358 0 001.823-1.886l-6.927-4.002zm.857-.892a2.765 2.765 0 011.458-.444v8c.863 0 1.873-.195 2.826-.8l-4.284-6.756zm1.458-.444c.078 0 .237.007.451.057l-1.818 7.79c.487.114.952.153 1.367.153v-8zm.573.088c.177.047.42.135.687.297l-4.16 6.834c.477.29.96.478 1.412.598l2.06-7.73zm.727.322c.204.128.39.284.552.462l-5.932 5.368c.334.37.717.69 1.14.954l4.24-6.784zm.623.543c.141.165.25.334.329.493l-7.156 3.578c.198.396.448.779.753 1.135l6.074-5.206zm.751 2.282v-3.09h-8v3.09h8zm-.422-1.301c-.082.163-.205.36-.386.56l-5.933-5.368a5.48 5.48 0 00-.837 1.23l7.156 3.578zm-.456.634c-.205.216-.44.392-.686.524l-3.792-7.043c-.484.26-.927.595-1.315 1.002l5.793 5.517zm-.732.549a2.635 2.635 0 01-.663.242l-1.676-7.823c-.444.095-.906.25-1.361.488l3.7 7.093zm-.531.211c-.24.06-.43.072-.546.072v-8c-.426 0-.9.043-1.395.167l1.94 7.761zm-.546.072c-.299 0-.83-.067-1.4-.414l4.166-6.83a5.281 5.281 0 00-2.767-.756v8zm-1.363-.392a2.607 2.607 0 01-.87-.846l6.775-4.254a5.393 5.393 0 00-1.813-1.775l-4.092 6.875zm-.926-.938a1.778 1.778 0 01-.219-.54l7.845-1.568a6.252 6.252 0 00-.739-1.962l-6.887 4.07zm-.203-.463c-.01-.046-.005-.048-.005.008h8a8.02 8.02 0 00-.182-1.73l-7.813 1.722zm12.342 2.065L93.97 21.18l-.037.06-.035.06 3.473 1.985zm-.253.253l2.097 3.407.03-.019.03-.019-2.157-3.369zm-.458.178l.878 3.902.035-.008.035-.008-.948-3.886zm-1.244 0l-.838 3.911.01.002.009.002.819-3.915zm-.513-.198l2.073-3.421-.038-.023-.039-.023-1.996 3.467zm-.369-.342l-3.344 2.194.016.025.016.024 3.312-2.243zm-.164-.52l3.99-.272-.253-3.728H94.37v4zm-1.811 0v-4h-4v4h4zm.218.903l-3.599 1.745.016.033.017.032 3.566-1.81zm.657.793l2.546-3.085-.015-.012-.015-.012-2.516 3.109zm1.066.574l-1.302 3.782.013.004 1.289-3.786zm2.85.055l1.031 3.864.02-.005.02-.005-1.07-3.854zm1.053-.472l2.266 3.296.013-.008.012-.009-2.29-3.28zm.663-.711l-3.47-1.99-.004.009-.006.009 3.48 1.972zm0-1.825l-3.435 2.049.021.035.022.036 3.392-2.12zm-.649-.663l2.193-3.345-.019-.013-.019-.012-2.155 3.37zm-2.235-.718l.644-3.948-.031-.005-.031-.005-.582 3.958zm-.766-.157l-1.213 3.811.04.013.04.012 1.133-3.836zm-.472-.212l2.25-3.308-.076-.051-.077-.048-2.097 3.407zm-.246-.246l-3.611 1.72.016.034.018.034 3.577-1.788zm.007-.616l-3.511-1.915-.017.03-.015.03 3.543 1.855zm.233-.26l2.352 3.235.024-.017.024-.017-2.4-3.2zm.423-.19l-1.018-3.87 1.018 3.87zm1.306.033l-1.345 3.767.014.005.014.005 1.317-3.777zm.465.274l2.904-2.751-.037-.04-.039-.038-2.828 2.829zm.184.294l-3.745 1.404.01.027.01.026 3.725-1.457zm.062.341h-4v4h4v-4zm1.9 0v4h4v-4h-4zm-.875-1.708l2.417-3.188-.029-.022-.029-.02-2.359 3.23zm-1.046-.493l-1.149 3.832.02.005.02.006 1.11-3.843zm-3.712.5l2.434 3.174-2.433-3.175zm-.635 2.44l-3.453 2.02.014.023.014.024 3.425-2.067zm.601.636l2.363-3.228-.019-.014-.019-.013-2.325 3.255zm.916.478l-1.394 3.75.03.01.028.01 1.336-3.77zm1.19.321l-.785 3.923.025.005.026.004.734-3.932zm1.388.397l2.022-3.45-.07-.042-.07-.038-1.882 3.53zm.273.246l-3.462 2.004.039.067.041.065 3.382-2.136zm-3.918.3c0-.62.173-1.245.51-1.79l6.802 4.21a4.584 4.584 0 00.688-2.42h-8zm.438-1.67c.33-.578.755-.934 1.064-1.131l4.312 6.738a4.737 4.737 0 001.57-1.637l-6.946-3.97zm1.124-1.168c.344-.212.615-.284.69-.302l1.896 7.772c.45-.11 1.026-.3 1.607-.657l-4.193-6.813zm.76-.319c.095-.021.164-.03.2-.033.036-.003.049-.003.036-.003v8c.454 0 .976-.036 1.52-.159l-1.756-7.805zm.236-.036c.063 0 .137.007.218.024l-1.64 7.83c.472.099.948.146 1.422.146v-8zm.236.028c.196.042.45.127.722.292l-4.146 6.841c.573.347 1.17.565 1.748.69l1.676-7.823zm.645.246c.366.21.696.512.947.881l-6.624 4.487a5.105 5.105 0 001.686 1.565l3.991-6.933zm.98.93c.335.511.456 1.023.482 1.403l-7.982.544c.054.781.284 1.64.811 2.442l6.688-4.389zm-3.509-2.325H92.56v8h1.811v-8zm-5.811 4c0 .97.24 1.864.62 2.648l7.198-3.49c.088.181.182.474.182.842h-8zm.652 2.713a6.441 6.441 0 001.706 2.092l5.033-6.218c.102.081.263.246.394.505l-7.133 3.621zm1.676 2.068a7.38 7.38 0 002.311 1.271l2.604-7.565c-.06-.02.028 0 .178.124l-5.093 6.17zm2.324 1.275a8.56 8.56 0 002.766.433v-8c-.215 0-.257-.03-.188-.006l-2.578 7.573zm2.766.433c.789 0 1.6-.085 2.404-.3l-2.061-7.73a1.465 1.465 0 01-.343.03v8zm2.444-.31a7.48 7.48 0 002.248-1.03l-4.532-6.592c.139-.096.21-.105.143-.087l2.141 7.709zm2.273-1.047a6.169 6.169 0 001.852-2.018l-6.96-3.944c.172-.302.381-.495.527-.597l4.581 6.56zm1.842-2c.516-.898.77-1.89.77-2.9h-8c0-.352.094-.738.29-1.08l6.94 3.98zm.77-2.9c0-.967-.224-2.037-.848-3.035l-6.784 4.24a2.326 2.326 0 01-.368-1.204h8zm-.804-2.964a6.042 6.042 0 00-1.892-1.96l-4.386 6.69a1.964 1.964 0 01-.593-.632l6.871-4.098zm-1.93-1.984a7.89 7.89 0 00-2.005-.902l-2.282 7.668c.046.014.065.022.06.02a.67.67 0 01-.083-.046l4.31-6.74zm-2.005-.902a14.031 14.031 0 00-1.74-.394l-1.29 7.896c.3.049.548.106.748.166l2.282-7.668zm-1.803-.404a3.686 3.686 0 01-.202-.034c-.042-.009-.043-.01-.013-.002l-2.266 7.673c.446.131.902.217 1.317.278l1.164-7.915zm-.135-.011c.014.005.071.023.158.062.084.038.23.11.407.23l-4.499 6.615c.555.377 1.112.59 1.508.716l2.426-7.623zm.412.193c.292.18.847.595 1.235 1.372l-7.155 3.577a4.625 4.625 0 001.727 1.864l4.193-6.813zm1.269 1.44c.218.46.32.947.32 1.413h-8c0 .685.147 1.377.457 2.027l7.223-3.44zm.32 1.413c0 .529-.128 1.064-.382 1.548l-7.086-3.712a4.653 4.653 0 00-.532 2.164h8zm-.413 1.608c-.253.463-.59.814-.927 1.06l-4.705-6.47a4.785 4.785 0 00-1.391 1.579l7.023 3.83zm-.88 1.025c-.41.307-.778.43-.958.477l-2.036-7.737a5.203 5.203 0 00-1.806.86l4.8 6.4zm-.958.477c-.24.063-.394.063-.41.063v-8c-.48 0-1.039.045-1.626.2l2.036 7.736zm-.41.063c-.036 0-.287-.002-.647-.13l2.69-7.535a6.06 6.06 0 00-2.042-.335v8zm-.62-.12a2.814 2.814 0 01-1.046-.676l5.657-5.657a5.196 5.196 0 00-1.975-1.221L95.35 22.72zm-1.121-.753a3.134 3.134 0 01-.657-1.053l7.491-2.809a4.882 4.882 0 00-1.026-1.64l-5.808 5.502zm-.637-1a3.074 3.074 0 01-.213-1.116h8a4.93 4.93 0 00-.337-1.799l-7.45 2.915zm3.787 2.884h1.9v-8h-1.9v8zm5.9-4c0-.952-.215-1.9-.67-2.783l-7.11 3.666a1.96 1.96 0 01-.22-.883h8zm-.67-2.783a6.24 6.24 0 00-1.788-2.113l-4.833 6.375a1.776 1.776 0 01-.49-.596l7.111-3.666zm-1.846-2.156a7.31 7.31 0 00-2.294-1.104l-2.22 7.685c.048.014-.046-.005-.204-.12l4.718-6.46zm-2.255-1.093a8.81 8.81 0 00-2.537-.353v8c.201 0 .267.024.238.016l2.299-7.663zm-2.537-.353c-.82 0-1.677.102-2.525.368l2.397 7.633c-.064.02-.036-.001.128-.001v-8zm-2.525.368a7.188 7.188 0 00-2.233 1.141l4.867 6.349c-.161.124-.267.152-.237.143l-2.397-7.633zm-2.233 1.141a6.218 6.218 0 00-1.738 2.048l7.085 3.716c-.15.284-.338.476-.48.585l-4.867-6.349zm-1.738 2.048a5.858 5.858 0 00-.676 2.733h8c0 .36-.093.704-.24.983l-7.084-3.716zm-.676 2.733c0 .934.217 1.926.759 2.853l6.906-4.039c.26.445.335.88.335 1.186h-8zm.787 2.901a6.144 6.144 0 001.701 1.823l4.65-6.51c.139.1.332.278.498.552l-6.849 4.135zm1.663 1.796c.605.443 1.25.764 1.885 1l2.788-7.498-.037-.015c.01.005.042.023.09.058l-4.726 6.455zm1.943 1.021c.565.2 1.15.355 1.741.474l1.57-7.845a4.667 4.667 0 01-.638-.17l-2.673 7.541zm1.792.483a5.9 5.9 0 01.483.106l2.197-7.692c-.386-.11-.801-.201-1.212-.278l-1.468 7.864zm.483.106c.024.007.015.005-.02-.008a1.984 1.984 0 01-.224-.104l3.765-7.059a6.755 6.755 0 00-1.324-.521l-2.197 7.692zm-.384-.19a3.298 3.298 0 01-1.166-1.2l6.924-4.01a4.718 4.718 0 00-1.713-1.692l-4.045 6.902zm-1.086-1.07a3.45 3.45 0 01-.536-1.834h8c0-.782-.197-1.64-.7-2.437l-6.764 4.272zm17.819 1.05v4h2.853l.929-2.696-3.782-1.303zm3.726-10.807l3.782 1.303 1.828-5.303h-5.61v4zm-1.77 0v-4h-2.853l-.929 2.696 3.782 1.304zm-3.726 10.808l-3.782-1.304-1.828 5.304h5.61v-4zm5.552 1.303l3.726-10.808-7.564-2.607-3.725 10.808 7.563 2.607zm-.056-16.111h-1.77v8h1.77v-8zm-5.552 2.696l-3.726 10.808 7.564 2.607 3.725-10.808-7.563-2.607zm.056 16.112h1.77v-8h-1.77v8zm8.005-5.832h-4v5.95l5.51-2.247-1.51-3.703zm6.152-2.51l1.511 3.705 2.489-1.016v-2.688h-4zm0-1.551h4V17.27l-2.493-1.013-1.507 3.705zm-6.152-2.502l1.507-3.705-5.507-2.24v5.945h4zm0 1.839h-4v2.894l2.749.905 1.251-3.8zm3.924 1.292l1.265-3.795-.007-.002-.007-.003-1.251 3.8zm.41.136l1.246 3.802 11.497-3.77-11.478-3.826-1.265 3.794zm-.417.137l-1.246-3.8-.013.003-.012.005 1.271 3.792zm-3.917 1.313l-1.271-3.793-2.729.915v2.878h4zm1.51 5.55l6.153-2.51-3.021-7.407-6.153 2.509 3.021 7.407zm8.642-6.213v-1.552h-8v1.552h8zm-2.493-5.257l-6.152-2.502-3.014 7.41 6.152 2.502 3.014-7.41zM114.05 17.46v1.839h8V17.46h-8zm2.749 5.638l3.924 1.292 2.502-7.599-3.924-1.292-2.502 7.6zm3.91 1.288l.41.136 2.53-7.59-.41-.136-2.53 7.59zm.429-7.46l-.417.137 2.492 7.602.417-.136-2.492-7.602zm-.442.146l-3.917 1.312 2.542 7.585 3.917-1.312-2.542-7.585zm-6.646 5.105v1.846h8v-1.846h-8z" fill="#fff"/><path d="M14.759 24.016v-1.853l-3.746-1.25-.465-.165.465-.17 3.746-1.272V17.46l-6.05 2.509v1.538l6.05 2.509zM19.27 25h1.956l3.014-9.953h-2.119l-1.695 6.494-.185.677-.17-.67-1.69-6.501h-2.118L19.27 25zm11.253-2.598c0 .178-.037.342-.11.492a1.076 1.076 0 01-.314.377 1.54 1.54 0 01-.506.246c-.196.059-.422.088-.677.088a3.1 3.1 0 01-.793-.095 1.623 1.623 0 01-.608-.301 1.37 1.37 0 01-.404-.526 2.04 2.04 0 01-.157-.773h-1.887c0 .515.098.964.294 1.347.2.383.472.715.814.998.36.287.781.506 1.264.656.488.146.98.219 1.477.219.506 0 .973-.06 1.401-.178a3.302 3.302 0 001.108-.54c.31-.232.551-.517.724-.854.178-.342.267-.732.267-1.17 0-.505-.116-.952-.349-1.34a3.535 3.535 0 00-.936-1.018 5.285 5.285 0 00-.855-.471 7.287 7.287 0 00-.977-.349 8.357 8.357 0 01-.861-.28c-.251-.1-.465-.212-.643-.335a1.386 1.386 0 01-.41-.404.956.956 0 01-.137-.505c0-.178.034-.342.103-.493.073-.155.177-.289.314-.403.137-.11.303-.194.5-.253.2-.064.427-.096.683-.096.278 0 .52.04.724.117.21.073.385.175.527.307.136.137.239.299.307.486.073.186.114.392.123.615h1.873a2.89 2.89 0 00-.26-1.23 2.918 2.918 0 00-.724-.971 3.363 3.363 0 00-1.114-.63 4.271 4.271 0 00-1.422-.225c-.502 0-.966.066-1.395.198-.428.128-.8.313-1.114.554-.314.242-.56.533-.738.875a2.436 2.436 0 00-.267 1.142c0 .364.066.702.198 1.011.137.31.338.593.602.848.264.255.604.49 1.018.704.42.214.905.397 1.457.547.355.096.651.2.888.314.242.11.438.23.588.363.146.136.248.282.308.437.064.155.096.322.096.5zm10.15-.52h-1.92c-.018.302-.068.56-.15.773a1.43 1.43 0 01-.335.527 1.285 1.285 0 01-.513.3c-.2.064-.426.096-.677.096-.187 0-.358-.02-.513-.061a1.402 1.402 0 01-.718-.513 2.066 2.066 0 01-.225-.424 3.714 3.714 0 01-.205-.813 8.314 8.314 0 01-.062-1.067v-1.353c0-.292.014-.563.042-.814.027-.255.07-.487.13-.697.077-.269.18-.504.307-.704a1.43 1.43 0 01.478-.472c.11-.064.228-.111.356-.143.132-.032.273-.048.424-.048.282 0 .524.038.724.116.206.073.376.182.513.328.132.15.233.337.3.56.074.224.12.484.138.78h1.914a4.682 4.682 0 00-.328-1.401 3.066 3.066 0 00-.711-1.053 3.077 3.077 0 00-1.094-.663 4.227 4.227 0 00-1.456-.233c-.37 0-.716.048-1.04.144a3.283 3.283 0 00-.881.396c-.3.205-.57.456-.807.752a3.79 3.79 0 00-.574 1.012c-.128.31-.223.647-.287 1.012-.064.36-.096.74-.096 1.141v1.34c0 .429.034.834.103 1.217.073.383.175.734.307 1.053.137.319.303.61.5.875.2.264.428.49.683.677.278.2.59.355.937.464.35.105.731.158 1.141.158.52 0 .994-.076 1.422-.226a3.276 3.276 0 001.107-.656 3.11 3.11 0 00.739-1.026c.187-.4.296-.852.328-1.353zm1.306-.649v.144c0 .542.078 1.044.233 1.504.155.456.383.852.683 1.19.297.337.661.6 1.094.792.438.187.934.28 1.49.28.552 0 1.044-.093 1.477-.28a3.103 3.103 0 001.094-.793c.296-.337.522-.733.677-1.19.155-.46.232-.96.232-1.503v-.144c0-.537-.078-1.034-.232-1.49-.155-.46-.381-.859-.677-1.196a3.171 3.171 0 00-1.1-.793c-.434-.192-.928-.287-1.484-.287-.556 0-1.05.096-1.484.287-.428.191-.79.456-1.087.793-.3.337-.528.736-.683 1.196a4.603 4.603 0 00-.233 1.49zm1.9.144v-.144c0-.3.03-.585.09-.854a2.25 2.25 0 01.28-.711c.128-.205.292-.367.492-.485a1.4 1.4 0 01.725-.178c.287 0 .53.06.731.178.2.118.365.28.492.485.123.205.215.442.274.71.06.27.089.555.089.855v.144c0 .31-.03.602-.09.875-.058.269-.15.504-.273.704a1.434 1.434 0 01-.492.485c-.2.119-.44.178-.718.178-.287 0-.533-.06-.738-.178-.2-.118-.364-.28-.492-.485a2.17 2.17 0 01-.28-.704 4.124 4.124 0 01-.09-.875zm6.57-.13v.144c0 .537.066 1.036.199 1.497.132.455.323.85.574 1.182.246.333.547.595.902.786.36.187.766.28 1.217.28.414 0 .78-.079 1.094-.238a2.51 2.51 0 00.82-.67l.096.772h1.715V14.5H55.16v3.767a2.39 2.39 0 00-.786-.588 2.31 2.31 0 00-1.018-.212c-.46 0-.871.09-1.231.273-.355.183-.659.44-.91.773-.25.332-.441.731-.573 1.196a5.801 5.801 0 00-.192 1.538zm1.9.144v-.144c0-.31.028-.6.083-.868.054-.274.14-.513.26-.718.118-.2.27-.358.457-.472.192-.118.422-.177.69-.177.324 0 .593.07.808.212.214.136.385.33.512.58V22.8c-.127.246-.3.44-.52.58-.214.142-.485.213-.813.213a1.29 1.29 0 01-.683-.171 1.337 1.337 0 01-.458-.472 2.176 2.176 0 01-.26-.69 4.741 4.741 0 01-.075-.868zm10.296 3.746c.715 0 1.335-.14 1.859-.417.524-.278.907-.588 1.148-.93l-.95-1.025a2.002 2.002 0 01-.854.635 2.885 2.885 0 01-1.087.212c-.265 0-.508-.04-.732-.123a1.895 1.895 0 01-.594-.348 1.833 1.833 0 01-.404-.486 2.679 2.679 0 01-.246-.718v-.02h5.018v-.807c0-.542-.075-1.036-.226-1.483a3.226 3.226 0 00-.656-1.155 2.949 2.949 0 00-1.067-.739c-.414-.177-.888-.266-1.421-.266-.515 0-.992.093-1.43.28a3.36 3.36 0 00-1.134.786c-.319.337-.567.74-.745 1.21-.178.465-.267.98-.267 1.545v.273c0 .497.09.964.267 1.402.182.433.44.809.773 1.128a3.64 3.64 0 001.196.765c.465.187.982.28 1.551.28zm-.226-6.132c.242 0 .453.039.636.116.187.073.344.173.471.3a1.479 1.479 0 01.41 1.032v.152H60.82c.046-.242.114-.46.205-.657.092-.196.206-.364.342-.506a1.31 1.31 0 01.465-.32c.178-.078.374-.117.588-.117zm12.291-2.393v-1.565h-8.025v1.565h3.028V25h1.928v-8.388h3.069zm1.668.992v1.551h2.105v4.3h-2.105V25h6.03v-1.545h-2.004v-5.851h-4.026zm1.969-1.894c0 .146.025.282.075.41a1.007 1.007 0 00.567.526c.137.05.287.076.451.076.338 0 .604-.094.8-.28.2-.192.301-.436.301-.732s-.1-.538-.3-.725c-.197-.191-.463-.287-.8-.287-.165 0-.315.025-.452.075-.132.05-.246.119-.342.206a.981.981 0 00-.225.328c-.05.123-.075.257-.075.403zm5.96 12.134h1.901v-3.487a2.44 2.44 0 00.574.472c.178.1.37.176.574.226.21.054.438.082.684.082.465 0 .877-.096 1.237-.287.36-.192.663-.456.91-.793.241-.333.423-.73.546-1.19.128-.46.192-.96.192-1.497v-.143c0-.561-.064-1.071-.192-1.532a3.49 3.49 0 00-.553-1.196 2.517 2.517 0 00-.91-.759 2.717 2.717 0 00-1.244-.273 2.644 2.644 0 00-1.182.273c-.137.073-.265.16-.383.26a2.236 2.236 0 00-.328.328l-.069-.724h-1.756v10.24zm4.717-6.617v.143c0 .305-.027.595-.082.868a2.346 2.346 0 01-.26.711 1.359 1.359 0 01-.464.486 1.251 1.251 0 01-.684.177 2.02 2.02 0 01-.458-.047 1.375 1.375 0 01-.362-.15 1.384 1.384 0 01-.294-.247 1.573 1.573 0 01-.212-.321v-3.09c.064-.128.139-.24.226-.335a1.25 1.25 0 01.663-.362c.127-.032.269-.048.424-.048a1.29 1.29 0 011.155.636c.118.2.205.437.26.71.059.27.088.559.088.869zm8.436 1.743c0 .114-.03.219-.089.314a.744.744 0 01-.253.253 1.6 1.6 0 01-.458.178 2.95 2.95 0 01-.642.061c-.206 0-.406-.02-.602-.061a1.648 1.648 0 01-.513-.198c-.15-.087-.273-.2-.369-.342a1.061 1.061 0 01-.164-.52H92.56c0 .301.073.602.218.903.15.296.37.56.657.793a3.39 3.39 0 001.066.574c.428.146.92.219 1.477.219.505 0 .963-.055 1.374-.164.41-.114.76-.272 1.052-.472.287-.2.508-.438.663-.711.16-.278.24-.581.24-.91 0-.355-.08-.66-.24-.915a2.045 2.045 0 00-.649-.663 3.896 3.896 0 00-.991-.438 10.033 10.033 0 00-1.244-.28 5.713 5.713 0 01-.766-.157 1.847 1.847 0 01-.472-.212.635.635 0 01-.246-.246.708.708 0 01.007-.616.785.785 0 01.233-.26c.109-.081.25-.145.423-.19.173-.046.376-.07.609-.07.273 0 .506.035.697.103.196.069.35.16.465.274a.865.865 0 01.184.294.93.93 0 01.062.341h1.9c0-.341-.075-.658-.225-.95a2.232 2.232 0 00-.65-.758 3.319 3.319 0 00-1.046-.493 4.823 4.823 0 00-1.387-.184c-.492 0-.934.061-1.326.184s-.725.29-.999.5a2.22 2.22 0 00-.628.73c-.146.279-.22.57-.22.876 0 .314.072.592.213.834.146.241.346.453.601.636.255.186.56.346.916.478.36.128.757.235 1.19.321.342.064.624.128.847.192.224.064.404.132.54.205.133.077.224.16.274.246a.551.551 0 01.082.3zm14.355 2.885l3.726-10.808h-1.77l-3.726 10.808h1.77zm6.235-1.832l6.152-2.51v-1.551l-6.152-2.502v1.839l3.924 1.292.41.136-.417.137-3.917 1.313v1.846z" fill="#471B52"/></svg>